<svg id="Layer_1" enable-background="new 0 0 480 480" height="512" viewBox="0 0 480 480" width="512" xmlns="http://www.w3.org/2000/svg"><path d="m446.495 106h-38c-4.418 0-8 3.582-8 8s3.582 8 8 8h21.196l-29.465 36.279c-21.41 11.303-42.419 17.587-62.652 18.735l39.96-88.362c28.505 7.148 55.961-14.543 55.961-43.652 0-24.813-20.187-45-45-45s-45 20.187-45 45c0 4.418 3.582 8 8 8s8-3.582 8-8c0-15.991 13.009-29 29-29s29 13.009 29 29c0 19.03-18.765 34.966-40.545 26.63-4.16-2.17-9.128-.332-10.989 3.785l-13.831 30.585h-124.951c-4.092-51.966-47.685-93-100.684-93-55.691 0-101 45.308-101 101s45.309 101 101 101c4.418 0 8-3.582 8-8s-3.582-8-8-8c-46.869 0-85-38.131-85-85s38.131-85 85-85c44.17 0 80.565 33.87 84.612 77h-84.612c-6.722 0-10.449 7.824-6.21 13.043l158.21 194.796v150.161h-63c-4.418 0-8 3.582-8 8s3.582 8 8 8h142c4.418 0 8-3.582 8-8s-3.582-8-8-8h-63v-150.161c6.966-8.577 150.756-185.618 158.21-194.796 4.239-5.219.512-13.043-6.21-13.043zm-101.601 16-24.746 54.72c-32.098-2.923-52.979-18.138-93.333-14.691-4.402.376-7.666 4.249-7.291 8.651.376 4.402 4.254 7.667 8.652 7.291 34.938-2.984 53.825 9.957 85.042 14.072l-3.012 6.661c-1.821 4.026-.033 8.765 3.993 10.586 4.024 1.82 8.765.034 10.585-3.993l5.467-12.089c16.55.069 32.656-2.922 48.22-8.143l-91.977 113.246-143.195-176.311zm-226.399-52v-10c0-4.418 3.582-8 8-8s8 3.582 8 8v10c0 4.418-3.582 8-8 8s-8-3.582-8-8zm-36 36c4.418 0 8 3.582 8 8s-3.582 8-8 8h-10c-4.418 0-8-3.582-8-8s3.582-8 8-8z"/></svg>