<svg id="Layer_1" enable-background="new 0 0 66 66" height="512" viewBox="0 0 66 66" width="512" xmlns="http://www.w3.org/2000/svg"><g><path d="m1 42.9041c0 4.8526 3.9474 8.8 8.8 8.8h44.0851c4.8526 0 8.8-3.9474 8.8-8.8 0-.5405-.4373-.9778-.9778-.9778h-4.2408c.6042-.5024 1.1303-1.1058 1.5299-1.8085 1.643-2.8903.8633-6.5006-1.6792-8.4926l7.5545-13.2907c.2674-.4698.1031-1.0666-.3667-1.333-.4717-.2683-1.0675-.1031-1.333.3667l-7.5542 13.2902c-.7601-.2938-1.5679-.453-2.3831-.453-2.3843 0-4.5958 1.2862-5.7721 3.3563-1.6102 2.8323-.9137 6.3439 1.5144 8.3646h-5.1416c.9972-.8263 1.7698-1.9291 2.1491-3.2255.933-3.1903-.6567-6.5235-3.5895-7.8771l4.2913-14.673c.1518-.5175-.1461-1.0609-.6646-1.2127-.5194-.1509-1.0609.1461-1.2127.6646l-4.2892 14.6659c-3.3173-.4606-6.3735 1.646-7.2694 4.7093-.7617 2.6049.1576 5.3072 2.1153 6.9485h-5.1977c1.1839-.9938 2.0205-2.4006 2.2823-4.0381.5251-3.2826-1.4696-6.3904-4.5486-7.3649l2.4163-15.0944c.0859-.5338-.2779-1.0351-.8107-1.1201-.5357-.0878-1.0351.2779-1.1201.8107l-2.416 15.092c-.0257-.0003-.0514-.0061-.0772-.0061-3.2733 0-6.0261 2.349-6.5437 5.586-.3641 2.2766.4545 4.5876 2.2995 6.135h-5.1537c.9876-.9133 1.719-2.1107 2.0072-3.4958.678-3.2505-1.14-6.4472-4.1995-7.5698l3.1157-14.965c.1098-.529-.2301-1.0465-.7582-1.1573-.5366-.1079-1.0475.2301-1.1563.7582l-3.117 14.9665c-.1282-.0075-.2566-.02-.3845-.02-3.1224 0-5.8504 2.222-6.4883 5.2823-.4889 2.3509.3426 4.6704 1.9809 6.2009h-5.5183c-.5405-.0001-.9778.4373-.9778.9777zm48.1623-8.376c.8298-1.46 2.39-2.3671 4.0725-2.3671 3.5517 0 5.8371 3.8648 4.062 6.9906-.8307 1.46-2.391 2.3671-4.0715 2.3671-3.5934-.0001-5.8257-3.8902-4.063-6.9906zm-14.0345.9978c.7104-2.4298 3.2884-3.9141 5.8017-3.1768 2.476.7247 3.9016 3.3277 3.1778 5.8037-.7058 2.4127-3.2714 3.917-5.8037 3.1759-2.475-.7239-3.8996-3.3268-3.1758-5.8028zm-13.8465.5748c.3657-2.2831 2.305-3.9398 4.6129-3.9398 2.8938 0 5.0777 2.5928 4.6254 5.4179-.3657 2.2831-2.305 3.9398-4.6129 3.9398-.2473 0-.4984-.0201-.7457-.0592-2.5521-.4089-4.2887-2.8057-3.8797-5.3587zm-13.8513.0239c.4497-2.1589 2.3738-3.7259 4.5738-3.7259 2.9755 0 5.1895 2.7274 4.5862 5.6327-.4497 2.1589-2.3738 3.7259-4.5738 3.7259-.3199 0-.6426-.0334-.9596-.0993-2.5256-.5261-4.1517-3.0087-3.6266-5.5334zm53.2299 7.7573c-.4755 3.3124-3.3325 5.8667-6.7748 5.8667h-44.0851c-3.4423 0-6.2992-2.5543-6.7748-5.8667z"/></g></svg>