<?xml version="1.0"?>
<svg xmlns="http://www.w3.org/2000/svg" viewBox="0 0 64 64" width="512" height="512"><g id="Outline"><g><path d="M48.977,20.5a1,1,0,1,0-.385,1.963C56.473,24.005,60,26.356,60,28c0,1.226-1.883,2.646-5.056,3.825l-22.7-5.794a1,1,0,0,0-.981,1.65l6.638,7.149c-1.849.106-3.752.161-5.679.165a1,1,0,0,0,0,2h0c2.313,0,4.574-.1,6.771-.246v12.01q-2.238.156-4.646.211l-1.46-3.527a1,1,0,0,0-1.248-.563A1.982,1.982,0,0,1,31,45a1.993,1.993,0,0,1-.873-3.788,1,1,0,1,0-.881-1.8,3.992,3.992,0,0,0,2.12,7.564l3.762,9.083a14.853,14.853,0,0,1-7.788,3.741,17.078,17.078,0,0,0,3.681-2.784,1,1,0,0,0,.216-1.09L26.871,45.388a1,1,0,0,0-1.848.765l4.105,9.911a15,15,0,0,1-20.256,0L13.041,46a2.994,2.994,0,0,0,2.106-5.086L19,31.613l4.492,10.845a1,1,0,0,0,1.848-.766L20.5,30h3.835l.51,1.232A3,3,0,0,0,26,37a2.958,2.958,0,0,0,1.138-.226l.358.866a1,1,0,0,0,1.848-.766L28.5,34.836a1,1,0,0,0-1.714-.23A1,1,0,1,1,25.992,33l.134.018a1.009,1.009,0,0,0,.922-.385,1,1,0,0,0,.129-.99l-1.253-3.026A1,1,0,0,0,25,28H19a1,1,0,0,0-.924.617l-2.083,5.03C7.729,32.11,4,29.727,4,28c0-2.923,10.652-7,28-7a94.311,94.311,0,0,1,12.7.817,1,1,0,1,0,.27-1.982A96.492,96.492,0,0,0,32,19C17.457,19,2,22.154,2,28V42c0,2.467,2.742,4.614,7.947,6.243L6.763,55.931a1,1,0,0,0,.216,1.09A16.893,16.893,0,0,0,19,62h6a16.893,16.893,0,0,0,12.021-4.979,1,1,0,0,0,.216-1.09l-2.062-4.98c1.617-.05,3.229-.138,4.815-.263H40c.008,0,.014,0,.021,0C51.731,49.754,62,46.76,62,42V28C62,23.694,53.841,21.451,48.977,20.5ZM4,42V31.434c2.669,2.105,7.486,3.385,11.21,4.1l-2.2,5.32a1,1,0,0,0,.455,1.267A.994.994,0,0,1,13,44a1.007,1.007,0,0,1-.292-.053,1,1,0,0,0-1.219.573l-.772,1.865C5.788,44.872,4,43.148,4,42Zm37-3.78a3,3,0,1,0-.616-3.659L35.045,28.81,54,33.648v12.5A60.728,60.728,0,0,1,41,48.6ZM42,36a1,1,0,1,1,1,1A1,1,0,0,1,42,36Zm14,9.408V33.551a15.565,15.565,0,0,0,4-2.141V42C60,43.13,58.565,44.328,56,45.408Z"/><path d="M49,39a3,3,0,1,0,3,3A3,3,0,0,0,49,39Zm0,4a1,1,0,1,1,1-1A1,1,0,0,1,49,43Z"/><circle cx="49" cy="36" r="1"/><circle cx="44" cy="45" r="1"/><path d="M22,58a3,3,0,1,0-3-3A3,3,0,0,0,22,58Zm0-4a1,1,0,1,1-1,1A1,1,0,0,1,22,54Z"/><path d="M14,55a1,1,0,0,1-1-1,1,1,0,0,0-2,0,3,3,0,1,0,3-3,1,1,0,0,0,0,2,1,1,0,0,1,0,2Z"/><path d="M17,47a3,3,0,1,0,3-3A3,3,0,0,0,17,47Zm3-1a1,1,0,1,1-1,1A1,1,0,0,1,20,46Z"/><circle cx="19" cy="40" r="1"/><circle cx="30" cy="50" r="1"/></g></g></svg>
