<svg height="512" viewBox="0 0 60 61" width="512" xmlns="http://www.w3.org/2000/svg"><g id="Page-1" fill="none" fill-rule="evenodd"><g id="027---Salting-Meat" fill="rgb(0,0,0)" fill-rule="nonzero"><path id="Shape" d="m45.291 18.123 12.159 3.477c.6040092.1727644 1.2540947.0516827 1.755403-.3269525.5013082-.3786351.7955746-.9708169.794597-1.5990475v-11.874c.0070003-.93021624-.6326201-1.7406515-1.539-1.95l-23.529-5.712c-1.35829-.32341656-2.7899113-.06651464-3.951.709l-15.312 10.506c-.9869042.658322-1.7080603 1.6456148-2.035 2.786l-2.969 10.391c-.4611486 1.6153303.4015232 3.3129392 1.9781632 3.8927291s3.3336051-.1544799 4.0288368-1.6837291l4.083-8.984 9.245-4.202v3.958l-6.984 5.432c-1.4022607 1.0924062-1.7696714 3.0590332-.8564018 4.5840332.9132697 1.525 2.8204215 2.1294703 4.4454018 1.4089668l5.82-2.586c.623-.277 1.266-.526 1.91-.741 3.4214891-1.1445948 6.5311723-3.0665399 9.085-5.615zm-11.591 5.589c-.7.234-1.407.507-2.09.81l-5.819 2.587c-.7019936.3129227-1.5271076.0521903-1.9218267-.6072886-.394719-.659479-.2346502-1.5098745.3728267-1.9807114l6.985-5.432c.4888819-.3772997.7745481-.9604579.773-1.578v-3.958c.0001518-.6801532-.3453687-1.3137642-.9172229-1.6819913-.5718541-.3682272-1.2916494-.4205922-1.9107771-.1390087l-9.586 4.358c-.22248.0995126-.4004874.27752-.5.5l-4.238 9.325c-.2420462.5311519-.8287818.8137944-1.395.672-.3169302-.0790907-.5882221-.283359-.751826-.5660847-.163604-.2827257-.2055246-.6197234-.116174-.9339153l2.969-10.392c.1979561-.6880791.6343226-1.2832532 1.231-1.679l15.315-10.516c.6938296-.46254401 1.548872-.61543719 2.36-.422l23.54 5.722v11.874l-12.16-3.474c-.698217-.1992397-1.4495723-.0044155-1.963.509l-1.871 1.871c-2.3353009 2.3290119-5.1782365 4.0855669-8.306 5.132z"/><path id="Shape" d="m51.9 10.421 2.1.515v2.064c0 .5522847.4477153 1 1 1s1-.4477153 1-1v-2.849c-.0002349-.46080425-.3153242-.86178944-.763-.971l-2.865-.7c-.3508872-.09610044-.7262827.00594553-.9802288.26646133-.2539462.26051581-.3463728.63839477-.2413435.98671353.1050294.34831874.3909421.61211624.7465723.68882514z"/><path id="Shape" d="m4 37.82c0 6.731 4.6 11.514 12.315 12.8 1.8617091.3158084 3.7466951.474368 5.635.474 3.451 0 4.205-.959 5.586-3.137 1.36-2.143 3.416-5.383 9.154-5.383 6.068 0 6.31-2.041 6.31-7.07-.0172832-3.5648731-1.8688215-6.8696801-4.9-8.746-.4561872-.3114886-1.0785114-.1941872-1.39.262s-.1941872 1.0785114.262 1.39c2.4878621 1.498547 4.0145024 4.1857069 4.028 7.09 0 4.784 0 5.07-4.31 5.07-6.837 0-9.443 4.106-10.847 6.32-1.183 1.864-1.4 2.2-3.893 2.2-1.7760321-.0001505-3.5489194-.1493406-5.3-.446-6.77-1.125-10.65-5.07-10.65-10.824.06957109-2.9880987 1.38578847-5.8108955 3.63-7.785.4004064-.3808003.4163003-1.0140936.03549999-1.4145-.38080033-.4004064-1.01409354-.4163003-1.41449999-.0355-2.629185 2.3609185-4.16729745 5.7023602-4.251 9.235z"/><path id="Shape" d="m24 37c-.1614603-2.9066892-2.6371528-5.1390539-5.545-5-2.9074659-.1384867-5.3825362 2.0937196-5.544 5 .1614638 2.9062804 2.6365341 5.1384867 5.544 5 2.9078472.1390539 5.3835397-2.0933108 5.545-5zm-9.089 0c.164198-1.7998411 1.7417518-3.1352422 3.544-3 1.802444-.1352635 3.3802899 1.200008 3.545 3-.1647101 1.799992-1.742556 3.1352635-3.545 3-1.8022482.1352422-3.379802-1.2001589-3.544-3z"/><path id="Shape" d="m15.659 59.567c3.1016158.3467414 6.2200631.5213424 9.341.523 5.374 0 7.24-2.263 8.965-5 1.2-1.892 2.23-3.525 5.775-3.525 6.4 0 7.26-5.6 7.26-11.07v-5c.0135774-4.1443988-1.8052372-8.0829064-4.969-10.76-.4158202-.349063-1.0341976-.3025821-1.3931652.1047184-.3589675.4073006-.3273798 1.0266174.0711652 1.3952816 2.7283559 2.3031245 4.2990551 5.6945317 4.291 9.265 0 5.643-.56 9.07-8.31 9.07-4.648 0-6.21 2.471-7.465 4.456-1.6 2.529-2.884 4.064-7.275 4.064-1.9986325-.0039298-3.9936028-.1711528-5.965-.5-8.626-1.441-13.985-7.101-13.985-14.77 0-4.42 2.192-8.6 6.174-11.778.2793817-.2229337.41860731-.5779813.36523189-.9313999-.05337542-.3534185-.29124288-.6515152-.62400001-.782s-.70985019-.0735338-.98923188.1493999c-4.466 3.563-6.926 8.301-6.926 13.342v5c0 8.713 6 15.13 15.659 16.747zm0-5c2.0792036.3458018 4.1832379.5207199 6.291.523 5.382 0 7.177-2.165 8.966-5 1.195-1.891 2.229-3.524 5.774-3.524 4.15 0 6.639-1 8.129-2.6-.487 4.019-2.01 5.6-5.079 5.6-4.645 0-6.209 2.47-7.466 4.456-1.6 2.529-2.882 4.064-7.274 4.064-3.0118744-.0019718-6.0213807-.1688884-9.015-.5-7.119-1.192-12-5.261-13.5-10.956 2.623 4.093 7.195 6.936 13.174 7.937z"/><circle id="Oval" cx="27" cy="32" r="1"/><circle id="Oval" cx="31" cy="30" r="1"/><circle id="Oval" cx="30" cy="35" r="1"/><circle id="Oval" cx="27" cy="38" r="1"/></g></g></svg>