<svg height="499pt" viewBox="-55 0 499 499.783" width="499pt" xmlns="http://www.w3.org/2000/svg"><path d="m95.015625 122.34375c-.03125.035156-.066406.066406-.101563.101562-1.097656 1.128907-2.089843 2.332032-2.984374 3.589844-2.066407-1.269531-4.246094-2.433594-6.496094-3.445312-16.503906-7.4375-35.933594 1.738281-36.75 2.132812l-4.917969 2.367188 1.480469 5.253906c.246094.875 6.238281 21.511719 22.738281 28.945312 6.816406 3.074219 13.96875 4.730469 20.339844 4.730469.242187 0 .480469-.007812.722656-.015625l2.128906 17.957032c.148438 3.644531.925781 7.433593 2.246094 11.117187v81.714844c0 7.777343.914063 14.570312 2.785156 20.746093 2.347657 7.835938 6.25 14.664063 11.859375 20.84375l21.71875 74.21875-5.222656 94.179688h-3.90625c-3.558594 0-6.664062 2.746094-6.769531 6.304688-.109375 3.679687 2.839843 6.695312 6.496093 6.695312h37.425782l10.65625-95.417969v-10.460937l41.636718 92.878906h-3.914062c-3.5625 0-6.664062 2.746094-6.769531 6.304688-.113281 3.679687 2.839843 6.695312 6.496093 6.695312h48.410157l-31.332031-71.1875-.304688-.628906c-8.5625-15.65625-10.125-34.457032-10.410156-40.992188 4.9375-5.984375 10.683594-14.96875 13.882812-26.878906 9.820313 2.652344 24.578125 5.699219 47.582032 5.699219 7.746093 0 15.449218-.707031 23.019531-2.078125 3.175781 12.332031 9.003906 21.773437 17.351562 28.09375 6.855469 5.195312 10.882813 12.824218 11.132813 21.039062l-19.878906 73.933594h-6.191407c-3.558593 0-6.660156 2.746094-6.769531 6.304688-.109375 3.679687 2.839844 6.695312 6.496094 6.695312h34.976562l16.324219-55.980469v42.980469h-3.53125c-3.5625 0-6.664063 2.742188-6.773437 6.296875-.109376 3.683594 2.84375 6.703125 6.5 6.703125h36.960937v-64.300781l6.058594-50.957031c1.441406-9.980469-2.671875-14.398438-5.257813-16.144532-6.398437-4.324218-9.605468-11.789062-9.792968-22.792968l7.613281-23.246094 2.058593-10.890625c1.375-7.292969 1.488282-14.644531.425782-21.785157v-33.554687c0-18.617187-8.964844-36.503906-24.59375-49.082031-2.964844-2.386719-7.128906-2.855469-10.605469-1.1875-3.285156 1.570312-5.324219 4.742187-5.324219 8.269531v24.457031c-7.582031-3.007812-15.75-4.613281-24.140625-4.613281h-20.621093c-3.5625 0-6.664063 2.746094-6.773438 6.300781-.109375 3.683594 2.84375 6.699219 6.5 6.699219h20.121094c15.035156 0 29.5625 6.101563 39.632812 17.265625 11.039063 12.238281 15.640625 28.722656 12.601563 44.816406l-1.894531 10.058594-8.007813 24.4375v1.039062c0 15.804688 5.105469 27.355469 15.179687 34.34375.148438.472657.316407 1.6875.007813 3.8125l-6.140625 51.601563-.046875.382813v52.066406h-7.15625v-81.585938c0-2-.144531-3.992187-.429687-5.925781l-.078126-.519531c-1.667968-10.632813-7.355468-20.210938-16.027343-26.972656-6.03125-4.695313-10.8125-13.550782-13.816407-25.601563l-.085937-.328125c-.992187-4.046875-1.78125-8.433594-2.339844-13.046875-.296875-2.410156-.519531-4.875-.664062-7.359375-.175781-2.832031-1.738281-5.382812-4.183594-6.828125-2.4375-1.4375-5.429687-1.574219-8-.359375-11.265625 5.351562-23.191406 8.0625-35.453125 8.0625-20.15625 0-36.402344-2.953125-49.683594-9.039062-2.523437-1.144532-5.046875-2.421876-7.519531-3.800782-3.097656-1.722656-6.867187-1.375-9.605469.886719-2.726562 2.253906-3.769531 5.882813-2.667968 9.234375 1.890624 5.75 3.851562 14.851562 2.464843 25.613281-.070312.574219-.160156 1.148438-.246093 1.683594l-.027344.179687c-2.316406 14.121094-9.46875 24.0625-13.519532 28.730469-1.351562 1.554688-2.09375 3.550781-2.09375 5.621094v.132813c.128907 6.453124 1.375 28.964843 11.9375 48.429687l23.238282 52.796875h-10.050782l-57.28125-127.769531c-1.171874-4.707031-3.101562-9.257813-5.691406-13.46875l-16.769531-39.746094c-1.664063-3.941406-4.222656-7.429687-7.410156-10.285156-5.5-4.933594-8.652344-11.988281-8.652344-19.378907v-12.023437c0-3.558594-2.742187-6.660156-6.300781-6.769531-3.679688-.109375-6.699219 2.84375-6.699219 6.5v11.214844c0 11.464843 4.523437 22.65625 13.109375 30.253906 1.710938 1.515625 3.085938 3.433594 3.976562 5.542968l6.105469 14.46875c-8.992187-5.058593-15.441406-9.761718-20.160156-14.691406-4.773437-4.980468-8.015625-10.484375-9.921875-16.839844-1.5-4.953124-2.230469-10.511718-2.230469-16.992187v-63.410156c4.785157 3.644531 10.175781 5.640625 15.621094 5.640625h8.09375c9.171875 0 17.238281-5.367188 22.828125-12.925782l4.429688 11.714844c6.632812 17.539063 23.429687 29.140625 42.179687 29.140625h62.523437c3.558594 0 6.660157-2.742187 6.769532-6.300781.109375-3.679688-2.84375-6.699219-6.5-6.699219h-62.792969c-13.265625 0-25.328125-8.335937-30.019531-20.742187l-6.65625-17.597656c-1.417969-3.75-2.039063-7.753907-1.890625-11.757813l.003906-.058594 2.027344-17.792969c.230469.003907.457031.015626.691406.015626 6.367187 0 13.523437-1.65625 20.335937-4.730469 16.5-7.4375 22.5-28.066407 22.75-28.941407l1.484376-5.257812-4.921876-2.367188c-.820312-.398437-20.257812-9.566406-36.757812-2.132812-2.28125 1.027344-4.480469 2.203125-6.554688 3.480469-.867187-1.226563-1.832031-2.398438-2.894531-3.507813 52.769531-13.1875 92.507813-59.652344 95.515625-115.714844.203125-3.71875-2.769531-6.84765575-6.492187-6.84765575-3.429688 0-6.300781 2.65624975-6.484375 6.07812475-1.972656 37.117188-21.890625 69.550781-51.210938 88.765625 9.324219-12.710937 14.847656-28.378906 14.847656-45.320312v-14.589844c0-3.589844-2.910156-6.496094-6.496093-6.496094h-.003907c-3.589843 0-6.5 2.90625-6.5 6.496094v14.585938c0 23.5-12.777343 44.054687-31.738281 55.128906 1.605469-3.988282 2.5-8.335938 2.5-12.890625v-21.566407c0-3.585937-2.910156-6.496093-6.496093-6.496093h-.007813c-3.585937 0-6.496094 2.90625-6.496094 6.496093v21.039063c0 11.675781-9.0625 21.636719-20.734375 22.078125-12.265625.464844-22.394531-9.382812-22.394531-21.550781v-21.566407c0-3.585937-2.910156-6.496093-6.5-6.496093h-.003906c-3.585938 0-6.496094 2.90625-6.496094 6.496093v21.566407c0 4.554687.890625 8.902343 2.5 12.890625-18.960937-11.074219-31.738281-31.628906-31.738281-55.125v-14.589844c0-3.589844-2.910156-6.496094-6.5-6.496094h-.003906c-3.589844 0-6.5 2.90625-6.5 6.496094v14.585938c0 16.941406 5.527343 32.609374 14.851562 45.324218-29.324219-19.21875-49.242188-51.648437-51.214844-88.769531-.183594-3.417969-3.054687-6.078125-6.480468-6.078125-3.726563 0-6.695313 3.128906-6.496094 6.847656 2.992187 55.746094 42.289062 102.003906 94.613281 115.496094zm-21.6875 27.09375c-6.707031-3.019531-11.027344-10.039062-13.375-15.046875 5.3125-1.5625 13.433594-2.96875 20.144531.054687 2.414063 1.082032 4.707032 2.375 6.777344 3.800782-.332031 1.960937-.46875 3.96875-.40625 6.007812l1.039062 8.757813c-4.351562-.132813-9.308593-1.375-14.179687-3.574219zm298.136719 109.878906c-.441406-.570312-.875-1.148437-1.339844-1.707031-3.871094-4.675781-8.316406-8.726563-13.1875-12.09375v-23.617187c9.304688 9.570312 14.527344 21.722656 14.527344 34.210937zm-49.183594 97.054688c3.816406 11.523437 9.3125 20.144531 16.394531 25.660156 5.683594 4.429688 9.523438 10.566406 10.925781 17.394531l-25.472656 87.359375h-5.300781l19.429687-72.265625v-.859375c0-12.628906-5.9375-24.367187-16.296874-32.214844-5.886719-4.457031-10.09375-11.414062-12.53125-20.691406 4.8125-1.382812 9.082031-2.894531 12.851562-4.382812zm-40.160156-17.054688c12.101562 0 23.910156-2.277344 35.1875-6.769531.066406.609375.136718 1.222656.210937 1.828125.390625 3.199219.890625 6.304688 1.476563 9.304688-4.050782 1.644531-8.691406 3.347656-14.0625 4.84375-10.117188 2.835937-20.609375 4.273437-31.191406 4.273437-22.316407 0-36.261719-3.054687-45.375-5.578125.453124-5.953125.148437-12-.910157-17.925781 14.914063 6.742187 32.800781 10.023437 54.664063 10.023437zm-147.394532-1.355468 3.574219 2.269531c3.195313 2.027343 6.050781 4.484375 8.488281 7.296875.738282.855468 1.421876 1.746094 2.074219 2.65625l5.851563 13.050781c.488281 2.238281.75 4.382813.75 6.378906v34.027344l-9.285156 83.140625h-8.597657l5.308594-95.6875-17.070313-58.328125c2.730469 1.714844 5.679688 3.4375 8.90625 5.195313zm30.378907-199.65625c2.078125-1.441407 4.394531-2.75 6.859375-3.863282 6.699218-3.019531 14.820312-1.613281 20.132812-.054687-2.363281 5.015625-6.699218 12.046875-13.371094 15.050781-4.882812 2.203125-9.855468 3.445312-14.207031 3.574219l.953125-8.347657.039063-.566406c.050781-1.964844-.089844-3.902344-.40625-5.792968zm-34.96875 67.722656h-8.09375c-4.160157 0-8.570313-2.730469-12.160157-7.5 1.65625-7.394532 8.261719-12.941406 16.144532-12.941406 7.929687 0 14.570312 5.609374 16.179687 13.0625-3.273437 4.3125-7.589843 7.378906-12.070312 7.378906zm-25.890625-74.535156c3.230468-3.328126 7.566406-5.164063 12.203125-5.164063h19.078125c4.621094 0 8.945312 1.824219 12.171875 5.132813 3.164062 3.25 4.871093 7.515624 4.820312 12.039062l-4.441406 38.988281c-5.417969-6.070312-13.292969-9.902343-22.050781-9.902343-8.714844 0-16.554688 3.792968-21.96875 9.8125l-4.601563-38.808594c-.074219-4.542969 1.621094-8.828125 4.789063-12.097656zm0 0"/></svg>