<svg id="Capa_1" enable-background="new 0 0 512 512" height="512" viewBox="0 0 512 512" width="512" xmlns="http://www.w3.org/2000/svg"><g><path d="m460.376 242.814c-3.596-4.641-5.498-10.376-5.356-16.149.287-11.75.436-27.903.436-32.21 0-53.021-20.782-102.255-58.518-138.632-37.341-35.998-87.394-55.823-140.938-55.823-42.76 0-83.36 12.605-117.413 36.453-33.714 23.611-58.489 56.399-71.647 94.817-1.342 3.918.747 8.183 4.666 9.525 3.913 1.338 8.183-.746 9.525-4.666 4.096-11.959 9.437-23.265 15.848-33.817 54.307 4.114 96.254 49.441 96.254 105.002l-.007 14.446c-.116 23.33-14.135 44.166-35.715 53.08-5.689 2.351-10.049 7.032-11.959 12.844-1.885 5.734-1.174 11.987 1.952 17.157l10.298 17.031c3.942 6.522 6.604 13.636 7.907 21.145.709 4.082 4.595 6.813 8.673 6.106 4.081-.709 6.815-4.592 6.106-8.673-1.625-9.354-4.939-18.215-9.851-26.339l-10.298-17.031c-1.177-1.946-.842-3.787-.538-4.712.542-1.65 1.795-2.986 3.437-3.665 21.448-8.86 36.968-27.072 42.632-48.801 13.345 12.755 31.126 20.022 50.128 20.022 19.004 0 36.787-7.269 50.133-20.022 5.663 21.729 21.181 39.941 42.626 48.801 1.643.679 2.896 2.015 3.438 3.665.304.925.639 2.766-.538 4.711l-10.298 17.032c-9.897 16.369-13.255 35.709-9.455 54.455l14.248 70.29c2.903 14.323-.737 29.026-9.987 40.341-9.25 11.314-22.937 17.803-37.552 17.803h-85.227c-14.614 0-28.302-6.489-37.553-17.803-9.25-11.314-12.891-26.018-9.987-40.341l12.387-61.104c.823-4.06-1.801-8.018-5.86-8.841-4.059-.819-8.018 1.801-8.841 5.86l-7.932 39.131c-69.302-21.832-110.406-64.312-110.406-114.652 0-19.885 6.427-31.946 18.287-47.248 5.704-7.361 8.721-16.489 8.495-25.704-.285-11.629-.432-27.591-.432-31.843 0-8.509.585-17.03 1.738-25.328.57-4.103-2.293-7.891-6.396-8.461-4.094-.571-7.891 2.293-8.461 6.396-1.248 8.979-1.881 18.195-1.881 27.393 0 4.307.148 20.46.436 32.21.142 5.773-1.761 11.509-5.355 16.148-13.23 17.069-21.431 32.465-21.431 56.437 0 29.966 12.644 58.124 36.562 81.43 21.123 20.581 50.709 37.097 85.849 47.994l-1.46 7.202c-3.801 18.753.965 38.003 13.076 52.816 12.112 14.813 30.032 23.308 49.166 23.308h85.227c19.134 0 37.054-8.495 49.165-23.308s16.877-34.063 13.076-52.816l-1.46-7.201c26.489-8.2 49.543-19.427 68.594-33.43 3.337-2.453 4.054-7.147 1.601-10.485-2.453-3.337-7.147-4.054-10.485-1.601-17.356 12.759-38.429 23.073-62.705 30.732l-9.792-48.305c-3.051-15.049-.355-30.572 7.59-43.713l10.298-17.032c3.126-5.17 3.837-11.423 1.952-17.157-1.91-5.812-6.27-10.493-11.96-12.844-21.576-8.913-35.593-29.748-35.708-53.08l-.002-14.442c0-23.178 7.228-45.128 20.901-63.477 2.476-3.321 1.789-8.021-1.532-10.495-3.322-2.477-8.02-1.79-10.495 1.532-15.618 20.958-23.874 46.007-23.874 72.44l.002 12.246c-10.785 15.918-28.49 25.36-47.778 25.36-19.285 0-36.988-9.441-47.771-25.358l.006-12.25c0-60.602-43.742-110.548-101.767-119.037 33.875-45.216 88.959-73.279 149.53-73.279 62.266 0 116.399 28.574 149.635 73.266-18.53 2.708-36.1 9.726-51.426 20.622-3.375 2.4-4.166 7.083-1.766 10.459 1.463 2.057 3.773 3.154 6.119 3.154 1.503 0 3.021-.451 4.34-1.389 15.362-10.924 33.316-17.378 52.162-18.804 16.171 26.783 25.39 58.222 25.39 92.146 0 4.252-.146 20.214-.432 31.843-.226 9.215 2.791 18.343 8.496 25.705 11.859 15.301 18.286 27.362 18.286 47.247 0 22.437-8.008 43.257-23.801 61.883-2.679 3.159-2.289 7.893.87 10.571 1.41 1.195 3.133 1.779 4.847 1.779 2.127 0 4.241-.9 5.725-2.649 18.154-21.411 27.359-45.496 27.359-71.584.002-23.971-8.199-39.366-21.428-56.435z"/><path d="m264.053 450.326v-107.242c0-4.143-3.357-7.5-7.5-7.5s-7.5 3.357-7.5 7.5v107.242c0 4.143 3.357 7.5 7.5 7.5s7.5-3.357 7.5-7.5z"/><path d="m203.812 308.586 16.584-16.584c2.929-2.93 2.929-7.678 0-10.607-2.93-2.928-7.678-2.928-10.607 0l-16.584 16.584c-2.929 2.93-2.929 7.678 0 10.607 1.465 1.464 3.385 2.196 5.304 2.196s3.839-.732 5.303-2.196z"/><path d="m314.597 310.782c1.919 0 3.839-.732 5.304-2.196 2.929-2.93 2.929-7.678 0-10.607l-16.584-16.584c-2.93-2.928-7.678-2.928-10.607 0-2.929 2.93-2.929 7.678 0 10.607l16.584 16.584c1.464 1.464 3.384 2.196 5.303 2.196z"/><g><g><path d="m161 232.5c-4.143 0-7.5-3.357-7.5-7.5v-20c0-4.143 3.357-7.5 7.5-7.5s7.5 3.357 7.5 7.5v20c0 4.143-3.357 7.5-7.5 7.5z"/></g><g><path d="m351 232.5c-4.143 0-7.5-3.357-7.5-7.5v-20c0-4.143 3.357-7.5 7.5-7.5s7.5 3.357 7.5 7.5v20c0 4.143-3.357 7.5-7.5 7.5z"/></g></g></g></svg>