<?xml version="1.0" encoding="iso-8859-1"?>
<!-- Generator: Adobe Illustrator 19.0.0, SVG Export Plug-In . SVG Version: 6.00 Build 0)  -->
<svg version="1.1" id="Capa_1" xmlns="http://www.w3.org/2000/svg" xmlns:xlink="http://www.w3.org/1999/xlink" x="0px" y="0px"
	 viewBox="0 0 512 512" style="enable-background:new 0 0 512 512;" xml:space="preserve">
<g>
	<g>
		<path d="M249.23,168.554c-1.39-1.399-3.33-2.199-5.3-2.199c-1.97,0-3.899,0.8-5.3,2.199c-1.4,1.4-2.2,3.33-2.2,5.301
			c0,1.979,0.8,3.909,2.2,5.3c1.4,1.399,3.33,2.2,5.3,2.2c1.97,0,3.91-0.801,5.3-2.2c1.4-1.391,2.2-3.32,2.2-5.3
			C251.43,171.884,250.63,169.955,249.23,168.554z"/>
	</g>
</g>
<g>
	<g>
		<path d="M499.5,348.172h-74.058l29.977-73.927c1.445-3.565,1.128-7.313-0.872-10.28c-1.249-1.855-3.027-3.216-5.124-3.975
			l7.316-16.995c1.534-3.563,1.281-7.329-0.696-10.333c-1.977-3.003-5.335-4.726-9.215-4.726h-17.297
			c-1.425-18.977-16.586-34.117-35.399-35.18c-0.827-6.483-3.902-12.26-8.401-16.509c1.789-3.657,2.799-7.771,2.799-12.122
			c0-11.254-6.734-20.941-16.333-25.157c0.504-2.083,0.783-4.254,0.783-6.491c0-15.113-12.14-27.409-27.061-27.409
			c-5.784,0-11.146,1.854-15.548,4.998c-4.404-3.144-9.767-4.998-15.552-4.998c-14.922,0-27.063,12.296-27.063,27.409
			c0,2.241,0.28,4.415,0.786,6.501c-3.522,1.549-6.659,3.828-9.218,6.658c-0.228-0.26-0.454-0.516-0.674-0.761
			c-11.815-13.169-25.802-21.68-35.64-21.683c-9.833,0-23.813,8.502-35.613,21.658c-3.428,3.821-7.849,9.412-11.783,16.429
			c-1.294-1.261-2.731-2.458-4.291-3.559c-3.386-2.389-8.063-1.579-10.452,1.804c-2.388,3.385-1.58,8.064,1.804,10.452
			c0.997,0.704,1.896,1.454,2.669,2.23c1.337,1.342,2.511,2.952,3.542,4.759c-1.639,5.438-2.706,11.342-2.856,17.631
			c-0.419-0.141-0.843-0.268-1.268-0.393l-11.346-11.39c-2.925-2.936-7.672-2.944-10.606-0.021
			c-2.935,2.923-2.943,7.672-0.021,10.606l0.896,0.899c-5.178,1.575-9.967,4.262-14.029,7.85
			c-7.141-10.848-8.21-30.584-7.922-40.522c3.386-0.077,9.552-0.068,16.411,0.715c4.117,0.477,7.834-2.484,8.303-6.6
			c0.471-4.116-2.484-7.833-6.6-8.303c-11.739-1.342-21.457-0.696-21.856-0.671c-5.817,0.393-10.691,5.264-11.097,11.101
			c-0.188,2.761-1.121,20.005,3.289,36.285c-3.282-0.949-6.71-1.462-10.206-1.462c-19.78,0-36.032,15.561-37.51,35.243H65.172
			c-3.88,0-7.238,1.723-9.215,4.726c-1.978,3.004-2.23,6.77-0.696,10.333l7.316,16.995c-2.097,0.759-3.875,2.119-5.124,3.975
			c-2,2.968-2.317,6.715-0.872,10.281l29.978,73.926H12.5c-6.893,0-12.5,5.607-12.5,12.5v33.762c0,6.893,5.607,12.5,12.5,12.5h487
			c6.893,0,12.5-5.607,12.5-12.5v-33.762C512,353.78,506.393,348.172,499.5,348.172z M409.257,348.172h-28.226l21.749-73.878h36.433
			L409.257,348.172z M365.396,348.172h-29.064l13.5-73.878h37.313L365.396,348.172z M379.295,194.979
			c-5.471,2.013-10.442,5.283-14.479,9.553c-0.67-0.709-1.373-1.381-2.093-2.034c0.461-1.996,0.718-4.072,0.718-6.209
			c0-3.807-0.772-7.435-2.163-10.732c1.773-1.061,3.828-1.676,6.024-1.676C373.523,183.88,378.657,188.75,379.295,194.979z
			 M373.529,164.127c0,1.874-0.418,3.646-1.144,5.239c-1.647-0.318-3.347-0.486-5.084-0.486c-3.835,0-7.476,0.83-10.782,2.296
			c0.592-2.25,0.912-4.612,0.912-7.049c0-3.775-0.758-7.375-2.127-10.651c1.805-1.111,3.909-1.758,6.162-1.758
			C368.118,151.718,373.529,157.284,373.529,164.127z M345.919,120.069c6.65,0,12.061,5.566,12.061,12.409
			c0,1.626-0.313,3.175-0.869,4.6c-4.112,0.679-7.917,2.3-11.19,4.638c-1.502-1.072-3.122-1.98-4.825-2.73
			c0.506-2.087,0.787-4.264,0.787-6.507c0-3.775-0.758-7.374-2.127-10.65C341.561,120.716,343.665,120.069,345.919,120.069z
			 M348.27,194.289c-3.419-1.036-7.002-1.596-10.658-1.596c-4.589,0-9.066,0.868-13.24,2.474
			c0.553-6.318,5.723-11.288,12.007-11.288C342.366,183.88,347.336,188.397,348.27,194.289z M342.432,164.127
			c0,1.868-0.415,3.636-1.137,5.226c-1.597-0.299-3.236-0.473-4.917-0.473c-5.27,0-10.187,1.541-14.349,4.191
			c-2.29-2.26-3.724-5.43-3.724-8.944c0-6.843,5.412-12.409,12.063-12.409S342.432,157.284,342.432,164.127z M314.819,120.069
			c6.651,0,12.063,5.566,12.063,12.409c0,1.626-0.313,3.175-0.869,4.6c-4.114,0.679-7.921,2.3-11.196,4.638
			c-3.272-2.338-7.077-3.959-11.19-4.639c-0.556-1.424-0.869-2.973-0.869-4.599C302.757,125.635,308.168,120.069,314.819,120.069z
			 M298.897,183.897c0.125-0.004,0.247-0.017,0.373-0.017c4.617,0,8.632,2.686,10.659,6.616c-0.399,1.868-0.614,3.805-0.614,5.792
			c0,1.981,0.223,3.909,0.62,5.771c-0.223,0.434-0.472,0.851-0.742,1.252c-2.705-2.614-5.781-4.803-9.105-6.506
			c0.001-0.206,0.008-0.407,0.008-0.614C300.094,191.911,299.654,187.807,298.897,183.897z M299.271,151.718
			c2.253,0,4.357,0.646,6.162,1.759c-1.369,3.275-2.127,6.875-2.127,10.65c0,1.759,0.171,3.478,0.485,5.145
			c-1.471-0.253-2.979-0.392-4.521-0.392c-1.663,0-3.289,0.162-4.868,0.457c-1.724-4.044-3.703-7.752-5.754-11.082
			C290.688,154.366,294.684,151.718,299.271,151.718z M204.87,176.612c0.374,0.941,0.931,1.809,1.649,2.532
			c1.4,1.399,3.33,2.199,5.311,2.199c1.97,0,3.899-0.8,5.3-2.199c1.39-1.4,2.189-3.33,2.189-5.311c0-1.97-0.8-3.899-2.189-5.3
			c-1.4-1.39-3.33-2.2-5.3-2.2c-0.671,0-1.333,0.101-1.974,0.276c2.972-4.92,6.172-8.914,8.708-11.742
			c0.464-0.517,0.928-1.008,1.392-1.499c0.355,0.698,0.814,1.345,1.374,1.905c1.39,1.39,3.319,2.189,5.3,2.189
			c1.979,0,3.91-0.8,5.3-2.189c1.4-1.4,2.2-3.33,2.2-5.311c0-1.97-0.8-3.899-2.2-5.3c-0.32-0.319-0.672-0.604-1.043-0.86
			c5.387-3.781,9.887-5.609,12.128-5.609c2.281,0.001,6.217,1.676,10.786,4.721c-1.059,0.37-2.035,0.967-2.831,1.77
			c-1.4,1.399-2.2,3.329-2.2,5.3c0,1.979,0.8,3.91,2.2,5.31c1.39,1.391,3.33,2.19,5.3,2.19c1.971,0,3.9-0.8,5.3-2.19
			c1.17-1.17,1.913-2.711,2.129-4.342c4.422,4.265,8.797,9.477,12.435,15.427c-0.031-0.001-0.062-0.005-0.093-0.005
			c-1.971,0-3.91,0.8-5.3,2.19c-1.4,1.399-2.2,3.33-2.2,5.31c0,1.97,0.8,3.91,2.2,5.3c1.39,1.4,3.329,2.2,5.3,2.2
			c1.979,0,3.91-0.8,5.31-2.2c0.22-0.22,0.42-0.458,0.609-0.703c1.596,4.503,2.659,9.28,3.006,14.268
			c-0.584-0.028-1.171-0.044-1.76-0.044c-4.629,0-9.143,0.885-13.348,2.518c0.069-0.409,0.112-0.822,0.112-1.238
			c0-1.97-0.8-3.899-2.2-5.3c-1.399-1.399-3.33-2.2-5.3-2.2c-1.979,0-3.91,0.801-5.31,2.2c-1.391,1.391-2.19,3.33-2.19,5.3
			c0,1.98,0.8,3.91,2.19,5.301c0.765,0.765,1.69,1.342,2.693,1.717c-1.357,1.089-2.649,2.268-3.854,3.54
			c-6.375-6.741-15.076-11.001-24.409-11.718c-0.247-1.562-0.981-3.039-2.101-4.159c-1.4-1.4-3.33-2.2-5.301-2.2
			c-1.979,0-3.909,0.8-5.31,2.2c-1.4,1.39-2.2,3.33-2.2,5.3c0,0.266,0.018,0.531,0.046,0.795
			c-5.729,1.987-10.937,5.344-15.134,9.782c-0.043-0.046-0.089-0.088-0.133-0.133c-0.3-2.546-0.454-5.286-0.455-8.258
			C201.001,189.023,202.566,182.442,204.87,176.612z M347,242.938c4.143,0,7.5-3.357,7.5-7.5s-3.357-7.5-7.5-7.5H97.535
			c1.408-11.397,10.933-20.243,22.444-20.243c8.646,0,16.658,5.17,20.415,13.172c1.235,2.632,3.881,4.313,6.789,4.313
			c2.907,0,5.553-1.681,6.789-4.313c3.757-8.002,11.771-13.172,20.416-13.172c8.644,0,16.657,5.17,20.414,13.172
			c1.236,2.632,3.882,4.313,6.789,4.313c2.907,0,5.553-1.681,6.788-4.312c3.759-8.002,11.771-13.173,20.415-13.173
			c8.645,0,16.659,5.17,20.416,13.172c1.236,2.632,3.882,4.313,6.789,4.313s5.553-1.681,6.789-4.313
			c3.757-8.002,11.771-13.172,20.416-13.172c8.643,0,16.655,5.171,20.415,13.173c1.236,2.632,3.882,4.312,6.789,4.312
			c2.907,0,5.552-1.681,6.788-4.313c3.757-8.002,11.771-13.172,20.414-13.172c8.646,0,16.658,5.17,20.415,13.172
			c1.235,2.632,3.881,4.313,6.789,4.313c2.907,0,5.553-1.681,6.789-4.313c3.757-8.002,11.771-13.172,20.415-13.172
			c11.512,0,21.037,8.846,22.445,20.243H385c-4.143,0-7.5,3.357-7.5,7.5s3.357,7.5,7.5,7.5h55.434l-7.042,16.357H78.608
			l-7.042-16.357H347z M334.583,274.294l-13.5,73.878h-31.896l4.764-73.878H334.583z M221.298,324.679l1.515,23.494h-31.896
			l-13.499-73.878h40.631l1.057,16.385c0.256,3.97,3.555,7.018,7.477,7.018c0.163,0,0.326-0.005,0.49-0.016
			c4.134-0.267,7.269-3.834,7.002-7.967l-0.994-15.42h45.84l-4.764,73.878h-36.313l-1.577-24.459
			c-0.267-4.135-3.825-7.275-7.967-7.002C224.166,316.979,221.031,320.546,221.298,324.679z M175.669,348.172h-29.064
			l-21.749-73.878h37.314L175.669,348.172z M72.787,274.294h36.433l21.748,73.878h-28.225L72.787,274.294z M497,391.935H15v-7.139
			h71.268c4.143,0,7.5-3.357,7.5-7.5s-3.357-7.5-7.5-7.5H15v-6.623h482V391.935z"/>
	</g>
</g>
<g>
</g>
<g>
</g>
<g>
</g>
<g>
</g>
<g>
</g>
<g>
</g>
<g>
</g>
<g>
</g>
<g>
</g>
<g>
</g>
<g>
</g>
<g>
</g>
<g>
</g>
<g>
</g>
<g>
</g>
</svg>
