<svg id="Capa_1" enable-background="new 0 0 512.007 512.007" height="512" viewBox="0 0 512.007 512.007" width="512" xmlns="http://www.w3.org/2000/svg"><g><path d="m346.169 173.386c15.752-9.961 22.544-9.771 40.704-9.266 5.131.143 12.155.362 19.628.211 23.535-.603 43.407-7.495 60.751-21.069 34.932-27.338 42.595-71.208 43.354-76.12 2.654-17.172 1.526-34.604-3.353-51.814-1.534-5.413-5.083-9.903-9.995-12.646-4.912-2.742-10.595-3.408-16.008-1.873-11.17 3.168-17.681 14.835-14.514 26.007 2.47 8.717 3.495 17.52 3.046 26.165-.215 4.137 2.964 7.665 7.101 7.88 4.133.226 7.664-2.964 7.879-7.101.535-10.292-.674-20.732-3.594-31.035-.912-3.216.961-6.573 4.174-7.484 1.557-.44 3.192-.25 4.604.538 1.413.789 2.434 2.081 2.875 3.64 4.287 15.121 5.283 30.407 2.96 45.434-.666 4.312-7.384 42.814-37.774 66.598-14.931 11.686-31.435 17.37-52.02 17.89-4.929.123-12.434-.015-18.698-.213-19.032-.527-29.521-.823-49.139 11.582-12.157 7.688-22.171 18.521-29.84 32.253-2.885-.895-8.272-1.632-13.004-1.454 3.402-6.859 7.24-13.169 11.489-18.817.333-.442.615-.92.843-1.424 3.454-7.654 8.374-23.039 2.524-40.086-2.586-7.538-6.892-14.298-12.796-20.093-2.385-2.342-2.422-6.188-.082-8.574 1.133-1.154 2.647-1.799 4.265-1.814 1.594-.051 3.145.601 4.298 1.732 7.16 7.027 12.614 15.607 15.771 24.812 1.545 4.502 2.565 9.202 3.033 13.97.247 2.518 1.746 4.741 3.987 5.914s4.922 1.137 7.131-.096c24.58-13.972 38.795-11.08 63.05-10.766 2.577.032 5.073-1.317 6.456-3.549 7.809-12.598 12.259-26.328 13.227-40.81.833-12.471-.989-24.817-5.413-36.696-1.167-3.133.432-6.631 3.563-7.798 1.514-.563 3.16-.505 4.63.168 1.472.673 2.593 1.879 3.158 3.396 5.028 13.502 7.096 27.545 6.147 41.74-.662 9.896-2.81 19.644-6.385 28.973-1.059 2.763-.394 5.891 1.697 7.984 2.092 2.094 5.22 2.763 7.982 1.705 5.982-2.285 11.433-5.386 16.663-9.479 10.104-7.908 18.386-18.651 24.614-31.932 1.759-3.75.145-8.216-3.605-9.975-3.75-1.76-8.216-.146-9.975 3.605-4.714 10.05-10.733 18.291-17.92 24.541.938-4.76 1.571-9.576 1.896-14.424 1.091-16.328-1.283-32.47-7.058-47.975-1.963-5.271-5.861-9.463-10.976-11.803-5.116-2.338-10.836-2.545-16.107-.582-10.879 4.054-16.434 16.205-12.381 27.088 3.678 9.876 5.193 20.125 4.503 30.462-.711 10.639-3.7 20.806-8.895 30.282-18.884-.513-35.825-1.957-56.854 7.972-.556-2.294-1.216-4.56-1.98-6.786-3.911-11.398-10.637-21.996-19.454-30.65-4.015-3.939-9.344-6.081-14.947-6.025-5.625.053-10.892 2.294-14.832 6.31-8.129 8.289-8.002 21.649.283 29.783 4.226 4.147 7.293 8.944 9.116 14.257 4 11.657.816 22.492-1.692 28.327-5.945 8.024-11.16 17.13-15.54 27.131h-45.481c-4.38-10-9.594-19.106-15.54-27.131-2.508-5.835-5.692-16.67-1.692-28.327 1.823-5.312 4.89-10.109 9.116-14.257 8.286-8.133 8.414-21.493.283-29.783-3.939-4.016-9.206-6.257-14.831-6.31-5.646-.05-10.933 2.087-14.948 6.027-8.815 8.651-15.542 19.249-19.453 30.648-.764 2.227-1.425 4.492-1.98 6.786-21.236-9.833-36.378-8.506-56.853-7.971-5.195-9.477-8.184-19.645-8.895-30.283-.69-10.337.825-20.586 4.503-30.462 4.052-10.883-1.502-23.034-12.381-27.087-5.267-1.965-10.988-1.757-16.104.582-5.115 2.34-9.013 6.531-10.976 11.803-5.774 15.505-8.149 31.646-7.058 47.975.324 4.849.958 9.664 1.896 14.425-20.538-17.848-25.134-46.194-25.326-47.434-1.723-11.146-.965-22.549 2.25-33.892 3.168-11.171-3.343-22.838-14.514-26.008-5.413-1.534-11.097-.87-16.007 1.873-4.911 2.742-8.46 7.232-9.995 12.645-4.88 17.211-6.008 34.644-3.354 51.814.451 2.923 3.14 18.399 11.765 36.103 1.814 3.724 6.304 5.272 10.027 3.457 3.724-1.813 5.272-6.304 3.458-10.027-7.68-15.762-10.032-29.274-10.425-31.823-2.322-15.025-1.326-30.312 2.96-45.434.441-1.558 1.462-2.85 2.875-3.639 1.412-.788 3.046-.98 4.602-.539 3.214.912 5.088 4.271 4.176 7.486-3.807 13.433-4.697 26.984-2.642 40.276.236 1.526 6.095 37.638 33.264 58.9 5.229 4.093 10.68 7.193 16.663 9.479 2.763 1.057 5.891.387 7.982-1.705 2.091-2.094 2.756-5.222 1.697-7.984-3.576-9.329-5.724-19.077-6.385-28.973-.949-14.195 1.12-28.238 6.147-41.74.565-1.517 1.687-2.723 3.158-3.396s3.116-.732 4.631-.167c3.13 1.166 4.729 4.664 3.562 7.797-4.424 11.879-6.246 24.226-5.413 36.696.968 14.481 5.419 28.212 13.228 40.81 1.382 2.231 3.853 3.603 6.455 3.549 22.168-.332 39.089-3.216 63.05 10.766 2.209 1.231 4.891 1.269 7.131.096 2.241-1.173 3.74-3.396 3.987-5.914.467-4.768 1.488-9.468 3.033-13.971 3.158-9.204 8.612-17.783 15.771-24.81 1.155-1.134 2.677-1.774 4.3-1.734 1.617.016 3.132.66 4.264 1.813 2.341 2.388 2.304 6.233-.081 8.575-5.905 5.795-10.21 12.555-12.797 20.093-5.85 17.047-.929 32.432 2.524 40.086.228.504.51.981.843 1.423 4.249 5.649 8.086 11.96 11.489 18.818-3.71-.089-7.975.088-13 1.456-7.67-13.734-17.687-24.566-29.845-32.255-19.618-12.406-30.109-12.112-49.141-11.581-4.956.139-11.645.347-18.722.212-20.526-.509-37.048-6.193-51.993-17.89-3.102-2.427-6.091-5.122-8.886-8.008-2.881-2.976-7.629-3.053-10.605-.171-2.976 2.881-3.052 7.629-.171 10.604 3.272 3.379 6.777 6.537 10.417 9.387 17.353 13.58 37.237 20.473 60.788 21.07 5.276.135 12.946-.002 19.591-.211 18.159-.506 24.953-.696 40.705 9.265 10.105 6.39 18.21 15.157 24.656 26.687-5.407 4.561-9.508 10.698-11.51 17.827-1.54 5.483-5.246 10.109-10.252 12.855-1.707-1.275-57.848-43.572-59.611-44.874-18.563-13.295-31.163-9.001-45.751-4.028-5.813 1.981-12.401 4.227-20.53 5.885-8.869 1.809-14.81 10.008-13.818 19.071 1.458 13.329 5.47 32.59 16.294 48.658 2.314 3.437 6.976 4.344 10.411 2.029 3.435-2.313 4.344-6.975 2.03-10.41-9.596-14.244-12.78-32.371-13.824-41.908-.141-1.292.695-2.496 1.904-2.743 9.066-1.849 16.135-4.258 22.372-6.384 14.065-4.793 19.886-6.778 32.179 2.025 7.44 5.328 9.272 15.176 11.592 27.643 2.08 11.179 4.438 23.85 11.754 35.638 1.52 2.448 4.02 5.477 6.919 8.646-15.688-.146-37.892-1.045-49.825-4.662-3.963-1.198-8.151 1.038-9.353 5.002-1.201 3.965 1.038 8.152 5.002 9.354 17.925 5.133 47.024 5.447 66.442 5.291l27.085 131.995c.263 10.945 1.232 24.329 3.97 35.644 5.658 23.387 16.846 28.351 25.267 28.38 3.499 17.651 19.098 31.001 37.761 31.001h38c18.663 0 34.262-13.351 37.761-31.001 8.421-.03 19.609-4.993 25.267-28.38 2.697-11.145 3.677-24.297 3.957-35.149l26.93-132.475c19.501.275 54.37-.327 70.175-6.781 32.373-13.593 41.031-50.576 43.311-71.411.991-9.063-4.949-17.263-13.818-19.071-8.129-1.658-14.717-3.903-20.53-5.885-14.589-4.972-27.188-9.266-45.751 4.028-1.284.941-58.508 44.053-59.753 44.981-4.494-2.688-7.872-7.097-9.342-12.331-1.545-6.046-5.91-13.657-11.696-18.466 6.449-11.529 14.553-20.291 24.657-26.68zm-219.443 49.588c-.367-1.972-.739-3.953-1.137-5.927l30.039 22.617c-5.096 4.941-9.868 11.971-12.368 21.868-3.295-3.48-5.67-6.296-6.782-8.087-5.829-9.392-7.823-20.108-9.752-30.471zm148.277 274.033h-38c-10.943 0-20.162-7.519-22.765-17.661 14.259-2.755 31.629-8.894 41.765-18.075 10.136 9.181 27.507 15.32 41.765 18.075-2.602 10.142-11.822 17.661-22.765 17.661zm-12.794-57.729c-1.696 1.561-3.9 2.42-6.206 2.42s-4.51-.859-6.206-2.42l-11.344-10.438c-4.099-3.771-6.45-9.129-6.45-14.698v-3.444h48v3.444c0 5.569-2.351 10.927-6.45 14.698zm112.739-185.833c-1.117 1.799-3.507 4.632-6.825 8.133-2.576-9.736-7.442-16.742-12.599-21.708l30.313-22.823c-.398 1.974-.77 3.955-1.137 5.927-1.929 10.363-3.923 21.079-9.752 30.471zm68.27-57.394c6.237 2.126 13.306 4.535 22.372 6.384 1.209.247 2.045 1.451 1.904 2.743-1.546 14.134-7.976 48.197-34.208 59.212-10.004 4.201-34.187 5.433-52.522 5.623 2.904-3.174 5.407-6.206 6.929-8.657 7.315-11.787 9.673-24.458 11.753-35.637 2.32-12.467 4.152-22.314 11.592-27.643 6.156-4.408 10.688-6.111 15.446-6.111 4.744 0 9.712 1.693 16.734 4.086zm-106.184 48.913c11.699 5.659 20.124 19.56 18.041 32.843l-21.451 105.525c-7.048-10.015-17.42-16.832-26.879-20.301-3.885-1.426-8.197.569-9.624 4.458-1.426 3.889.57 8.198 4.459 9.624 12.695 4.657 25.506 16.647 25.506 32.938.611 31.867-6.842 57.305-14.397 55.956-13.014 0-32.982-6.095-43.448-13.276 1.522-.649 12.941-11.522 14.469-12.851 7.177-6.604 11.294-15.984 11.294-25.737v-5.944c0-6.893-5.607-12.5-12.5-12.5h-53c-6.893 0-12.5 5.607-12.5 12.5v5.944c0 9.753 4.117 19.134 11.294 25.737 4.171 3.624 10.263 9.959 14.469 12.851-10.466 7.181-30.434 13.276-43.448 13.276-9.145-.233-14.571-25.802-14.397-55.956 0-20.548 17.945-33.435 34.83-35.127 11.399-1.143 31.388-1.627 49.738-1.201 4.164.092 7.576-3.184 7.671-7.325.096-4.141-3.184-7.575-7.325-7.671-19.199-.444-39.445.056-51.58 1.271-15.024 1.507-30.642 9.597-39.923 22.943l-21.877-106.616c-2.113-11.44 6.111-25.957 17.681-31.488 9.443-4.515 16.474-12.855 19.289-22.882 2.554-9.095 10.937-15.447 20.384-15.447h84.399c8.904-.121 18.259 6.741 20.562 16.081 2.737 9.749 9.393 17.905 18.263 22.375z"/><path d="m256.003 297.307c-4.142 0-7.5 3.357-7.5 7.5v28.003c0 4.143 3.358 7.5 7.5 7.5s7.5-3.357 7.5-7.5v-28.003c0-4.142-3.358-7.5-7.5-7.5z"/><path d="m198.503 289.507c-4.142 0-7.5 3.357-7.5 7.5v20c0 4.143 3.358 7.5 7.5 7.5s7.5-3.357 7.5-7.5v-20c0-4.143-3.358-7.5-7.5-7.5z"/><path d="m306.003 297.007v20c0 4.143 3.358 7.5 7.5 7.5s7.5-3.357 7.5-7.5v-20c0-4.143-3.358-7.5-7.5-7.5s-7.5 3.357-7.5 7.5z"/></g></svg>