<svg id="Layer_1" enable-background="new 0 0 511.542 511.542" height="512" viewBox="0 0 511.542 511.542" width="512" xmlns="http://www.w3.org/2000/svg"><g><path d="m504.042 272.834c4.143 0 7.5-3.357 7.5-7.5v-76.731-.001-.001c0-32.785-27.401-63.091-77.155-85.336-158.92-71.051-434.387-21.186-434.387 85.336v134.426c0 20.794 11.306 41.09 32.694 58.694 19.746 16.252 48.129 30.264 82.082 40.521 3.965 1.201 8.15-1.045 9.349-5.011 1.197-3.965-1.046-8.15-5.011-9.349-32.072-9.688-58.659-22.74-76.887-37.743-17.812-14.659-27.227-30.95-27.227-47.111v-93.689c44.379 57.589 160.795 76.769 233.271 77.715l-.001 117.428c0 .72-.37 1.191-.592 1.408-.265.261-.705.552-1.387.558-32.711-.557-64.264-3.959-93.782-10.112-4.043-.849-8.027 1.756-8.872 5.812-.846 4.055 1.756 8.027 5.812 8.872 30.439 6.346 62.937 9.854 96.587 10.427.1.002.198.002.297.002 4.464 0 8.666-1.72 11.862-4.861 3.272-3.218 5.075-7.517 5.075-12.104v-97.727c7.487 2.626 178.601 62.645 187.428 65.742.033.018.064.039.097.057 4.435 2.402 9.8 2.176 14.006-.567 30.578-19.946 46.74-43.792 46.74-68.958v-22.693c0-4.143-3.357-7.5-7.5-7.5s-7.5 3.357-7.5 7.5v22.693c0 24.166-20.163 43.087-37.93 55.064 0-12.449 0-96.065 0-108.512 0-2.582-.415-5.179-1.139-7.485 14.574-8.612 28.856-19.635 39.068-32.951v36.19c.002 4.14 3.359 7.497 7.502 7.497zm-127.466 77.767c-42.709-14.98-29.508-10.35-51.952-18.223 2.765-12.392 13.955-21.761 27.064-21.761 20.573.001 33.928 21.709 24.888 39.984zm67.036-16.659c-10.747-1.386-19.076-10.596-19.076-21.714s8.329-20.327 19.076-21.713zm0-58.489c-19.03 1.446-34.076 17.381-34.076 36.775 0 19.395 15.046 35.331 34.076 36.776v25.111l-52.814-18.525c12.428-28.08-8.238-59.972-39.11-59.972-19.765 0-36.46 13.428-41.298 31.769l-47.119-16.527c0-15.672 0-91.854 0-107.405 0-2.09 2.055-3.55 4.032-2.859l169.566 59.477c3.93 1.379 6.742 5.164 6.742 9.51v5.87zm52.929-86.823c-.019 26.445-24.725 47.779-47.67 61.113-2.093-1.618-4.474-2.927-7.036-3.826l-169.566-59.477c-11.737-4.112-23.997 4.628-23.997 17.014l-.001 88.593c-125.233-1.669-233.271-47.065-233.271-103.446 0-53.909 103.759-103.5 240.771-103.5 135.993 0 240.771 49.151 240.771 103.5 0 .01-.001.02-.001.029z"/><path d="m306.311 232.688c-15.117 0-27.415 12.299-27.415 27.416s12.298 27.416 27.415 27.416 27.416-12.299 27.416-27.416-12.299-27.416-27.416-27.416zm0 39.832c-6.846 0-12.415-5.569-12.415-12.416s5.569-12.416 12.415-12.416c6.847 0 12.416 5.569 12.416 12.416s-5.57 12.416-12.416 12.416z"/></g></svg>