<svg id="Capa_1" enable-background="new 0 0 512 512" height="512" viewBox="0 0 512 512" width="512" xmlns="http://www.w3.org/2000/svg"><g><path d="m256 45c4.142 0 7.5-3.358 7.5-7.5v-15c0-4.142-3.358-7.5-7.5-7.5s-7.5 3.358-7.5 7.5v15c0 4.142 3.358 7.5 7.5 7.5z"/><path d="m189.899 61.414c2.434 3.351 7.124 4.094 10.476 1.659 3.351-2.435 4.094-7.125 1.659-10.476l-8.817-12.135c-2.434-3.351-7.124-4.094-10.476-1.659-3.351 2.435-4.094 7.125-1.659 10.476z"/><path d="m311.625 63.073c3.352 2.435 8.042 1.691 10.476-1.659l8.817-12.135c2.435-3.351 1.692-8.041-1.659-10.476-3.352-2.435-8.042-1.691-10.476 1.659l-8.817 12.135c-2.435 3.351-1.692 8.042 1.659 10.476z"/><path d="m301 422c-19.749 0-36.186 15.431-37.419 35.129-.259 4.134 2.883 7.695 7.017 7.954.16.01.318.015.476.015 3.928 0 7.229-3.058 7.478-7.032.74-11.813 10.6-21.066 22.448-21.066 4.142 0 7.5-3.358 7.5-7.5s-3.358-7.5-7.5-7.5z"/><path d="m211 422c-4.142 0-7.5 3.358-7.5 7.5s3.358 7.5 7.5 7.5c11.848 0 21.708 9.253 22.448 21.067.249 3.975 3.55 7.032 7.478 7.032.158 0 .316-.005.476-.015 4.134-.259 7.275-3.82 7.017-7.954-1.233-19.699-17.67-35.13-37.419-35.13z"/><path d="m339.5 225c-12.407 0-22.5 10.093-22.5 22.5v45c0 12.407 10.093 22.5 22.5 22.5s22.5-10.093 22.5-22.5v-45c0-12.407-10.093-22.5-22.5-22.5zm7.5 67.5c0 4.136-3.364 7.5-7.5 7.5s-7.5-3.364-7.5-7.5v-45c0-4.136 3.364-7.5 7.5-7.5s7.5 3.364 7.5 7.5z"/><path d="m172.5 225c-12.407 0-22.5 10.093-22.5 22.5v45c0 12.407 10.093 22.5 22.5 22.5s22.5-10.093 22.5-22.5v-45c0-12.407-10.093-22.5-22.5-22.5zm7.5 67.5c0 4.136-3.364 7.5-7.5 7.5s-7.5-3.364-7.5-7.5v-45c0-4.136 3.364-7.5 7.5-7.5s7.5 3.364 7.5 7.5z"/><path d="m392 180.227v-7.727c0-45.491-37.009-82.5-82.5-82.5h-5.848c-2.21-2.939-4.881-5.589-7.977-7.839-11.765-8.547-27.136-9.469-39.675-2.765-12.54-6.705-27.911-5.783-39.675 2.765-3.056 2.22-5.719 4.846-7.956 7.839h-5.869c-45.491 0-82.5 37.009-82.5 82.5v7.727c-66.826 3.896-120 59.488-120 127.273v15c0 12.407 10.093 22.5 22.5 22.5 9.778 0 18.12-6.27 21.215-15h8.785c27.907 0 52.605-13.942 67.542-35.212.749 21.867 12.191 42.153 30.463 54.157l7.767 61.925c6.158 49.103 48.171 86.13 97.728 86.13 49.556 0 91.57-37.027 97.729-86.129l7.767-61.925c18.273-12.005 29.714-32.29 30.463-54.157 14.936 21.269 39.634 35.211 67.541 35.211h8.785c3.095 8.73 11.437 15 21.215 15 12.407 0 22.5-10.093 22.5-22.5v-15c0-67.785-53.174-123.377-120-127.273zm-272 67.273c0 37.22-30.28 67.5-67.5 67.5h-15c-4.142 0-7.5 3.358-7.5 7.5 0 4.136-3.364 7.5-7.5 7.5s-7.5-3.364-7.5-7.5v-15c0-59.512 46.451-108.371 105-112.244zm257 45c0 18.669-10.061 36.089-26.257 45.462-2.03 1.175-3.393 3.231-3.685 5.558l-8.213 65.485c-5.219 41.614-40.835 72.995-82.845 72.995s-77.626-31.381-82.844-72.996l-8.214-65.484c-.292-2.327-1.655-4.383-3.685-5.558-16.196-9.373-26.257-26.793-26.257-45.462v-120c0-37.22 30.28-67.5 67.5-67.5h9.896c2.682 0 5.159-1.432 6.498-3.755 1.586-2.751 3.688-5.089 6.247-6.949 7.913-5.749 18.541-5.75 26.45-.002 2.629 1.911 6.189 1.911 8.818 0 7.909-5.747 18.538-5.746 26.45.002 2.472 1.797 4.493 4.02 6.011 6.51.15.304.319.597.507.876 2.918 5.315 3.625 11.713 1.657 17.769-1.004 3.091.096 6.477 2.726 8.387 7.91 5.745 11.193 15.854 8.171 25.156-3.022 9.301-11.618 15.548-21.393 15.548-3.254 0-6.134 2.093-7.138 5.184-3.02 9.297-11.619 15.544-21.399 15.544s-18.38-6.247-21.399-15.544c-1.004-3.091-3.884-5.184-7.134-5.184-9.776.001-18.375-6.247-21.397-15.548-2.317-7.132-.918-14.929 3.742-20.858 2.56-3.257 1.995-7.972-1.262-10.531-3.256-2.56-7.972-1.995-10.531 1.262-7.757 9.87-10.081 22.865-6.215 34.763 4.494 13.833 16.386 23.613 30.473 25.558 6.202 12.792 19.18 21.082 33.722 21.082s27.52-8.289 33.723-21.083c14.085-1.946 25.979-11.727 30.473-25.558s.621-28.734-9.631-38.588c.843-4.718.763-9.474-.165-14.034 36.808.481 66.6 30.573 66.6 67.493zm120 30c0 4.136-3.364 7.5-7.5 7.5s-7.5-3.364-7.5-7.5c0-4.142-3.358-7.5-7.5-7.5h-15c-37.22 0-67.5-30.28-67.5-67.5v-52.244c58.549 3.873 105 52.732 105 112.244z"/></g></svg>