<svg id="Capa_1" enable-background="new 0 0 512.026 512.026" height="512" viewBox="0 0 512.026 512.026" width="512" xmlns="http://www.w3.org/2000/svg"><g><path d="m325.414 345.028h29.936c4.143 0 7.5-3.358 7.5-7.5s-3.357-7.5-7.5-7.5h-29.936c-11.372 0-21.227 6.539-25.718 17.066-4.383 10.274-2.35 21.618 5.307 29.605 11.474 11.969 27.298 18.038 47.033 18.038 4.143 0 7.5-3.358 7.5-7.5s-3.357-7.5-7.5-7.5c-15.489 0-27.67-4.515-36.205-13.418-3.479-3.629-4.353-8.616-2.338-13.339 1.641-3.844 5.633-7.952 11.921-7.952z"/><path d="m71.578 175.122c2.228-3.564 6.777-4.832 10.358-2.889 6.515 3.538 13.674 7.196 21.372 10.82l-6.534 19.523c-4.429 13.232 6.15 26.704 20.007 25.513 26.04-2.233 47.419-11.255 61.474-18.996 65.312 14.462 147.757 5.832 197.542-38.338 6.111-5.425 6.01-14.69.503-20.083l5.647-4.61c6.412-5.234 6.775-14.921.754-20.632-25.243-23.93-63.452-37.124-97.838-42.488-4.592-10.316-13.491-26.48-28.747-40.897-13.152-12.426-33.987-11.619-46.307 1.77-3.735 4.06-8.137 7.499-13.083 10.223-9.564 5.266-26.146 16.485-34.32 34.303-32.92 7.987-60.404 20.046-80.637 30.869-3.634 1.943-8.072.707-10.326-2.876-15.263-24.266-39.043-34.894-56.306-39.538-11.28-3.041-19.833 10.315-12.271 19.223 24.109 28.397 24.109 71.227 0 99.625-7.556 8.902.977 22.257 12.272 19.223 17.329-4.66 41.189-15.339 56.44-39.745zm43.922 38.022c-3.142.268-5.499-2.826-4.501-5.806l6.062-18.114c11.93 5.08 24.898 9.9 38.646 14.006-10.821 4.412-24.633 8.579-40.207 9.914zm105.349-159.173c6.642-7.22 17.899-7.701 24.965-1.024 9.849 9.308 16.693 19.455 21.242 27.795-28.412-2.634-56.658-1.505-84.295 3.348 13.474-16.123 24.426-15.27 38.088-30.119zm-200.575 143.518c21.145-31.211 21.019-72.278 0-103.314 13.154 4.928 28.246 13.887 38.473 30.145 6.393 10.161 19.616 13.726 30.098 8.116 69.833-37.352 146.322-45.971 209.992-31.609-6.352 7.179-11.224 15.55-14.321 24.741-1.322 3.925.787 8.18 4.713 9.502 3.925 1.321 8.179-.788 9.502-4.712 3.275-9.719 9.048-18.293 16.796-24.998 19.833 6.191 40.746 16.174 55.822 29.992l-5.683 4.639c-6.451 5.265-6.782 14.981-.924 20.507-14.644 12.607-33.694 22.26-52.293 28.547-7.645-7.651-12.901-17.163-15.291-27.735-.913-4.041-4.932-6.578-8.969-5.662-4.04.913-6.575 4.929-5.662 8.969 2.432 10.761 7.221 20.638 14.029 29.121-71.285 17.783-143.16.229-207.461-34.686-10.543-5.723-23.82-2.145-30.236 8.122-10.228 16.365-25.376 25.369-38.585 30.315z"/><path d="m255.143 173.233c4.143 0 7.5-3.358 7.5-7.5s-3.357-7.5-7.5-7.5c-12.239 0-21.837-3.539-28.527-10.517-3.617-3.773-2.164-8.131-1.633-9.377 1.164-2.729 3.995-5.645 8.449-5.645h24.413c4.143 0 7.5-3.358 7.5-7.5s-3.357-7.5-7.5-7.5h-24.413c-9.688 0-18.421 5.793-22.246 14.758-3.796 8.897-2.032 18.723 4.602 25.644 9.628 10.044 22.869 15.137 39.355 15.137z"/><path d="m329.265 144.104h4.608c4.143 0 7.5-3.358 7.5-7.5s-3.357-7.5-7.5-7.5h-4.608c-4.143 0-7.5 3.358-7.5 7.5s3.357 7.5 7.5 7.5z"/><path d="m440.453 330.028c-12.796 0-23.206 10.411-23.206 23.207s10.41 23.206 23.206 23.206 23.206-10.41 23.206-23.206-10.411-23.207-23.206-23.207zm0 31.413c-4.524 0-8.206-3.681-8.206-8.206s3.682-8.207 8.206-8.207 8.206 3.682 8.206 8.207-3.682 8.206-8.206 8.206z"/><path d="m503.746 335.83c-16.287-14.272-52.477-38.782-116.443-48.576-5.455-12.462-16.313-32.566-35.239-50.45-15.576-14.72-40.042-13.486-54.367 2.084-4.704 5.113-10.246 9.444-16.473 12.873-11.673 6.427-32.003 20.193-41.694 42.036-11.772 2.83-22.973 6.089-33.559 9.615-16.177-7.073-32.804-11.384-49.469-12.813-14.102-1.21-24.835 12.499-20.339 25.936l4.922 14.707c-.278.148-.566.297-.842.444-5.248 2.81-11.653 1.037-14.896-4.12-18.426-29.291-47.175-42.132-68.048-47.746-12.262-3.294-21.497 11.198-13.314 20.836 30.094 35.447 30.094 88.909.001 124.356-8.184 9.638 1.053 24.132 13.313 20.836 20.956-5.637 49.801-18.54 68.209-47.997 3.205-5.13 9.774-6.946 14.95-4.134 8.145 4.422 17.37 9.131 27.49 13.848l-8.496 25.389c-5.044 15.067 6.998 30.407 22.778 29.055 32.023-2.746 58.249-13.947 75.321-23.43 10.839 2.423 21.997 4.416 33.394 5.836 4.099.512 7.857-2.405 8.369-6.515s-2.404-7.857-6.516-8.37c-50.193-6.254-100.729-24.856-145.183-48.995-12.133-6.587-27.43-2.473-34.829 9.367-14.118 22.593-35.704 33.945-53.23 39.637 29.546-39.394 29.57-93.98-.001-133.408 17.458 5.669 38.967 16.965 53.094 39.422 7.365 11.708 22.595 15.819 34.668 9.359 87.555-46.829 183.254-56.762 261.485-38.262-15.181 16.012-23.673 37.087-23.673 59.633 0 20.735 7.417 40.618 20.673 56.229-24.936 6.505-50.797 9.344-76.665 9.344-4.143 0-7.5 3.358-7.5 7.5s3.357 7.5 7.5 7.5c6.818 0 13.414-.193 19.805-.547l15.031 22.612c8.813 13.258 28.307 13.133 36.919-.138 6.799-10.477 12.567-21.933 17.197-34.087 27.623-8.174 55.597-21.511 77.339-39.629 3.663-3.046 8.841-6.889 8.507-14.904-.189-4.504-2.343-8.644-5.917-11.39.012-.054.038-.119.098-.167l8.332-6.802c3.373-2.753 5.4-6.825 5.562-11.173.271-7.229-3.853-10.949-8.264-14.801zm-330.068 101.885 8.027-23.989c16.862 7.243 35.271 13.947 53.521 19.167-13.968 6.123-32.762 12.326-54.276 14.171-5.049.432-8.895-4.499-7.272-9.349zm-19.075-113.35-4.214-12.591c-1.08-3.225 1.493-6.519 4.833-6.23 9.721.834 19.445 2.761 29.073 5.754-10.736 4.245-20.657 8.672-29.692 13.067zm104.606-34.773c16.371-22.541 32.197-21.711 49.527-40.547 8.789-9.554 23.687-10.166 33.025-1.339 13.355 12.62 22.262 26.485 27.864 37.311-36.974-3.746-74.107-2.226-110.416 4.575zm129.105 171.026c-2.76 4.251-9.024 4.244-11.845 0l-10.429-15.688c12.13-1.297 23.409-3.195 33.862-5.528-3.39 7.456-7.266 14.555-11.588 21.216zm100.319-103.63c-7.399 6.041-7.66 17.764.246 23.679.045.035.069.056.072.126.006.154-3.084 2.723-3.202 2.822-11.025 9.156-31.816 23.459-63.889 34.149-13.857-13.514-21.729-32.049-21.729-51.48 0-21.428 9.267-41.257 25.556-54.972 46.745 14.403 71.374 37.764 71.337 38.764-.003.099-8.313 6.848-8.391 6.912z"/></g></svg>