<svg height="512" viewBox="0 0 128 128" width="512" xmlns="http://www.w3.org/2000/svg"><g><path d="m33.6 53.584a10.131 10.131 0 0 1 -3.324-.544 7.866 7.866 0 0 0 -7.033 1.093l-20.143 14.079-.008.009a1.794 1.794 0 0 0 -.739 1.425v34.643a8.086 8.086 0 0 0 8.952 8.036l58.33-6.3a8.242 8.242 0 0 0 6.416-4.682 5.71 5.71 0 0 1 9.592-1.011 8.126 8.126 0 0 0 7.184 3.181l25.6-2.766a8.071 8.071 0 0 0 7.215-8.037s0-30.226 0-30.491c0-43.376-46.238-46.561-46.677-46.589a1.722 1.722 0 0 0 -1.114.312l-33.568 23.479a8 8 0 0 0 -3.258 8.322c.749 3.357-3.469 5.841-7.425 5.841zm88.548 39.127a4.576 4.576 0 0 1 -4.092 4.557l-25.6 2.766a4.594 4.594 0 0 1 -4.068-1.882 9.212 9.212 0 0 0 -15.468 1.635 4.706 4.706 0 0 1 -3.656 2.76l-58.33 6.3a4.581 4.581 0 0 1 -5.077-4.557v-33l116.286-7.105zm-77.708-45.735a4.51 4.51 0 0 1 1.849-4.686l33.048-23.117c5.17.493 39.377 5.132 42.676 41.517l-111.813 6.831 15.044-10.521a4.365 4.365 0 0 1 3.884-.652 13.658 13.658 0 0 0 4.467.735c7.296.001 11.954-5.177 10.845-10.107z"/><path d="m107.486 48.09c0-4.088-4.215-7.414-9.4-7.414s-9.4 3.326-9.4 7.414 4.215 7.414 9.4 7.414 9.4-3.326 9.4-7.414zm-15.292 0c0-2.122 2.7-3.914 5.9-3.914s5.9 1.792 5.9 3.914-2.708 3.91-5.904 3.91-5.896-1.789-5.896-3.91z"/><path d="m75.982 46.185c0-3.547-3.483-6.327-7.929-6.327s-7.93 2.78-7.93 6.327 3.483 6.328 7.93 6.328 7.929-2.779 7.929-6.328zm-12.359 0c0-1.505 2.07-2.827 4.43-2.827s4.429 1.322 4.429 2.827-2.07 2.828-4.429 2.828-4.43-1.321-4.43-2.828z"/><path d="m90.8 31.134c0-3.548-3.483-6.327-7.929-6.327s-7.93 2.779-7.93 6.327 3.484 6.327 7.93 6.327 7.929-2.779 7.929-6.327zm-12.359 0c0-1.506 2.071-2.827 4.43-2.827s4.429 1.321 4.429 2.827-2.07 2.827-4.429 2.827-4.427-1.321-4.427-2.827z"/><path d="m113.211 78a7.475 7.475 0 1 0 -7.475 7.475 7.484 7.484 0 0 0 7.475-7.475zm-11.45 0a3.975 3.975 0 1 1 3.975 3.975 3.979 3.979 0 0 1 -3.975-3.975z"/><path d="m30.956 83.728a6.637 6.637 0 1 0 -6.637 6.637 6.644 6.644 0 0 0 6.637-6.637zm-9.773 0a3.137 3.137 0 1 1 3.136 3.137 3.14 3.14 0 0 1 -3.136-3.137z"/><path d="m60.767 86.388a8.458 8.458 0 1 0 -8.458 8.458 8.467 8.467 0 0 0 8.458-8.458zm-13.415 0a4.958 4.958 0 1 1 4.957 4.958 4.963 4.963 0 0 1 -4.957-4.958z"/><path d="m74.94 77.52a1.762 1.762 0 0 0 0-2.48 1.808 1.808 0 0 0 -2.47 0 1.75 1.75 0 0 0 2.47 2.48z"/><path d="m53.54 56.58a1.75 1.75 0 1 0 -2.471 0 1.757 1.757 0 0 0 2.471 0z"/><path d="m97.13 92.41a1.75 1.75 0 1 0 -2.2.21 1.742 1.742 0 0 0 2.2-.21z"/><path d="m29.38 97.65a1.747 1.747 0 1 0 -2.47 0 1.739 1.739 0 0 0 2.47 0z"/></g></svg>