<svg id="Capa_1" enable-background="new 0 0 511.877 511.877" height="512" viewBox="0 0 511.877 511.877" width="512" xmlns="http://www.w3.org/2000/svg"><g><path d="m363.773 250.657c17.274 0 31.329-14.054 31.329-31.329s-14.054-31.329-31.329-31.329-31.329 14.054-31.329 31.329 14.055 31.329 31.329 31.329zm0-47.658c9.003 0 16.329 7.325 16.329 16.329 0 9.003-7.325 16.329-16.329 16.329s-16.329-7.325-16.329-16.329 7.326-16.329 16.329-16.329z"/><path d="m268.096 292.997c0 17.274 14.054 31.329 31.329 31.329s31.329-14.054 31.329-31.329-14.054-31.329-31.329-31.329-31.329 14.054-31.329 31.329zm47.658 0c0 9.003-7.325 16.329-16.329 16.329-9.003 0-16.329-7.325-16.329-16.329s7.325-16.329 16.329-16.329 16.329 7.325 16.329 16.329z"/><path d="m188.194 219.328c0-14.221-11.569-25.791-25.791-25.791s-25.791 11.569-25.791 25.791 11.569 25.791 25.791 25.791 25.791-11.57 25.791-25.791zm-36.582 0c0-5.95 4.841-10.791 10.791-10.791s10.791 4.841 10.791 10.791-4.841 10.791-10.791 10.791-10.791-4.841-10.791-10.791z"/><path d="m134.194 292.997c0-17.275-14.054-31.329-31.329-31.329s-31.329 14.054-31.329 31.329c0 17.274 14.054 31.329 31.329 31.329s31.329-14.055 31.329-31.329zm-47.658 0c0-9.004 7.325-16.329 16.329-16.329s16.329 7.325 16.329 16.329c0 9.003-7.325 16.329-16.329 16.329s-16.329-7.326-16.329-16.329z"/><path d="m247.067 99.201c0-14.005-11.394-25.399-25.399-25.399s-25.399 11.394-25.399 25.399 11.394 25.399 25.399 25.399 25.399-11.393 25.399-25.399zm-35.799 0c0-5.734 4.665-10.399 10.399-10.399s10.399 4.665 10.399 10.399-4.665 10.399-10.399 10.399-10.399-4.664-10.399-10.399z"/><path d="m232.871 403.113c0 4.142 3.358 7.5 7.5 7.5s7.5-3.358 7.5-7.5v-29.819c0-14.491-11.789-26.28-26.28-26.28h-20.523-7.313l46.826-90.201c.988-1.904 3.134-2.942 5.109-2.467 4.222 1.016 8.585 1.403 12.973 1.154 22.578-1.291 40.938-20.01 41.798-42.617.504-13.263-4.871-25.946-14.748-34.795-1.713-1.536-2.215-3.947-1.221-5.864l11.285-21.737c1.909-3.676.476-8.204-3.201-10.112-3.676-1.91-8.204-.476-10.112 3.201l-11.285 21.738c-4.149 7.994-2.289 17.841 4.524 23.946 6.542 5.862 10.103 14.265 9.769 23.054-.569 14.965-12.721 27.357-27.664 28.211-2.919.165-5.815-.09-8.61-.763-8.725-2.098-17.742 2.073-21.93 10.14l-50.412 97.111-161.818-.009 31.688-59.24c1.954-3.652.577-8.197-3.076-10.151-3.651-1.953-8.197-.577-10.151 3.076l-31.798 59.442c-2.431 4.683-2.247 10.171.493 14.681s7.526 7.202 12.802 7.202h166.415 19.657 20.523c6.22 0 11.28 5.06 11.28 11.28z"/><path d="m510.176 340.131-15.785-30.407c-4.522-8.709-15.019-12.747-24.421-9.393-2.127.759-4.372 1.061-6.678.899-7.828-.552-14.298-6.845-15.05-14.639-.575-5.969 1.991-11.581 6.864-15.012 8.133-5.727 10.853-16.623 6.326-25.344l-44.986-86.657c-3.781-7.285-11.541-11.408-19.768-10.507-1.269.139-2.567.186-3.859.14-13.405-.481-24.47-11.34-25.191-24.721-.376-6.97 1.958-13.666 6.574-18.854 5.379-6.048 6.479-14.954 2.738-22.162l-18.343-35.334c-2.586-4.983-7.681-8.079-13.296-8.079-.005 0-.01 0-.014 0l-167.325.229c-9.797.014-18.754 5.389-23.374 14.027l-16.944 31.675c-3.397 6.351-2.668 14.142 1.856 19.847 2.478 3.125 3.719 7.055 3.496 11.068-.438 7.858-6.653 14.429-14.458 15.283-1.099.12-2.204.133-3.284.039-7.164-.636-13.997 3.093-17.413 9.481l-59.158 110.59c-1.954 3.652-.577 8.197 3.076 10.151 1.126.603 2.337.888 3.531.888 2.677 0 5.269-1.438 6.62-3.964l59.158-110.592c.578-1.083 1.706-1.72 2.875-1.613 2.059.181 4.154.157 6.228-.07 15.01-1.643 26.963-14.265 27.803-29.36.428-7.682-1.958-15.219-6.72-21.223-.808-1.019-.958-2.374-.382-3.451l16.944-31.675c2.01-3.758 5.906-6.096 10.168-6.102l150.419-.206-31.126 59.958c-1.908 3.676-.475 8.204 3.201 10.112 3.676 1.91 8.203.475 10.112-3.201l34.691-66.893h.011l18.338 35.325c.896 1.726.642 3.849-.632 5.282-7.261 8.163-10.934 18.686-10.344 29.63 1.135 21.059 18.542 38.147 39.634 38.904 2.013.072 4.041-.002 6.028-.22 2.029-.218 3.917.763 4.821 2.507l44.986 86.657c1.103 2.125.41 4.72-1.648 6.169-9.2 6.478-14.242 17.48-13.159 28.715 1.446 14.995 13.881 27.102 28.925 28.163 4.384.311 8.685-.274 12.776-1.735 2.413-.859 4.963.055 6.064 2.177l15.803 30.378h-19.909c-14.491 0-26.28 11.789-26.28 26.28v57.864c0 4.525-3.682 8.207-8.207 8.207s-8.207-3.682-8.207-8.207v-57.864c0-14.491-11.789-26.28-26.28-26.28h-54.605c-14.491 0-26.28 11.789-26.28 26.28v23.574c0 4.525-3.682 8.207-8.207 8.207s-8.207-3.682-8.207-8.207v-26.647c0-12.796-10.411-23.207-23.207-23.207s-23.207 10.411-23.207 23.207v78.389c0 4.525-3.682 8.207-8.207 8.207s-8.207-3.682-8.207-8.207v-13.535c0-4.142-3.358-7.5-7.5-7.5s-7.5 3.358-7.5 7.5v13.535c0 12.796 10.411 23.207 23.207 23.207s23.207-10.411 23.207-23.207v-78.389c0-4.525 3.682-8.207 8.207-8.207s8.207 3.682 8.207 8.207v26.647c0 12.796 10.411 23.207 23.207 23.207s23.207-10.411 23.207-23.207v-23.574c0-6.22 5.06-11.28 11.28-11.28h54.605c6.22 0 11.28 5.06 11.28 11.28v57.864c0 12.796 10.411 23.207 23.207 23.207s23.207-10.411 23.207-23.207v-57.864c0-6.22 5.06-11.28 11.28-11.28h19.909c5.276 0 10.063-2.692 12.803-7.202 2.736-4.506 2.921-9.995.489-14.678z"/></g></svg>