<svg id="Capa_1" enable-background="new 0 0 512 512" height="512" viewBox="0 0 512 512" width="512" xmlns="http://www.w3.org/2000/svg"><g><path d="m493.86 243.164c-4.578 3.085-5.788 9.298-2.702 13.876.995 1.476.899 2.954.752 3.704-.818 4.204-6.551 5.367-8.944 1.816l-14.071-20.878c.005-.412.02-.826.02-1.237 0-60.555-30.839-93.237-56.71-109.99-27.055-17.521-56.633-23.734-88.35-23.723-5.521.007-9.99 4.488-9.983 10.009.007 5.516 4.481 9.983 9.995 9.983 27.873 0 53.659 5.092 77.47 20.512 31.575 20.448 47.585 51.808 47.585 93.21 0 14.113-4.057 30.389-7.98 46.128-2.733 10.965-5.314 21.321-6.634 31.1-4.216 31.241-5.679 55.027-6.185 67.603h-21.688l1.673-4.796c6.978-20.008-1.844-42.137-20.525-51.476-8.597-4.298-14.603-12.026-20.005-19.799-7.975-11.475-14.808-23.915-20.516-36.664-2.253-5.039-8.162-7.298-13.205-5.046-5.039 2.253-7.299 8.166-5.046 13.205 1.256 2.808 7.599 16.685 16.627 31.165l-65.11.002c-25.897 0-51.971-5.949-75.639-16.393-3.535-1.559-7.526-.912-10.364 1.406-3.758 3.068-14.895 25.864-17.968 32.174-5.724 11.435-11.558 24.012-15.51 34.879-1.103 3.021-8.42 12.773-15.546 21.342h-17.459l3.1-5.635c4.353-7.912 7.125-16.467 8.238-25.428l6.719-54.103c.953-7.671-7.233-13.59-14.222-10.255-.902.418-21.537 9.837-43.266 9.837-9.978 0-18.629-2.011-25.028-4.162l3.073-1.185c5.151-1.986 7.716-7.772 5.731-12.923-1.986-5.151-7.771-7.717-12.923-5.731l-26.759 10.318-9.624-23.876c5.551-2.986 12.618-6.911 18.836-10.396 5.314-2.979 9.487-7.472 12.068-12.995 2.177-4.659 7.307-13.682 18.339-25.831 6.649 5.349 11.77 8.046 12.185 8.261 4.809 2.493 10.931.544 13.439-4.251 2.552-4.878.661-10.911-4.208-13.482-24.702-13.01-36.999-41.936-38.442-68.548 19 8.319 37.236 22.482 43.771 42.913 1.681 5.259 7.306 8.159 12.566 6.475 5.258-1.681 8.157-7.307 6.475-12.566-1.74-5.441-4.041-10.425-6.724-15.003 30.069-13.318 72.287-22.313 125.766-26.765 5.502-.458 9.59-5.289 9.132-10.79-.458-5.502-5.293-9.582-10.79-9.132-58.193 4.844-104.088 15.068-136.603 30.416-10.1-10.284-23.35-19.508-37.007-24.441-6.04-2.186-12.694-1.333-18.038 2.371-5.617 3.893-8.879 10.534-8.525 17.337 1.171 22.54 8.377 45.482 22.774 63.123-12.491 13.624-18.939 24.426-22.221 31.448-.798 1.709-2.089 3.1-3.732 4.021-18.817 10.546-24.209 13.235-25.362 13.787-2.671.774-4.506 2.514-5.751 5.023-1.269 2.557-.964 5.399.102 8.045l16.713 41.461c1.512 3.749 5.306 6.282 9.338 6.259h16.768c6.275 3.309 22.898 10.809 44.664 10.809 13.146 0 25.899-2.787 35.624-5.738l-4.695 37.804c-.799 6.433-2.788 12.575-5.914 18.255l-8.402 15.272h-38.165c-5.521 0-9.996 4.475-9.996 9.996s4.475 9.996 9.996 9.996h402.125c5.521 0 9.996-4.475 9.996-9.996s-4.475-9.996-9.996-9.996h-20.841c.527-12.339 1.981-35.329 5.975-64.929 1.172-8.687 3.624-18.524 6.22-28.939 1.624-6.513 3.266-13.112 4.675-19.711 4.146 6.326 9.663 11.09 17.279 12.573 13.343 2.599 26.642-6.381 29.238-19.705 1.273-6.536-.076-13.178-3.797-18.7-3.085-4.574-9.297-5.785-13.876-2.7zm-305.721 135.653-2.842 6.46h-14.525c3.948-5.355 7.511-10.782 8.866-14.51 1.587-4.364 3.515-9.052 5.629-13.843l2.696 5.783c2.376 5.094 2.439 10.966.176 16.11zm18.958 6.46c3.897-10.02 3.55-21.229-1.014-31.018l-9.628-20.65c.265-.521 6.317-12.094 8.628-16.337 6.584 2.555 13.293 4.8 20.089 6.72l5.41 61.284h-23.485zm110.201-19.251-11.14 19.25h-55.508l-4.995-56.585c10.664 1.916 22.341 3.168 34.674 3.168h36.503c2.617 10.086 3.351 17.699 3.46 22.614.09 4.018-.946 8.014-2.994 11.553zm31.801 19.251h-19.843l5.346-9.237c3.886-6.715 5.849-14.327 5.677-22.012-.154-6.899-1.117-14.319-2.873-22.168h9.898c3.634 0 7.474-1.003 10.971-1.84 2.017 2.441 4.155 4.799 6.389 7.042zm40.133-11.379-3.968 11.379h-15.157l11.749-36.396c7.455 5.592 10.619 15.716 7.376 25.017z"/><path d="m87.222 234.458c-10.703-7.132-21.854 9.438-11.095 16.623 10.747 7.178 21.754-9.637 11.095-16.623z"/><path d="m271.572 123.328c7.424 10.21 23.39-.923 16.396-11.418-7.193-10.99-24.063.874-16.396 11.418z"/></g></svg>