<?xml version="1.0" encoding="iso-8859-1"?>
<!-- Generator: Adobe Illustrator 19.0.0, SVG Export Plug-In . SVG Version: 6.00 Build 0)  -->
<svg xmlns="http://www.w3.org/2000/svg" xmlns:xlink="http://www.w3.org/1999/xlink" version="1.1" id="Layer_1" x="0px" y="0px" viewBox="0 0 512 512" style="enable-background:new 0 0 512 512;" xml:space="preserve" width="512" height="512">
<g id="XMLID_885_">
	<g id="XMLID_1110_">
		<path id="XMLID_1334_" d="M458.993,71.651l-16.89-6.919l9.473-19.398c2.522-5.164,2.21-11.156-0.834-16.03    c-3.043-4.874-8.291-7.783-14.037-7.783h-6.561l-5.775-12.1c-2.691-5.639-8.244-9.247-14.49-9.416    c-6.225-0.157-11.983,3.134-14.976,8.62l-4.917,9.015l-13.9-8.227c-5.104-3.021-11.473-3.073-16.627-0.135    c-5.152,2.938-8.353,8.446-8.353,14.377v6.621c-5.275,0.983-9.804,4.482-12.055,9.535c-2.742,6.157-1.507,13.287,3.147,18.163    l14.711,15.41c-0.127,0.422-0.256,0.843-0.371,1.271l-9.491,35.252c-6.104,22.672-18.584,42.929-36.092,58.579    c-4.117,3.681-4.471,10.003-0.79,14.12c3.681,4.118,10.001,4.472,14.12,0.791c20.409-18.245,34.958-41.859,42.074-68.291    l9.491-35.251c2.903-10.783,12.729-18.314,23.896-18.314c8.53,0,16.606,4.513,21.077,11.779l0.994,1.615    c-1.242,1.666-1.977,3.731-1.977,5.969v11.345c0,5.525-4.495,10.021-10.021,10.021c-3.303,0-6.393,1.631-8.256,4.357    s-2.261,6.197-1.062,9.274l5.72,14.673c16.122,41.354,24.296,84.827,24.296,129.212c0,36.055-19.623,69.252-51.212,86.636    c-2.068,1.138-3.667,2.97-4.514,5.174l-2.66,6.922c-13.5,35.133-47.858,58.738-85.495,58.738h-31.621    c-0.198-0.007-0.395-0.019-0.594-0.015c-31.387-0.31-56.829-25.928-56.829-57.387c0-5.523-4.478-10-10-10h-30.03    c-20.612,0-37.382-16.77-37.382-37.382c0-5.523-4.478-10-10-10c-23.924,0-43.388-19.463-43.388-43.388V240.39h62.632    c40.75,0,81.084-6.313,119.884-18.765c5.259-1.688,8.153-7.318,6.466-12.577c-1.687-5.258-7.316-8.154-12.577-6.466    c-36.821,11.817-75.1,17.808-113.772,17.808H56.796c-5.522,0-10,4.477-10,10v28.696c0,31.814,23.558,58.229,54.146,62.716    c4.468,27.221,28.158,48.054,56.624,48.054h20.673c4.598,35.476,33.312,63.488,69.107,67.019l14.995,44.689    c-9.981,1.461-17.679,10.056-17.679,20.437c0,5.523,4.478,10,10,10c5.522,0,10-4.477,10-10c0-0.375,0.305-0.68,0.68-0.68h10.745    c0.025,0,0.049,0.003,0.074,0.003c0.024,0,0.049-0.003,0.073-0.003h10.186c0.375,0,0.681,0.305,0.681,0.68c0,5.523,4.478,10,10,10    s10-4.477,10-10c0-0.229-0.027-0.452-0.034-0.68h3.167c0.025,0,0.049,0.003,0.074,0.003c0.024,0,0.049-0.003,0.073-0.003h10.187    c0.375,0,0.68,0.305,0.68,0.68c0,5.523,4.478,10,10,10s10-4.477,10-10c0-11.403-9.277-20.68-20.68-20.68H317.5l-15.158-45.177    c16.983-2.397,33.168-8.664,47.487-18.5c18.678-12.833,32.847-30.796,40.976-51.949l1.381-3.595    c36.079-21.347,58.335-60.208,58.335-102.312c0-46.88-8.634-92.797-25.661-136.476l-1.638-4.201    c9.846-4.931,16.621-15.12,16.621-26.861v-1.345h15.359c4.778,0,8.889-3.38,9.812-8.068    C465.937,78.148,463.414,73.462,458.993,71.651z M291.702,481.32c-0.761,0-1.5,0.093-2.212,0.254    c-1.004-0.151-2.025-0.254-3.071-0.254h-3.065l-14.784-44.063h13.051l14.784,44.063H291.702z M399.748,41.541    c-12.518,0-24.102,5.238-32.352,13.862l-6.394-6.697c1.863-0.789,3.583-1.926,5.083-3.382c3.237-3.144,5.021-7.361,5.021-11.874    v-3.744l11.769,6.965c3.842,2.274,8.515,2.898,12.82,1.714c4.305-1.185,8-4.112,10.139-8.032l3.395-6.224l3.804,7.971    c2.732,5.722,8.596,9.42,14.937,9.42h3.213l-4.458,9.128C419.042,44.858,409.565,41.541,399.748,41.541z"/>
		<path id="XMLID_1360_" d="M164.907,268.347c-3.248,0-6.293,1.577-8.167,4.229c-1.874,2.652-2.344,6.049-1.259,9.11    c11.164,31.509,40.39,53.086,73.522,54.733c4.396,16.844,19.74,29.31,37.942,29.31c29.374,0,55.983-17.38,67.789-44.277    l0.27-0.612c4.142-9.438,6.242-19.449,6.242-29.754v-48.017c0-3.425-1.752-6.611-4.645-8.445    c-2.891-1.833-6.521-2.061-9.619-0.601c-47.638,22.454-100.654,34.323-153.319,34.323H164.907z M321.246,258.476v32.611    c0,7.521-1.533,14.828-4.556,21.716l-0.269,0.612c-8.617,19.631-28.038,32.315-49.477,32.315    c-10.592,0-19.208-8.617-19.208-19.208c0-5.523-4.478-10-10-10h-4.651c-21.316,0-40.843-10.922-52.181-28.246    C228.904,287.34,276.976,277.117,321.246,258.476z"/>
		<path id="XMLID_1361_" d="M360.024,311.378c-4.839,2.663-6.603,8.744-3.939,13.583c1.821,3.31,5.241,5.181,8.77,5.181    c1.63,0,3.283-0.399,4.813-1.241c25.111-13.819,40.767-40.209,40.854-68.871c0.017-5.523-4.446-10.014-9.969-10.031    c-5.482-0.009-10.015,4.446-10.031,9.969C390.455,281.364,378.769,301.063,360.024,311.378z"/>
		<path id="XMLID_1363_" d="M396.947,210.066c-5.485,0.637-9.417,5.6-8.78,11.086c0.004,0.028,0.017,0.139,0.021,0.167l0.026,0.218    c0.618,5.072,4.931,8.792,9.914,8.792c0.403,0,0.812-0.024,1.222-0.074c5.482-0.668,9.386-5.654,8.718-11.136l-0.03-0.242    l-0.003-0.03C407.396,213.36,402.435,209.428,396.947,210.066z"/>
		<path id="XMLID_1368_" d="M283.749,207.629c2.63,0,5.21-1.07,7.069-2.93c1.86-1.87,2.931-4.44,2.931-7.08    c0-2.63-1.07-5.2-2.931-7.07c-1.859-1.86-4.439-2.93-7.069-2.93s-5.21,1.07-7.07,2.93c-1.86,1.87-2.93,4.44-2.93,7.07    c0,2.64,1.069,5.21,2.93,7.08C278.539,206.56,281.119,207.629,283.749,207.629z"/>
	</g>
</g>















</svg>
