<svg id="Capa_1" enable-background="new 0 0 512 512" height="512" viewBox="0 0 512 512" width="512" xmlns="http://www.w3.org/2000/svg"><g><path d="m95.78 95.138c5.031-2.091 7.49-8.011 5.409-13.05-2.079-5.035-8.031-7.492-13.06-5.41-5.05 2.091-7.478 8.015-5.41 13.06 2.097 5.032 8.025 7.494 13.061 5.4z"/><path d="m5.02 151.87c.007.011.016.02.023.031 6.601 11.532 19.018 19.325 33.227 19.325 3.291 0 6.521-.169 9.727-.991 4.188-1.075 7.768-3.06 11.323-5.457-2.083 5.716-3.321 11.828-3.567 18.177-.454 11.73 2.484 23.215 8.496 33.212 1.391 2.313 1.38 5.093-.026 7.438-5.571 9.283-8.516 19.934-8.516 30.801 0 21.432 11.558 41.377 30.162 52.055 2.214 1.27 3.552 3.68 3.492 6.289-.011.459-.016.92-.016 1.381 0 33.075 26.908 59.983 59.983 59.983 1.553 0 3.092-.08 4.624-.196 0 0 13.38 60.139 13.414 60.27.233.879.352 1.812.352 2.772v24.6c0 1.985-.542 3.933-1.567 5.632l-5.554 9.205c-1.179 1.956-1.934 4.093-2.273 6.283h-67.608c-5.522 0-10 4.477-10 10s4.478 10 10 10h381.632c5.522 0 10-4.477 10-10s-4.478-10-10-10h-57.102c.147-.793 2.156-23.433 2.156-23.433.001-.015 6.633-85.854 6.633-85.854 26.06-3.994 46.412-24.421 50.093-50.858.753-5.4-1.207-13.571 4.717-16.536 20.451-10.241 33.155-30.797 33.155-53.648 0-22.714-12.595-43.215-32.87-53.502-1.723-.874-3.122-2.335-3.853-4.13-.634-1.558-.552-3.159-.606-4.803-.161-5.521-4.758-9.862-10.287-9.705-5.521.16-9.865 4.766-9.705 10.286.18 5.216.896 10.047 3.452 14.693 2.713 4.933 6.936 8.95 11.951 11.494 13.52 6.86 21.918 20.527 21.918 35.667 0 15.231-8.472 28.935-22.109 35.763-5.519 2.763-10.013 7.374-12.635 12.96-2.882 6.14-2.032 12.213-2.937 18.703-2.565 18.421-17.286 32.47-35.798 34.163-10.938 1-18.802-4.207-28.941-6.491-7.98-1.801-16.379-.886-23.953 2.75-10.731 5.148-23.563 5.194-34.327.093-10.236-4.85-21.977-4.85-32.213 0-10.699 5.069-23.446 5.07-34.146 0-10.234-4.851-21.977-4.852-32.213 0-10.689 5.065-23.455 5.061-34.147-.002-7.833-3.708-16.839-4.749-25.258-2.591-4.686 1.201-8.868 3.735-13.532 5.026-3.382.917-6.879 1.389-10.462 1.389-22.047 0-39.983-17.937-39.983-39.983 0-.308.003-.616.01-.921.229-9.942-4.956-19.175-13.532-24.096-12.408-7.121-20.116-20.42-20.116-34.708 0-7.243 1.959-14.335 5.664-20.51 5.199-8.663 5.206-19.405.018-28.035-4-6.651-5.954-14.305-5.651-22.132.826-21.307 19.033-38.392 40.231-38.392 9.427 0 18.405-5.324 22.748-13.708 7.764-14.965 19.702-26.044 37.598-26.044 17.616 0 33.39 11.789 38.358 28.668 6.109 20.746 30.585 30.932 49.821 21.522 10.419-5.096 22.864-5.362 33.493-.715 10.936 4.78 23.479 4.779 34.411 0 10.087-4.41 21.86-4.41 31.947 0 10.933 4.779 23.476 4.78 34.414-.001 1.412-.618 2.962-1.178 4.607-1.666 5.296-1.569 8.315-7.134 6.746-12.43-1.57-5.294-7.132-8.317-12.43-6.745-2.437.722-4.771 1.569-6.937 2.516-5.845 2.555-12.549 2.554-18.392 0-15.153-6.624-32.813-6.624-47.967 0-5.845 2.553-12.548 2.555-18.391 0-15.962-6.978-34.645-6.578-50.292 1.076-8.249 4.034-19.188-.179-21.848-9.206-7.455-25.329-31.118-43.02-57.544-43.02-1.517 0-3.025.057-4.521.17-.968-6.028-2.674-12.919-5.695-18.612l17.372-26.922c4.715-6.542 4.954-15.098.578-21.915-4.455-6.942-12.543-10.285-20.601-8.518-.01.002-.019.004-.028.006l-13.618 3.027c-10.636 2.351-19.87 4.392-28.77 15.535-15.227-3.52-29.821-.233-39.187 12.878-4.742 6.646-11.034 12.185-18.192 16.019-18.583 9.956-35.241 22.855-49.526 38.353-8.988 7.301-14.124 18.07-14.124 29.691v7.65c0 6.389 1.581 12.413 4.36 17.714.193.412.405.818.66 1.21zm204.05 326.657c-.205 2.367-2.151 4.152-4.527 4.152h-24.377l3.11-5.155c1.716-2.844 2.953-5.933 3.681-9.143h22.994zm186.58.001c-.205 2.366-2.151 4.15-4.526 4.15h-24.369l2.037-3.376c0-.001.001-.002.002-.004 2.051-3.401 3.551-7.086 4.465-10.918h23.273zm-34.719-105.742c4.511-.962 8.917-2.45 13.084-4.425 3.491-1.655 7.247-2.133 10.758-1.464 6.584 1.3 12.47 5.044 19.219 6.266l-5.811 75.217h-23.874v-10.45c0-3.211-.404-6.427-1.203-9.564l-12.321-55.544c.05-.01.099-.025.148-.036zm-123.216-2.879c1.203-.478 2.398-.984 3.578-1.543 4.792-2.271 10.29-2.272 15.084 0 16.076 7.618 35.198 7.618 51.274 0 4.792-2.271 10.29-2.271 15.084 0 5.653 2.679 11.593 4.409 17.729 5.214l13.15 59.28c.026.117.054.233.084.348.403 1.555.608 3.144.608 4.724v21.527c0 3.356-.913 6.645-2.641 9.513l-4.481 7.427c-1.178 1.956-1.932 4.093-2.271 6.282h-116.248c.147-.794 9.05-112.772 9.05-112.772zm-63.333-1.286c4.99-2.3 10.605-2.64 15.651-.251 8.478 4.015 17.926 5.977 27.301 5.715l-5.734 74.295h-23.88v-11.421c0-2.615-.324-5.2-.964-7.685l-13.387-60.186c.34-.148.675-.311 1.013-.467zm-154.382-243.325c0-5.692 2.582-10.957 7.084-14.444.451-.35.872-.738 1.257-1.159 12.876-14.087 27.934-25.799 44.755-34.81 9.85-5.277 18.503-12.893 25.023-22.022 5.731-8.01 15.157-6.356 23.521-3.56 4.037 1.348 8.48-.003 11.082-3.369l3.27-4.23c.026-.035.053-.069.079-.104 4.543-6.039 7.722-6.966 18.059-9.25l12.396-2.755-20.888 32.372c-2.643 4.097-1.824 9.444 1.621 12.782 1.795 1.795 3.909 7.915 5.031 15.851-7.844 3.426-14.923 8.546-20.632 14.922-4.768 5.325-7.211 11.346-10.898 17.254-.99 1.58-2.791 2.562-4.8 2.562-15.815 0-31.231 6.239-42.48 17.38h-7.49c-6.727 0-13.428 2.196-18.891 6.198-2.67 1.967-5.629 2.312-8.83 2.312-3.528 0-6.814-1.022-9.61-2.762l10.99-7.124c4.634-3.004 5.956-9.196 2.952-13.831-3.004-4.633-9.194-5.957-13.831-2.952l-8.77 5.686z"/><path d="m439.16 143.618c-4.532 3.02-5.793 9.34-2.771 13.87 3.031 4.542 9.334 5.764 13.87 2.76 4.54-3.007 5.773-9.345 2.76-13.86-2.982-4.562-9.354-5.772-13.859-2.77z"/></g></svg>