<svg height="385pt" viewBox="0 -4 385.11716 385" width="385pt" xmlns="http://www.w3.org/2000/svg"><path d="m19.839844 303.136719c-.449219 0-.902344-.046875-1.355469-.132813-2.144531-.433594-3.953125-1.875-4.859375-3.867187-32.394531-71.265625.265625-113.214844 22.621094-131.875 2.890625-2.417969 7.207031-2.027344 9.613281.867187 2.410156 2.894532 2.027344 7.199219-.867187 9.613282-22.480469 18.765624-43.910157 52.308593-22.648438 106.960937l52.566406-48.554687c2.761719-2.558594 7.078125-2.390626 9.648438.382812 2.558594 2.773438 2.382812 7.09375-.382813 9.644531l-59.707031 55.148438c-1.273438 1.179687-2.929688 1.8125-4.628906 1.8125zm0 0"/><path d="m365.277344 303.136719c-1.699219 0-3.359375-.632813-4.632813-1.8125l-59.707031-55.144531c-2.765625-2.554688-2.941406-6.875-.378906-9.648438 2.566406-2.773438 6.878906-2.9375 9.644531-.378906l52.566406 48.550781c21.269531-54.65625-.171875-88.207031-22.664062-106.980469-2.894531-2.410156-3.289063-6.71875-.867188-9.613281 2.40625-2.890625 6.71875-3.285156 9.613281-.867187 22.367188 18.667968 55.039063 60.621093 22.640626 131.894531-.90625 1.992187-2.714844 3.433593-4.859376 3.867187-.457031.085938-.90625.132813-1.355468.132813zm0 0"/><path d="m192.558594 377.832031c-69.714844 0-121.679688-127.28125-131.179688-198.542969-.5-3.730468 2.125-7.164062 5.867188-7.664062 3.765625-.5 7.167968 2.125 7.667968 5.867188 9.914063 74.320312 61.890626 186.6875 117.644532 186.6875 55.949218 0 107.886718-112.585938 117.703125-187.058594.492187-3.734375 3.804687-6.386719 7.65625-5.875 3.734375.496094 6.367187 3.921875 5.875 7.660156-5.273438 40.0625-21.789063 88.425781-43.09375 126.234375-18.695313 33.15625-49.15625 72.691406-88.140625 72.691406zm0 0"/><path d="m318.597656 181.765625c-20.960937 0-39.929687-12.589844-48.5-31.402344-5.960937 2.253907-12.09375 3.394531-18.320312 3.394531-20.53125 0-39.03125-11.859374-47.90625-30.109374-10.972656 2.910156-22.511719 2.753906-33.273438-.332032-8.796875 18.453125-27.34375 30.441406-48.058594 30.441406-2.808593 0-5.640624-.265624-8.652343-.828124-9.140625 17.695312-27.148438 28.835937-47.367188 28.835937-29.507812 0-53.507812-24-53.507812-53.507813 0-29.507812 24-53.507812 53.503906-53.507812 2.386719 0 4.796875.195312 7.316406.59375-3.195312-6.964844-4.808593-14.265625-4.808593-21.773438 0-29.503906 24.007812-53.5117182 53.511718-53.5117182 11.132813 0 22.003906 3.5859372 31.113282 10.1953122 20.414062-13.375 48.074218-13.375 68.472656 0 9.121094-6.609375 19.988281-10.1953122 31.121094-10.1953122 29.507812 0 53.507812 24.0078122 53.507812 53.5117182 0 8.445313-2.066406 16.800782-6.011719 24.40625 5.8125-2.144531 11.792969-3.226562 17.859375-3.226562 29.507813 0 53.507813 24 53.507813 53.507812 0 29.507813-24 53.507813-53.507813 53.507813zm-44.667968-47.496094c.894531 0 1.792968.175781 2.632812.527344 1.914062.800781 3.355469 2.429687 3.929688 4.414063 4.890624 17.015624 20.566406 28.902343 38.105468 28.902343 21.972656 0 39.855469-17.882812 39.855469-39.855469 0-21.972656-17.882813-39.855468-39.855469-39.855468-6.433594 0-12.785156 1.6875-18.894531 5.007812-1.816406.980469-3.972656 1.101563-5.890625.300782-1.914062-.800782-3.355469-2.417969-3.929688-4.414063-.777343-2.699219-1.84375-5.324219-3.179687-7.8125-1.160156-2.160156-1.070313-4.773437.234375-6.851563 4.027344-6.429687 6.160156-13.714843 6.160156-21.0625 0-21.980468-17.878906-39.859374-39.855468-39.859374-9.589844 0-18.949219 3.621093-26.351563 10.203124-2.457031 2.191407-6.160156 2.3125-8.738281.273438-8.753906-6.855469-19.214844-10.476562-30.261719-10.476562-11.042969 0-21.511719 3.621093-30.265625 10.476562-2.597656 2.042969-6.28125 1.910156-8.746094-.273438-7.386718-6.582031-16.746094-10.203124-26.339844-10.203124-21.980468 0-39.859374 17.882812-39.859374 39.859374 0 6.878907 1.867187 13.574219 5.554687 19.90625 1.238281 2.128907 1.234375 4.753907-.007813 6.875-1.234374 2.117188-2.121093 3.90625-2.78125 5.613282-1.257812 3.277344-4.804687 5.066406-8.207031 4.113281-4.074219-1.140625-7.480469-1.675781-10.71875-1.675781-21.972656 0-39.855469 17.882812-39.855469 39.855468 0 21.972657 17.882813 39.855469 39.855469 39.855469 16.539063 0 31.09375-10.035156 37.085938-25.5625 1.257812-3.285156 4.796875-5.09375 8.207031-4.117187 4.082031 1.136718 7.492188 1.671875 10.726562 1.671875 17.125 0 32.257813-11.046875 37.664063-27.492188.59375-1.800781 1.90625-3.273437 3.628906-4.070312 1.726563-.777344 3.699219-.832031 5.441407-.117188 11.480468 4.699219 24.246093 4.917969 36.074218.417969 1.726563-.660156 3.660156-.578125 5.332032.199219 1.671874.796875 2.960937 2.230469 3.554687 3.980469 5.519531 16.199218 20.605469 27.082031 37.546875 27.082031 6.433594 0 12.785156-1.6875 18.890625-5.007813 1.011719-.546875 2.132813-.828125 3.257813-.828125zm0 0"/><path d="m215.898438 321.8125h-37.347657c-3.773437 0-6.828125-3.054688-6.828125-6.828125s3.054688-6.828125 6.828125-6.828125h37.347657c3.773437 0 6.824218 3.054688 6.824218 6.828125s-3.050781 6.828125-6.824218 6.828125zm0 0"/><path d="m195.972656 376.675781c-3.773437 0-6.828125-3.050781-6.828125-6.824219v-54.613281c0-3.773437 3.054688-6.828125 6.828125-6.828125 3.773438 0 6.824219 3.054688 6.824219 6.828125v54.613281c0 3.773438-3.050781 6.824219-6.824219 6.824219zm0 0"/><path d="m239.238281 228.449219c-13.441406 0-21.46875-4.300781-21.46875-11.5 0-3.773438 3.054688-6.824219 6.828125-6.824219 2.558594 0 4.792969 1.40625 5.960938 3.492188 1.417968.515624 4.445312 1.179687 8.679687 1.179687 4.238281 0 7.265625-.667969 8.6875-1.179687 1.164063-2.085938 3.398438-3.492188 5.957031-3.492188 3.773438 0 6.828126 3.050781 6.828126 6.824219 0 7.203125-8.027344 11.5-21.472657 11.5zm0 0"/><path d="m145.878906 228.449219c-13.449218 0-21.476562-4.300781-21.476562-11.5 0-3.773438 3.054687-6.824219 6.828125-6.824219 2.558593 0 4.792969 1.40625 5.960937 3.492188 1.417969.515624 4.445313 1.179687 8.6875 1.179687 4.230469 0 7.257813-.667969 8.679688-1.179687 1.167968-2.085938 3.398437-3.492188 5.957031-3.492188 3.773437 0 6.828125 3.050781 6.828125 6.824219 0 7.203125-8.027344 11.5-21.464844 11.5zm0 0"/></svg>