<svg id="Capa_1" enable-background="new 0 0 512.032 512.032" height="512" viewBox="0 0 512.032 512.032" width="512" xmlns="http://www.w3.org/2000/svg"><path d="m510.518 283.513-1.677-5.689c-1.172-3.973-5.342-6.247-9.314-5.074-3.974 1.171-6.245 5.342-5.074 9.314l1.677 5.688c3.254 11.047-2.653 22.53-13.471 26.332l-37.476 7.69c-7.837 2.696-16.271 1.75-23.027-3.157-4.374-3.139-7.499-7.457-9.095-12.382 3.981.493 8.013.486 12.007-.035 13.47-1.749 25.629-9.158 33.36-20.326l26.058-37.645c.907 4.308 5.383 6.992 9.503 5.72 3.974-1.17 6.246-5.34 5.075-9.313l-4.697-15.946c1.767-7.547 1.462-15.512-1.058-23.162-4.248-12.9-14.056-22.817-26.909-27.207l-13.586-4.641c.017-6.116-1.51-12.235-4.604-17.893-5.92-10.825-16.803-18.121-29.113-19.518l-27.254-3.091c-1.275-3.173-3.04-6.206-5.283-9.009-7.598-9.492-19.449-14.613-31.738-13.735l-54.541 3.971c-2.832-2.933-6.202-5.709-10.23-8.113-14.163-8.452-28.355-7.793-35.597-6.637-6.812.972-13.684 1.982-20.426 3.006-4.096.621-6.911 4.445-6.29 8.54.621 4.096 4.458 6.901 8.54 6.29 6.72-1.02 13.569-2.027 20.357-2.995.045-.007.091-.014.136-.021 4.194-.676 15.087-1.572 25.593 4.697 14.802 9.098 16.887 23.557 17.591 27.42 10.148 42.755 7.697 73.281-6.903 85.956-16.003 13.889-50.171 12.579-96.217-3.684-29.617-10.462-62.592-26.704-90.471-44.563-28.103-18.003-38.497-29.517-41.175-34.069 12.644-3.025 25.512-5.778 38.251-8.526 4.507 8.004 13.082 13.426 22.904 13.426 13.485 0 24.623-10.213 26.1-23.31 16.335-3.11 32.738-6.046 49.065-8.781 4.085-.685 6.841-4.551 6.156-8.637-.685-4.084-4.544-6.844-8.637-6.156-16.38 2.744-32.837 5.689-49.226 8.808-4.331-8.572-13.217-14.467-23.459-14.467-13.885 0-25.281 10.829-26.204 24.484-12.378 2.639-24.841 5.397-37.131 8.232-6.976 1.595-11.325 4.82-12.929 9.586-1.716 5.098.334 10.357 3.552 15.052-20.367-10.672-34.813-28.712-37.987-49.486-5.432-35.55 25.379-61.388 34.952-68.46 36.187-26.738 87.892-17.679 120.613 2.053 9.395 5.664 17.995 12.768 25.563 21.113 2.783 3.068 7.526 3.302 10.594.518 3.068-2.782 3.3-7.525.518-10.594-8.549-9.429-18.282-17.464-28.928-23.883-18.902-11.397-42.532-18.876-64.831-20.519-27.59-2.034-52.647 4.622-72.442 19.247-11.28 8.334-47.566 38.936-40.866 82.79 5.47 35.804 37.619 64.842 78.478 71.165 3.834 2.851 7.978 5.774 12.403 8.739 33.279 22.301 74.521 42.413 110.32 53.803 22.164 7.051 41.642 10.571 58.042 10.57 6.499 0 12.504-.564 18.011-1.669l-15.535 25.043-35.988 1.419c-4.139.163-7.361 3.65-7.198 7.79.159 4.038 3.483 7.204 7.489 7.204.1 0 .2-.002.301-.006l39.967-1.576c2.488-.098 4.765-1.425 6.078-3.541l19.532-31.489 7.778 2.733c4.797 1.687 9.767 2.689 14.759 3.039l2.159 30.81-28.353 22.213c-3.26 2.554-3.832 7.269-1.278 10.528 2.568 3.277 7.294 3.82 10.529 1.279l31.486-24.668c1.961-1.536 3.031-3.944 2.856-6.429l-2.432-34.692c.945-.188 1.884-.399 2.818-.636l18.058 12.817 11.766 33.523-21.47 28.917c-2.47 3.325-1.775 8.023 1.551 10.492 3.293 2.454 8.009 1.795 10.492-1.551l23.844-32.114c1.484-1.999 1.88-4.604 1.056-6.954l-8.412-23.969c2.221.373 4.472.568 6.732.568.141 0 .282-.012.423-.013l10.541 9.003c2.873 2.455 6.007 4.532 9.318 6.227.446 6.606 2.492 12.831 5.894 18.266l-2.678 6.405c-3.346 8.003-3.613 16.724-.828 24.837l-29.198 36.823-100.213-16.205c-9.201-1.48-18.165 2.388-23.384 10.116-5.218 7.729-5.464 17.487-.644 25.469l8.294 13.733c6.654 11.021 16.705 19.477 28.331 24.347l-5.413 2.522c-.073.034-.145.068-.217.104-8.32 4.208-13.29 12.61-12.968 21.93.321 9.319 5.859 17.359 14.451 20.983 11.798 5.137 25.944 11.668 39.016 11.034 19.39 0 38.707-8.558 50.482-23.776.188-.243.361-.498.519-.763l29.173-49.167 7.205-.733c12.934-1.316 24.9-7.313 33.698-16.884l23.669-25.75c7.174-.333 14.222-2.533 20.521-6.584 11.225-7.22 18.152-18.998 19.006-32.317l1.818-28.356c7.63-9.042 10.65-21.585 7.046-33.818zm-384.173-165.924c6.215 0 11.271 5.057 11.271 11.271 0 6.215-5.057 11.271-11.271 11.271s-11.271-5.057-11.271-11.271c0-6.215 5.056-11.271 11.271-11.271zm308.704 45.393c3.488 6.38 3.677 13.726.516 20.153l-16.893 34.349c-1.828 3.717-.296 8.212 3.421 10.04 3.636 1.812 8.205.333 10.04-3.421l16.893-34.349c.214-.435.403-.875.599-1.314l11.929 4.075c8.363 2.856 14.745 9.309 17.51 17.703 2.764 8.395 1.464 17.376-3.566 24.643l-29.402 42.476c-5.32 7.686-13.688 12.784-22.958 13.988-9.271 1.203-18.662-1.588-25.771-7.66l-2.33-1.991c7.548-3.85 13.712-10.016 17.5-17.719l4.162-8.464c1.828-3.717.296-8.212-3.421-10.04-3.717-1.829-8.212-.297-10.04 3.421l-4.162 8.464c-3.168 6.442-9.037 11.164-16.101 12.955-6.947 1.761-14.285.531-20.322-3.358-1.348-1.125-11.907-8.278-13.52-9.557 10.394-6.684 17.941-16.582 21.499-28.355l22.172-73.374c.712-2.355 1.148-4.735 1.347-7.112l23.255 2.638c7.579.859 14.01 5.164 17.643 11.809zm-135.679 83.629c1.222-.861 2.4-1.767 3.515-2.734 13.435-11.663 26.36-38.55 11.742-100.419-.347-2.32-1.457-8.067-4.566-14.725l45.849-3.338c7.36-.543 14.428 2.512 18.938 8.147 4.136 5.166 5.445 11.642 3.595 17.767l-22.172 73.374c-2.893 9.574-9.557 17.421-18.765 22.094-11.928 6.218-26.005 5.033-38.136-.166zm56.363 222.442c-11.131 14.028-35.252 23.054-56.752 13.986l-14.783-6.232c-3.191-1.347-5.169-4.218-5.288-7.68-.119-3.428 1.619-6.403 4.654-7.979l39.01-18.181c3.755-1.75 5.38-6.212 3.63-9.966-1.749-3.754-6.212-5.379-9.966-3.63l-11.512 5.365c-15.574-.304-29.632-8.389-37.701-21.75l-8.294-13.733c-1.791-2.966-1.703-6.45.235-9.32 1.938-2.873 5.143-4.259 8.558-3.702l92.575 14.97c-1.253 2.733-1.863 5.655-1.828 8.581l-10.407 4.851c-3.754 1.75-5.379 6.212-3.629 9.967 1.272 2.729 3.978 4.333 6.803 4.333 2.368.301 10.748-4.457 12.973-5.276 3.885 4.031 9.334 6.338 15.035 6.106zm71.687-68.865c-6.312 6.865-14.896 11.167-24.174 12.111l-24.188 2.461c-2.997.314-4.513-1.665-5.026-2.526-.501-.839-1.476-3.019.042-5.436l33.673-42.466c3.439 3.43 7.591 6.134 12.283 7.92l24.498 9.323zm47.119-34.8c-7.177 4.614-15.867 5.521-23.839 2.487l-25.334-9.642c-5.121-1.949-9.132-5.796-11.294-10.831-2.23-5.174-2.174-10.924.103-16.072 6.714 4.594 14.421 6.962 22.272 6.962 4.056 0 8.148-.63 12.161-1.909l37.529-7.701c.555-.107 1.086-.307 1.613-.5l-1.061 16.545c-.545 8.515-4.975 16.045-12.15 20.661z"/></svg>