<?xml version="1.0" encoding="UTF-8"?>
<svg xmlns="http://www.w3.org/2000/svg" id="Layer_1" data-name="Layer 1" viewBox="0 0 64 64" width="512" height="512"><path d="M37,61c-8.756,0-17.276-2.863-21.707-7.293a82.744,82.744,0,0,1-5.545-6.324c-1.7-2.077-3.3-4.04-4.195-4.488-1.337-.669-3.512-.188-4.237.054A1,1,0,0,1,0,42c0-.409.2-4,7-4,3.229,0,5.333,2.14,7.366,4.21a15.4,15.4,0,0,0,5,3.861c1.1.44,1.955.829,2.709,1.173C24.731,48.45,25.941,49,32,49c6.279,0,9.213-3.246,11.8-6.11.511-.565,1-1.107,1.491-1.6,5.132-5.13,9.04-3.375,11.414-1,4.012,4.012,4.815,8.6,2,11.414a22.1,22.1,0,0,1-3.152,2.446,1,1,0,0,1-1.11-1.664,20.52,20.52,0,0,0,2.848-2.2,3.808,3.808,0,0,0,.979-3.709,10.451,10.451,0,0,0-2.979-4.877,4.7,4.7,0,0,0-4.3-1.661,8.719,8.719,0,0,0-4.287,2.661c-.468.468-.935.985-1.422,1.524C42.56,47.247,39.167,51,32,51c-6.492,0-8-.687-10.748-1.936-.734-.334-1.567-.713-2.623-1.135a17.158,17.158,0,0,1-5.689-4.317C11.036,41.674,9.391,40,7,40a9.415,9.415,0,0,0-3.631.57,6.327,6.327,0,0,1,3.078.535c1.282.641,2.779,2.475,4.851,5.014a81.6,81.6,0,0,0,5.409,6.174C20.781,56.367,28.747,59,37,59c3.885,0,9.174-1.72,14.51-4.718a1,1,0,1,1,.98,1.743C49.184,57.883,42.773,61,37,61Z"/><path d="M32,55a1,1,0,0,1,0-2c8.056,0,12.1-4.47,14.769-7.428l.091-.1c.432-.477.846-.935,1.261-1.35C49.964,42.278,50.639,42,52,42c1.279,0,2.024,1.206,2.47,1.926a3.445,3.445,0,0,0,.247.377,1.025,1.025,0,0,1-.054,1.407.977.977,0,0,1-1.37,0,4.07,4.07,0,0,1-.524-.73c-.155-.251-.568-.918-.784-.979-.68,0-.914,0-2.45,1.537-.392.392-.783.825-1.19,1.276l-.092.1C45.343,50.133,40.944,55,32,55Z"/><path d="M59.9,45.447l-1.79-.894A8.916,8.916,0,0,0,59,42a4.489,4.489,0,0,0-2.447-3.1,1.023,1.023,0,0,0-1.2.03,1.831,1.831,0,0,0-.455.522l-1.79-.894A3.15,3.15,0,0,1,57.447,37.1,6.361,6.361,0,0,1,61,42,10.217,10.217,0,0,1,59.9,45.447Z"/><path d="M59,40a1,1,0,0,1-.6-1.8c.037-.027,3.6-2.761,3.6-6.2,0-2.445-.724-3.31-.731-3.318a1.017,1.017,0,0,1,.062-1.4.985.985,0,0,1,1.376.011C62.923,27.509,64,28.75,64,32c0,4.449-4.221,7.665-4.4,7.8A.993.993,0,0,1,59,40Z"/><path d="M40.985,43a1,1,0,0,1-.7-1.717C42.139,39.485,43,36.854,43,33a25.1,25.1,0,0,0-.282-3.846,1,1,0,0,1,1.976-.308A27.077,27.077,0,0,1,45,33c0,4.431-1.055,7.518-3.317,9.717A1,1,0,0,1,40.985,43Z"/><path d="M23,46a1,1,0,0,1-.338-.059C13.033,42.489,13.993,31.022,14,30.907c0-3.538,1.533-5.712,3.16-8.013.328-.464.666-.942,1-1.449,1.868-2.8,2.842-7.593,2.852-7.641A1,1,0,0,1,22,13a3.086,3.086,0,0,1,2.876,2.721,6.413,6.413,0,0,0,2.812-2.179c1.562-2.125,2.008-5.279,1.326-9.377A1,1,0,0,1,30.14,3.01c.282.04,6.931,1.042,8.808,6.674,1.308,3.921.279,6.315-.718,8.629A11.278,11.278,0,0,0,37,23a.915.915,0,0,0,1,1c.6,0,1-1.806,1-3a1,1,0,0,1,1.6-.8,11.392,11.392,0,0,1,3.351,5.49,1,1,0,0,1-1.9.62A12.866,12.866,0,0,0,40.7,23.38C40.3,24.834,39.457,26,38,26a2.916,2.916,0,0,1-3-3,13.023,13.023,0,0,1,1.394-5.477c.924-2.15,1.723-4.008.658-7.207C36.015,7.207,32.969,5.85,31.19,5.31c.436,3.983-.21,7.161-1.924,9.461a8.2,8.2,0,0,1-5.142,3.221A1,1,0,0,1,23,17a2.892,2.892,0,0,0-.32-1.509,24.962,24.962,0,0,1-2.848,7.064c-.349.522-.7,1.015-1.035,1.493C17.234,26.258,16,28,16,31c-.037.452-.676,8.344,5.2,12.027A24.847,24.847,0,0,1,21,39c0-3.234,1.831-5.023,3.446-6.6a8.084,8.084,0,0,0,2.584-3.64,8.357,8.357,0,0,0-.9-5.268A1,1,0,0,1,27,22a8.071,8.071,0,0,1,6.9,4.553c1.23,2.461.252,4.9-.533,6.86-.75,1.869-1.175,3.064-.53,4.032.171.256.546.713.72.609a2.514,2.514,0,0,0,.553-2.607,1,1,0,0,1,1.211-1.4C35.467,34.1,39,35.355,39,42c0,.11,0,.212.005.307a8.579,8.579,0,0,0,1.283-1.024,1,1,0,0,1,1.4,1.434,11.606,11.606,0,0,1-3.261,2.19,1,1,0,0,1-1.4-1.1,3.021,3.021,0,0,0,.017-.87C37.02,42.681,37,42.384,37,42a9.643,9.643,0,0,0-.889-4.507,3.678,3.678,0,0,1-1.555,2.291c-.433.252-1.96.911-3.388-1.229-1.263-1.894-.449-3.924.338-5.887.734-1.833,1.428-3.564.6-5.221a6.093,6.093,0,0,0-3.462-3.11,9.054,9.054,0,0,1,.327,4.907,9.728,9.728,0,0,1-3.126,4.584C24.318,35.32,23,36.608,23,39c0,2.775.037,4.277.826,5.437A1,1,0,0,1,23,46Z"/></svg>
