<svg id="Capa_1" enable-background="new 0 0 511.453 511.453" height="512" viewBox="0 0 511.453 511.453" width="512" xmlns="http://www.w3.org/2000/svg"><g><path d="m98.204 189.42c1.54 0 3.093-.473 4.429-1.453l9.663-7.085c8.188-6.004 14.361-14.219 17.851-23.757 10.662-29.143 33.319-52.423 62.161-63.872l12.485-4.956c7.163 20.982 27.057 36.119 50.433 36.119s43.271-15.137 50.433-36.119l12.485 4.956c5.677 2.254 11.23 5.026 16.505 8.241 1.219.743 2.565 1.096 3.896 1.096 2.53 0 4.999-1.28 6.412-3.598 2.155-3.537 1.035-8.152-2.502-10.308-5.997-3.654-12.313-6.807-18.776-9.373l-15.219-6.041c.028-.711.054-1.424.054-2.142 0-21.651-12.987-40.314-31.573-48.645 1.798-2.699 3.876-5.24 6.221-7.585l2.096-2.096c2.929-2.929 2.929-7.678 0-10.606-2.929-2.929-7.678-2.929-10.606 0l-2.096 2.096c-4.218 4.218-7.76 8.927-10.608 13.987-2.203-.279-4.443-.439-6.721-.439-29.383 0-53.288 23.905-53.288 53.288 0 .718.026 1.43.054 2.142l-15.219 6.041c-32.811 13.024-58.584 39.507-70.714 72.659-2.47 6.751-6.839 12.565-12.634 16.815l-9.663 7.086c-3.34 2.449-4.063 7.143-1.613 10.483 1.47 2.004 3.746 3.066 6.054 3.066zm157.022-156.58c.254 0 .504.014.757.019-1.465 5.425-2.238 11.074-2.238 16.845v13.39c0 4.142 3.358 7.5 7.5 7.5s7.5-3.358 7.5-7.5v-13.39c0-4.671.658-9.238 1.908-13.608 13.448 5.946 22.861 19.406 22.861 35.031 0 21.112-17.176 38.288-38.288 38.288s-38.288-17.176-38.288-38.288c.001-21.111 17.177-38.287 38.288-38.287z"/><path d="m479.53 304.538c0-17.448-9.305-33.098-23.938-41.533 3.514-5.676 5.964-12.104 7.049-19.029 2.982-19.037-4.818-37.941-20.357-49.336l-35.256-25.855c-5.796-4.25-10.165-10.063-12.634-16.814-5.672-15.504-14.235-29.51-25.452-41.628-2.813-3.04-7.558-3.223-10.599-.41-3.04 2.813-3.224 7.559-.41 10.599 9.86 10.653 17.388 22.965 22.374 36.594 3.49 9.538 9.663 17.752 17.851 23.756l35.255 25.854c10.998 8.066 16.519 21.446 14.409 34.919-2.697 17.221-17.299 30.128-34.721 30.69l-11.733.378c-15.016.485-26.779 12.634-26.779 27.657v70.566c0 8.502-6.917 15.418-15.418 15.418s-15.419-6.917-15.419-15.418v-58.609c0-4.979-1.66-9.903-4.675-13.866-3.745-4.921-9.185-8.065-15.318-8.853-6.123-.789-12.168.875-17.024 4.68-.32.251-.638.503-.953.757-14.275 11.49-32.229 17.818-50.555 17.818s-36.279-6.328-50.555-17.818c-16.065-12.932-36.264-20.419-56.877-21.084l-50.442-1.627c-17.421-.562-32.024-13.469-34.721-30.69-2.095-13.375 3.36-26.703 14.235-34.78 3.325-2.47 4.019-7.168 1.549-10.493s-7.168-4.018-10.493-1.549c-15.364 11.413-23.07 30.243-20.11 49.144 1.113 7.107 3.67 13.688 7.334 19.472-14.198 8.553-23.222 24.035-23.222 41.09 0 20.091 12.416 37.327 29.973 44.465l42.35 130.484c6.206 19.12 23.88 31.966 43.982 31.966h213.996c20.102 0 37.776-12.846 43.982-31.966l16.355-50.393c1.279-3.94-.879-8.17-4.818-9.449-3.942-1.278-8.17.879-9.449 4.818l-16.355 50.393c-4.192 12.917-16.134 21.597-29.714 21.597h-20.376l17.721-95.099c16.589-.215 30.019-13.769 30.019-30.408v-18.422h41.955c.034 0 .067-.002.1-.003l-13.464 41.484c-1.279 3.94.879 8.17 4.818 9.449.77.25 1.55.368 2.317.368 3.163 0 6.103-2.016 7.132-5.187l15.962-49.181c18.161-6.84 31.119-24.39 31.119-44.916zm-432.606 0c0-12.621 7.197-23.977 18.273-29.498 8.62 7.367 19.67 11.91 31.673 12.298l50.442 1.627c17.379.561 34.41 6.874 47.955 17.777 16.931 13.628 38.225 21.133 59.96 21.133s43.029-7.505 59.961-21.134c.266-.214.533-.426.8-.635 1.668-1.309 3.751-1.879 5.858-1.608 2.12.272 3.999 1.359 5.292 3.059 1.04 1.366 1.612 3.065 1.612 4.783v25.187h-248.84c-18.189-.003-32.986-14.8-32.986-32.989zm186.289 191.915-10.027-143.929h64.082l-10.027 143.929zm-49.35 0-26.819-143.929h51.106l10.027 143.929zm-65.349-21.596-39.713-122.361c.37.008.737.028 1.108.028h61.876l26.819 143.929h-20.377c-13.579 0-25.521-8.679-29.713-21.596zm173.764 21.596 10.027-143.929h26.446v18.422c0 11.645 6.581 21.777 16.216 26.888l-18.377 98.619zm139.265-158.929h-41.955v-37.144c0-6.88 5.387-12.443 12.262-12.665l11.733-.378c12.174-.393 23.37-5.057 32.043-12.611 11.453 5.386 18.903 16.873 18.903 29.811.001 18.19-14.797 32.987-32.986 32.987z"/><path d="m188.659 168.592c-3.169-2.669-7.9-2.262-10.568.906s-2.263 7.9.906 10.568l9.46 7.966c1.407 1.185 3.122 1.763 4.827 1.763 2.136 0 4.257-.908 5.741-2.669 2.668-3.168 2.263-7.9-.906-10.568z"/><path d="m248.71 164.641-5.674 9.958c-2.05 3.599-.795 8.179 2.804 10.229 1.172.667 2.447.985 3.706.985 2.607 0 5.14-1.361 6.523-3.789l5.674-9.958c2.05-3.599.795-8.179-2.804-10.229s-8.177-.795-10.229 2.804z"/><path d="m321.749 154.942c4.142 0 7.5-3.358 7.5-7.5v-8.465c0-4.142-3.358-7.5-7.5-7.5s-7.5 3.358-7.5 7.5v8.465c0 4.142 3.358 7.5 7.5 7.5z"/><path d="m313.382 183.253-8.962-9.958c-2.771-3.08-7.513-3.329-10.592-.558s-3.329 7.513-.558 10.592l8.962 9.958c1.481 1.646 3.525 2.483 5.577 2.483 1.788 0 3.582-.635 5.015-1.925 3.08-2.771 3.329-7.513.558-10.592z"/><path d="m301.014 228.664h-14.119c-4.142 0-7.5 3.358-7.5 7.5s3.358 7.5 7.5 7.5h14.119c4.142 0 7.5-3.358 7.5-7.5s-3.358-7.5-7.5-7.5z"/><path d="m220.192 218.16-5.536 7.469c-2.466 3.328-1.769 8.025 1.559 10.492 1.343.995 2.908 1.475 4.46 1.475 2.294 0 4.56-1.049 6.031-3.034l5.536-7.469c2.466-3.328 1.769-8.025-1.559-10.492s-8.024-1.769-10.491 1.559z"/><path d="m151.868 213.7c-3.557-2.126-8.161-.969-10.287 2.586s-.968 8.16 2.586 10.287l8.807 5.268c1.207.721 2.533 1.064 3.843 1.064 2.551 0 5.039-1.302 6.444-3.651 2.126-3.555.968-8.16-2.586-10.287z"/><path d="m351.965 221.216c1.153.641 2.403.945 3.635.945 2.636 0 5.192-1.392 6.563-3.859l4.979-8.962c2.012-3.621.707-8.187-2.914-10.198-3.62-2.012-8.187-.708-10.198 2.914l-4.979 8.962c-2.012 3.62-.707 8.186 2.914 10.198z"/></g></svg>