<svg id="Icons" height="512" viewBox="0 0 60 60" width="512" xmlns="http://www.w3.org/2000/svg"><path d="m10.651 23c.449 6.1 4.189 11.886 6.538 14.957-2.606 1.172-4.122 3.68-3.522 6.046q1 4.271 2.013 8.554a5.684 5.684 0 0 0 5.5 4.229 7.8 7.8 0 0 0 1.269-.124 9.424 9.424 0 0 0 7.551 3.338 9.424 9.424 0 0 0 7.546-3.343c3.589.52 6.112-1.47 6.778-4.118q1.014-4.266 2.007-8.533c.6-2.378-.916-4.885-3.518-6.056 2.349-3.073 6.087-8.85 6.536-14.95 3.548.118 6.894-2 9.032-4.843 2.631-3.5 1.483-8.99.563-11.95a3.157 3.157 0 0 0 -2.888-2.243c-3.064-.13-8.584.183-11.217 3.7a13.277 13.277 0 0 0 -1.788 3.215 23.992 23.992 0 0 0 -4.834-2.238 34.987 34.987 0 0 0 -5.765-1.441 15.162 15.162 0 0 0 -4.9 0 34.925 34.925 0 0 0 -5.762 1.431 24.174 24.174 0 0 0 -4.839 2.236 13.259 13.259 0 0 0 -1.785-3.209c-2.635-3.519-8.158-3.829-11.224-3.7a3.158 3.158 0 0 0 -2.887 2.242c-.919 2.959-2.067 8.446.564 11.948 2.135 2.852 5.481 4.965 9.032 4.852zm1.069-6.6c-.1.217-.187.443-.275.666a6.9 6.9 0 0 1 -5.028-2.516c-.417-.55-.608-2.187-.141-4.573 2.27.157 3.679.737 4.1 1.294a6.667 6.667 0 0 1 1.344 5.129zm13.2 39.954a50.03 50.03 0 0 1 10.156 0 8.175 8.175 0 0 1 -5.076 1.646 8.169 8.169 0 0 1 -5.078-1.65zm19.47-12.831-.005.019q-1 4.267-2 8.522a3.682 3.682 0 0 1 -4.148 2.67 52.669 52.669 0 0 0 -16.475 0 3.676 3.676 0 0 1 -4.135-2.659c-.677-2.845-1.342-5.69-2.013-8.554-.408-1.608.943-3.368 3.084-4.007 1.715-.526 7.754-1 11.31-1 3.429 0 9.459.448 11.319 1 2.124.642 3.473 2.401 3.063 4.009zm5.241-32.254c.414-.555 1.823-1.135 4.093-1.292.467 2.386.275 4.02-.144 4.572a6.9 6.9 0 0 1 -5.024 2.513c-.089-.223-.173-.448-.276-.666a6.667 6.667 0 0 1 1.351-5.127zm-3.192-2.41c2.162-2.888 7.38-2.989 9.527-2.9a1.174 1.174 0 0 1 1.069.838c.648 2.089 1.922 7.259-.253 10.155a9.361 9.361 0 0 1 -7.425 4.03 14.386 14.386 0 0 0 -.233-1.957 8.773 8.773 0 0 0 6.053-3.27c1.382-1.824.68-5.537.315-7.049a1 1 0 0 0 -.992-.766c-3.149.069-5.507.845-6.467 2.129a9.076 9.076 0 0 0 -1.633 3.557 14.119 14.119 0 0 0 -1.65-1.542 11.193 11.193 0 0 1 1.689-3.225zm-24 1.666a32.9 32.9 0 0 1 5.435-1.348 13.106 13.106 0 0 1 4.257 0 32.958 32.958 0 0 1 5.438 1.349c4.333 1.482 8.5 4.082 9.537 8.523a12.513 12.513 0 0 1 .3 2.732c.009 6.487-4.7 13.1-6.656 15.57a69.988 69.988 0 0 0 -21.487 0c-1.963-2.469-6.672-9.083-6.663-15.571a12.49 12.49 0 0 1 .294-2.722c1.05-4.482 5.227-7.058 9.543-8.533zm-19.474-3.725a1.172 1.172 0 0 1 1.063-.839c2.142-.091 7.371.012 9.535 2.9a11.219 11.219 0 0 1 1.687 3.216 13.847 13.847 0 0 0 -1.65 1.542 9.083 9.083 0 0 0 -1.63-3.548c-.961-1.286-3.319-2.062-6.47-2.131a.969.969 0 0 0 -.994.765c-.365 1.512-1.067 5.225.312 7.045a8.779 8.779 0 0 0 6.056 3.274 14.311 14.311 0 0 0 -.233 1.957 9.358 9.358 0 0 1 -7.425-4.03c-2.173-2.896-.899-8.066-.251-10.151z"/><path d="m17 25.5c0 1.962 1.977 3.5 4.5 3.5s4.5-1.538 4.5-3.5a1 1 0 0 0 -2 0c0 .709-1.027 1.5-2.5 1.5s-2.5-.791-2.5-1.5a1 1 0 0 0 -2 0z"/><path d="m38.5 29c2.523 0 4.5-1.538 4.5-3.5a1 1 0 0 0 -2 0c0 .709-1.027 1.5-2.5 1.5s-2.5-.791-2.5-1.5a1 1 0 0 0 -2 0c0 1.962 1.977 3.5 4.5 3.5z"/><path d="m20.682 21.731c.008-.007.873-.731 3.318-.731a1 1 0 0 0 0-2c-3.25 0-4.491 1.077-4.707 1.293a.983.983 0 0 0 -.011 1.375 1.016 1.016 0 0 0 1.4.063z"/><path d="m36 21c2.374 0 3.258.683 3.315.729a1 1 0 0 0 1.392-1.436c-.216-.216-1.457-1.293-4.707-1.293a1 1 0 0 0 0 2z"/><path d="m35 42c-1.682 0-3 1.757-3 4s1.318 4 3 4 3-1.757 3-4-1.318-4-3-4zm0 6c-.408 0-1-.779-1-2s.592-2 1-2 1 .779 1 2-.592 2-1 2z"/><path d="m25.019 42c-1.672 0-2.981 1.757-2.981 4s1.309 4 2.981 4 2.981-1.757 2.981-4-1.31-4-2.981-4zm0 6c-.391 0-.981-.8-.981-2s.59-2 .981-2 .981.8.981 2-.591 2-.981 2z"/></svg>