<?xml version="1.0"?>
<svg xmlns="http://www.w3.org/2000/svg" xmlns:xlink="http://www.w3.org/1999/xlink" xmlns:svgjs="http://svgjs.com/svgjs" version="1.1" width="16" height="16" x="0" y="0" viewBox="0 0 512 512" style="enable-background:new 0 0 512 512" xml:space="preserve"><g><g xmlns="http://www.w3.org/2000/svg" id="_x30_6_Wine"><g><path d="m300.141 490.103 55.143 16.303h-198.568l55.143-16.303c17.955-5.274 30.262-21.791 30.262-40.491v-108.44c0-23.364-12.983-45.207-34.137-55.125-38.479-18.04-65.12-57.116-65.12-102.451 0-37.135 17.848-118.224 45.446-178.002h135.379c27.598 59.778 45.446 140.867 45.446 178.002 0 45.341-26.615 84.422-65.114 102.459-21.159 9.913-34.143 31.763-34.143 55.129v108.43c.001 18.698 12.308 35.215 30.263 40.489z" fill="#f3f7fa" data-original="#f3f7fa"/><path d="m369.136 183.595c0 62.495-50.614 113.109-113.163 113.109-62.442 0-113.109-50.614-113.109-113.109 0-12.467 2.025-29.942 5.807-49.921 20.192 4.049 40.118 11.242 60.63 9.963 39.745-2.451 73.31-36.016 113.109-34.95 13.106.32 25.52 4.475 37.774 9.324 5.755 26.424 8.952 49.92 8.952 65.584z" fill="#fff6a1" data-original="#f3baaf"/><path d="m356.794 501.297-55.141-16.303c-.003 0-.008-.003-.01-.003-15.565-4.573-26.436-19.123-26.436-35.38v-108.429c0-21.714 12.198-41.46 31.074-50.302 41.418-19.407 68.182-61.519 68.182-107.287 0-38.988-18.457-120.713-45.937-180.232-.869-1.889-2.758-3.096-4.836-3.096h-135.38c-2.079 0-3.967 1.207-4.836 3.096-27.479 59.511-45.937 141.239-45.937 180.232 0 45.749 26.764 87.857 68.187 107.277 18.874 8.85 31.069 28.593 31.069 50.302v108.439c0 16.257-10.872 30.807-26.446 35.383l-55.143 16.303c-2.539.752-4.142 3.252-3.762 5.871.38 2.622 2.625 4.566 5.273 4.566h198.567c2.648 0 4.893-1.943 5.273-4.566.38-2.619-1.222-5.119-3.761-5.871zm-165.058-490.376h128.528c13.695 30.393 24.966 66.141 32.623 98.665-35.972-12.563-56.753-4.814-92.033 11.705-17.487 8.189-34.004 15.924-51.886 17.027-17.798 1.09-35-4.494-54.198-8.765 7.344-37.234 20.397-81.864 36.966-118.632zm1.79 490.158 19.834-5.864c20.073-5.898 34.09-24.651 34.09-45.604v-108.439c0-25.822-14.602-49.355-37.204-59.948-37.695-17.674-62.053-55.997-62.053-97.63 0-11.331 1.637-26.436 4.625-43.561 19.134 4.281 37.466 10.132 56.811 8.92 19.901-1.228 38.122-9.761 55.744-18.013 37.25-17.442 53.708-23.07 90.288-8.969 5.206 24.526 8.146 46.453 8.146 61.623 0 41.652-24.355 79.977-62.048 97.636-22.604 10.591-37.209 34.123-37.209 59.953v108.429c0 20.952 14.017 39.706 34.09 45.604l19.831 5.864h-124.945z" fill="#333" data-original="#81889a"/></g></g></g></svg>
