<svg id="Layer_1" height="512" viewBox="0 0 512 512" width="512" xmlns="http://www.w3.org/2000/svg" data-name="Layer 1"><path d="m498.292 132.968a27.137 27.137 0 0 0 -27.418 0l-78.074 45.077v-17.409a68.529 68.529 0 0 0 -68.451-68.451h-255.899a68.528 68.528 0 0 0 -68.45 68.451v190.728a68.528 68.528 0 0 0 68.45 68.451h255.894a68.529 68.529 0 0 0 68.456-68.451v-17.41l78.079 45.079a27.418 27.418 0 0 0 41.121-23.744v-198.578a27.137 27.137 0 0 0 -13.708-23.743zm-137.5 218.4a36.492 36.492 0 0 1 -36.451 36.451h-255.891a36.492 36.492 0 0 1 -36.45-36.455v-190.728a36.492 36.492 0 0 1 36.45-36.451h255.894a36.492 36.492 0 0 1 36.456 36.451zm119.208-4.016-87.2-50.352v-82l87.2-50.352zm-200.4-91.352a16 16 0 0 1 -16 16h-51.2v51.2a16 16 0 0 1 -32 0v-51.2h-51.2a16 16 0 0 1 0-32h51.2v-51.2a16 16 0 0 1 32 0v51.2h51.2a16 16 0 0 1 16 16z"/></svg>