<?xml version="1.0" encoding="iso-8859-1"?>
<svg version="1.1" xmlns="http://www.w3.org/2000/svg" xmlns:xlink="http://www.w3.org/1999/xlink" x="0px" y="0px"
	 viewBox="0 0 512 512" style="enable-background:new 0 0 512 512;" xml:space="preserve">
<path fill="#891826" d="M358.4,26.483c-39.396,0-75.211,14.958-102.4,39.342c-27.189-24.384-63.004-39.342-102.4-39.342
	C68.769,26.483,0,95.252,0,180.083c0,105.71,114.759,233.71,256,305.435c141.241-71.724,256-199.724,256-305.434
	C512,95.252,443.231,26.483,358.4,26.483z"/>
<path fill="#7a1722" d="M105.931,206.667c0-78.593,42.967-145.25,102.792-169.88c-17.1-6.628-35.668-10.304-55.123-10.304
	C68.769,26.483,0,95.252,0,180.083c0,105.71,114.759,233.71,256,305.435c0.116-0.06,0.231-0.122,0.348-0.182
	C167.705,402.614,105.931,297.622,105.931,206.667z"/>
<path fill="#9c3842" d="M358.4,26.483c-3.357,0-6.646,0.256-9.948,0.47c66.596,4.84,119.41,71.443,119.41,153.13
	c0,105.71-94.973,233.71-211.862,305.435c141.241-71.724,256-199.724,256-305.434C512,95.252,443.231,26.483,358.4,26.483z"/>
<circle fill="#9c3842" cx="414.897" cy="167.724" r="26.483"/>
<circle fill="#9c3842" cx="401.655" cy="110.345" r="13.241"/>
</svg>
