<svg id="Capa_1" enable-background="new 0 0 511.985 511.985" height="512" viewBox="0 0 511.985 511.985" width="512" xmlns="http://www.w3.org/2000/svg"><path id="XMLID_1656_" d="m450.365 186.776c7.3-11.387 9.479-25.41 5.978-38.475-3.501-13.064-12.399-24.12-24.414-30.33-9.75-5.041-15.72-15.381-15.209-26.344.628-13.511-4.496-26.745-14.06-36.31-9.564-9.563-22.803-14.682-36.309-14.06-10.961.51-21.304-5.461-26.344-15.209-6.211-12.016-17.267-20.914-30.331-24.414-13.064-3.502-27.088-1.322-38.474 5.978-9.24 5.922-21.181 5.924-30.419 0-11.386-7.299-25.411-9.479-38.473-5.978-13.065 3.5-24.12 12.398-30.332 24.414-5.04 9.749-15.394 15.724-26.344 15.209-13.51-.62-26.744 4.496-36.309 14.06-9.564 9.564-14.688 22.799-14.06 36.31.51 10.963-5.46 21.303-15.209 26.344-12.015 6.21-20.914 17.266-24.415 30.33-3.5 13.064-1.322 27.088 5.978 38.475 5.924 9.239 5.924 21.179 0 30.418-7.3 11.387-9.479 25.41-5.978 38.475 3.501 13.064 12.399 24.12 24.414 30.33 9.75 5.041 15.72 15.381 15.209 26.344-.628 13.511 4.496 26.745 14.06 36.31 9.333 9.333 22.163 14.418 35.333 14.079l-49.799 86.254c-2.022 3.503-1.735 7.879.727 11.088 2.462 3.208 6.615 4.615 10.522 3.571l55.91-14.981 14.983 55.909c1.047 3.907 4.344 6.799 8.354 7.326.438.058.875.086 1.308.086 3.538 0 6.856-1.88 8.657-5l60.673-105.089 60.673 105.089c1.802 3.12 5.119 5 8.657 5 .434 0 .871-.028 1.308-.086 4.01-.527 7.307-3.419 8.354-7.326l14.981-55.91 55.91 14.981c3.906 1.047 8.059-.362 10.522-3.571 2.462-3.209 2.749-7.585.727-11.088l-49.798-86.254c13.172.346 26-4.747 35.333-14.079 9.564-9.564 14.688-22.799 14.06-36.31-.51-10.963 5.46-21.303 15.209-26.344 12.015-6.21 20.914-17.266 24.415-30.33 3.5-13.064 1.322-27.088-5.978-38.475-5.924-9.238-5.924-21.177 0-30.417zm-260.295 289.301-11.321-42.249c-.687-2.563-2.362-4.746-4.659-6.072-2.296-1.326-5.024-1.686-7.588-.999l-42.25 11.321 40.064-69.394c3.135 2.452 5.771 5.579 7.662 9.237 6.211 12.016 17.267 20.914 30.331 24.414 4.089 1.096 8.272 1.635 12.438 1.635 6.612 0 13.181-1.365 19.27-4.012zm155.413-49.32c-2.564-.688-5.292-.328-7.588.999-2.297 1.326-3.973 3.51-4.659 6.072l-11.321 42.249-43.944-76.114c9.925 4.314 21.129 5.206 31.705 2.371 13.065-3.5 24.12-12.398 30.332-24.414 1.89-3.656 4.529-6.779 7.667-9.228l40.059 69.385zm88.045-198.768c4.333 6.758 5.574 14.75 3.496 22.504s-7.149 14.054-14.28 17.74c-16.668 8.617-26.875 26.296-26.003 45.039.373 8.019-2.547 15.561-8.224 21.237-5.676 5.677-13.227 8.604-21.236 8.224-18.74-.85-36.423 9.336-45.04 26.003-3.687 7.132-9.987 12.203-17.741 14.28-7.753 2.077-15.745.836-22.503-3.497-7.646-4.902-16.374-7.423-25.137-7.58-.127-.011-.253-.019-.38-.025-.157-.008-.314-.01-.472-.011-.175 0-.35.003-.525.012-.117.006-.233.014-.349.024-8.765.156-17.496 2.677-25.145 7.581-6.757 4.331-14.747 5.574-22.502 3.496-7.754-2.077-14.054-7.148-17.741-14.279-8.275-16.008-24.907-26.056-42.814-26.056-.74 0-1.482.018-2.226.052-8.017.381-15.561-2.548-21.236-8.224-5.677-5.677-8.597-13.219-8.224-21.237.872-18.743-9.335-36.422-26.003-45.04-7.131-3.686-12.202-9.985-14.28-17.739s-.836-15.746 3.496-22.504c10.128-15.797 10.128-36.211 0-52.008-4.333-6.758-5.574-14.75-3.496-22.504s7.149-14.054 14.28-17.74c16.668-8.617 26.875-26.296 26.003-45.039-.373-8.019 2.547-15.561 8.224-21.237 5.676-5.677 13.229-8.6 21.236-8.224 18.747.862 36.423-9.335 45.04-26.003 3.687-7.132 9.987-12.203 17.741-14.28 7.752-2.077 15.746-.836 22.503 3.497 15.797 10.127 36.21 10.127 52.007 0 0 0 0 0 .001-.001 6.756-4.331 14.748-5.574 22.502-3.496 7.754 2.077 14.054 7.148 17.741 14.279 8.617 16.67 26.302 26.876 45.04 26.004 8.019-.376 15.561 2.548 21.236 8.224 5.677 5.677 8.597 13.219 8.224 21.237-.872 18.743 9.335 36.422 26.003 45.04 7.131 3.686 12.202 9.985 14.28 17.739s.836 15.746-3.496 22.504c-10.128 15.797-10.128 36.211 0 52.008z"/><path id="XMLID_1708_" d="m167.89 262.745c0 10.258 8.346 18.604 18.604 18.604h29.599c5.575 0 10.572-2.477 13.985-6.375 9.489 4.186 19.759 6.375 30.254 6.375h51.278c17.913 0 32.486-14.573 32.486-32.485v-43.028c0-17.913-14.573-32.486-32.486-32.486h-12.87l5.077-14.882c4.729-13.862-2.623-29.21-16.387-34.213-12.204-4.438-25.887.44-32.535 11.599-7.047 11.829-16.808 22.043-28.291 29.644-2.993-2.058-6.611-3.268-10.51-3.268h-29.599c-10.259 0-18.604 8.346-18.604 18.604v81.911zm104.186-116.657c1.74-2.921 5.324-4.196 8.521-3.037 3.604 1.31 5.529 5.329 4.291 8.959l-7.34 21.517c-4.638.868-8.151 4.932-8.151 9.822 0 5.522 4.477 10 10 10h5.295c.024 0 .048.003.072.003.025 0 .05-.003.075-.003h26.771c6.885 0 12.486 5.602 12.486 12.486v43.028c0 6.885-5.602 12.485-12.486 12.485h-51.278c-8.986 0-17.749-2.184-25.635-6.341v-70.927l1.221-.776c14.726-9.359 27.229-22.228 36.158-37.216zm-84.186 36.14h26.807v78.622.005.493h-26.807z"/><path id="XMLID_1761_" d="m255.993 53.985c-22.973 0-44.995 5.122-65.452 15.226-4.952 2.445-6.984 8.441-4.539 13.394 2.445 4.95 8.44 6.985 13.394 4.538 17.68-8.73 36.722-13.157 56.597-13.157 70.58 0 128 57.421 128 128s-57.42 128-128 128-128-57.421-128-128c0-19.874 4.427-38.916 13.158-56.597 2.445-4.952.414-10.949-4.539-13.395-4.954-2.442-10.949-.413-13.394 4.539-10.103 20.458-15.225 42.479-15.225 65.452 0 81.607 66.393 148 148 148s148-66.393 148-148-66.393-148-148-148z"/><path id="XMLID_1762_" d="m158.413 114.405c2.63 0 5.21-1.07 7.07-2.93s2.93-4.44 2.93-7.07-1.07-5.21-2.93-7.07c-1.86-1.859-4.44-2.93-7.07-2.93s-5.21 1.07-7.07 2.93-2.93 4.44-2.93 7.07 1.07 5.21 2.93 7.07 4.44 2.93 7.07 2.93z"/></svg>