<svg id="Capa_1" enable-background="new 0 0 512 512" height="512" viewBox="0 0 512 512" width="512" xmlns="http://www.w3.org/2000/svg"><g><g><path d="m206.125 140.31v-74.906c2.536-2.137 4.152-5.332 4.152-8.9v-19.537c0-3.568-1.617-6.762-4.152-8.9v-13.93c0-7.795-6.342-14.137-14.137-14.137h-38.776c-7.795 0-14.137 6.342-14.137 14.137v13.93c-2.536 2.137-4.152 5.332-4.152 8.9v19.537c0 3.568 1.617 6.762 4.152 8.9v74.906c0 72.502-50.729 77.476-50.729 155.687v194.09c0 12.083 9.83 21.914 21.913 21.914h124.683c12.083 0 21.913-9.831 21.913-21.914v-194.09c-.001-77.339-50.73-83.994-50.73-155.687zm-52.05-125.31h37.05v10.324h-37.05zm-4.152 25.324h45.354v12.822h-45.354zm41.202 27.822v46.816h-37.05v-46.816zm-47.397 289.94c.018 4.131 3.372 7.468 7.499 7.468h.033c4.142-.018 7.485-3.39 7.468-7.532l-.212-49.658c-.012-2.69 2.162-4.884 4.863-4.884h78.475v153.597h-77.861c-2.67 0-4.852-2.173-4.863-4.843l-.251-59.016c-.018-4.131-3.372-7.468-7.499-7.468-.011 0-.022 0-.033 0-4.142.018-7.485 3.39-7.468 7.532l.251 59.016c.047 10.906 8.958 19.778 19.863 19.778h77.861v18.01c0 3.813-3.102 6.914-6.913 6.914h-124.682c-3.812 0-6.913-3.102-6.913-6.914v-194.09c0-72.503 50.729-77.476 50.729-155.687v-10.347h37.05v10.347c0 75.191 46.525 81.402 50.483 148.17h-78.228c-11.011 0-19.91 8.935-19.863 19.948z"/><path d="m410.931 485.396c-.001 0-.002-.001-.002-.001l-41.261-14.875c-.14-.05-.283-.084-.424-.132l-.137-62.266c2.865-.853 5.612-2.194 8.088-4.06 5.011-5.665 54.875-28.848 45.224-83.238l-13.841-78.01c-1.286-7.255-7.568-12.521-14.938-12.521h-63.889c-7.37 0-13.652 5.267-14.938 12.521l-13.841 78.011c-9.74 54.904 39.827 77.138 45.224 83.238 2.426 1.828 5.11 3.154 7.911 4.01l.138 62.348c-.14.048-.283.083-.422.134l-41.198 15.06c-5.355 1.959-8.945 7.106-8.933 12.808.016 7.495 6.083 13.578 13.604 13.578h.032l89.015-.197c7.517-.016 13.595-6.114 13.577-13.635-.011-5.704-3.623-10.837-8.989-12.773zm-95.19-161.951 1.537-8.663h11.624c4.143 0 7.5-3.357 7.5-7.5s-3.357-7.5-7.5-7.5h-8.963l9.643-54.349c.015-.082.086-.141.169-.141h63.889c.083 0 .153.059.168.142l9.643 54.348h-39.484c-4.143 0-7.5 3.357-7.5 7.5s3.357 7.5 7.5 7.5h42.146l1.537 8.663c7.867 44.326-33.569 62.146-39.479 68.637-3.813 2.872-9.136 2.87-12.948 0-6.031-6.62-47.388-24.08-39.482-68.637zm9.473 173.537 33.759-12.34c.909-.332 1.864-.498 2.819-.498.943 0 1.888.162 2.786.486l33.812 12.189z"/></g></g></svg>