<svg version="1.1" xmlns="http://www.w3.org/2000/svg" xmlns:xlink="http://www.w3.org/1999/xlink" width="15" height="11" viewBox="0 0 15 11">
<g>
<path  d="M15.000,8.517 C15.000,8.517 14.998,8.517 14.998,8.517 C14.981,9.934 12.839,11.000 10.000,11.000 C7.161,11.000 5.019,9.934 5.002,8.517 C5.002,8.517 5.000,8.517 5.000,8.517 L5.000,4.517 C5.000,4.517 5.002,4.517 5.002,4.517 C5.002,4.511 5.000,4.506 5.000,4.500 C5.000,3.075 7.150,2.000 10.000,2.000 C12.851,2.000 15.000,3.075 15.000,4.500 C15.000,4.506 14.998,4.511 14.998,4.517 C14.998,4.517 15.000,4.517 15.000,4.517 L15.000,8.517 zM10.000,3.000 C7.720,3.000 6.000,3.645 6.000,4.500 C6.000,5.355 7.720,6.000 10.000,6.000 C12.280,6.000 14.000,5.355 14.000,4.500 C14.000,3.645 12.280,3.000 10.000,3.000 zM13.873,6.116 C12.971,6.663 11.596,7.000 10.000,7.000 C8.404,7.000 7.029,6.663 6.127,6.116 C6.047,6.238 6.000,6.366 6.000,6.500 C6.000,7.355 7.720,8.000 10.000,8.000 C12.280,8.000 14.000,7.355 14.000,6.500 C14.000,6.366 13.953,6.238 13.873,6.116 zM13.873,8.116 C12.971,8.663 11.596,9.000 10.000,9.000 C8.404,9.000 7.029,8.663 6.127,8.116 C6.047,8.238 6.000,8.366 6.000,8.500 C6.000,9.355 7.720,10.000 10.000,10.000 C12.280,10.000 14.000,9.355 14.000,8.500 C14.000,8.366 13.953,8.238 13.873,8.116 zM5.000,1.000 C2.720,1.000 1.000,1.645 1.000,2.500 C1.000,3.226 2.243,3.799 4.014,3.956 C4.009,4.004 4.000,4.051 4.000,4.100 C4.000,4.107 4.002,4.113 4.002,4.120 C4.002,4.120 4.000,4.120 4.000,4.120 C4.000,4.120 4.000,4.951 4.000,4.951 C2.834,4.841 1.834,4.544 1.127,4.116 C1.047,4.238 1.000,4.366 1.000,4.500 C1.000,5.224 2.236,5.796 4.000,5.955 C4.000,5.955 4.000,6.951 4.000,6.951 C2.834,6.841 1.834,6.545 1.127,6.116 C1.047,6.238 1.000,6.366 1.000,6.500 C1.000,7.225 2.236,7.796 4.000,7.955 C4.000,7.955 4.000,8.921 4.000,8.921 C4.000,8.921 4.002,8.921 4.002,8.921 C4.002,8.932 4.005,8.943 4.006,8.954 C1.676,8.737 0.017,7.763 0.002,6.517 C0.002,6.517 -0.000,6.517 -0.000,6.517 L-0.000,2.517 C-0.000,2.517 0.002,2.517 0.002,2.517 C0.002,2.511 -0.000,2.506 -0.000,2.500 C-0.000,1.075 2.150,0.000 5.000,0.000 C6.819,0.000 8.349,0.439 9.221,1.125 C8.641,1.160 8.091,1.231 7.583,1.337 C6.896,1.125 6.002,1.000 5.000,1.000 z" fill="#484848" />
</g>
</svg>
