<svg version="1.1" xmlns="http://www.w3.org/2000/svg" xmlns:xlink="http://www.w3.org/1999/xlink" width="15" height="11" viewBox="0 0 15 11">
<g>
<path d="M12.500,4.500 C12.500,3.075 10.351,2.000 7.500,2.000 C4.650,2.000 2.500,3.075 2.500,4.500 C2.500,4.506 2.502,4.511 2.502,4.517 C2.502,4.517 2.500,4.517 2.500,4.517 L2.500,6.517 C2.500,6.517 2.502,6.517 2.502,6.517 C2.519,7.934 4.661,9.000 7.500,9.000 C10.339,9.000 12.481,7.934 12.498,6.517 C12.498,6.517 12.500,6.517 12.500,6.517 L12.500,4.517 C12.500,4.517 12.498,4.517 12.498,4.517 C12.498,4.511 12.500,4.506 12.500,4.500 zM7.500,8.000 C5.220,8.000 3.500,7.355 3.500,6.500 C3.500,6.366 3.547,6.238 3.627,6.116 C4.529,6.663 5.904,7.000 7.500,7.000 C9.096,7.000 10.471,6.663 11.373,6.116 C11.453,6.238 11.500,6.366 11.500,6.500 C11.500,7.355 9.780,8.000 7.500,8.000 zM7.500,6.000 C5.220,6.000 3.500,5.355 3.500,4.500 C3.500,3.645 5.220,3.000 7.500,3.000 C9.780,3.000 11.500,3.645 11.500,4.500 C11.500,5.355 9.780,6.000 7.500,6.000 z" fill="#FFFFFF" />
</g>
</svg>
