<svg id="_x33_0" enable-background="new 0 0 64 64" height="512" viewBox="0 0 64 64" width="512" xmlns="http://www.w3.org/2000/svg"><g><g><g><path d="m61 48c.55 0 1 .45 1 1 0 1.94-.78 3.68-2.05 4.95s-3.01 2.05-4.95 2.05h-46c-3.87 0-7-3.13-7-7 0-.55.45-1 1-1h1 16 4 16 4 16z" fill="#ccd1d9"/></g><g><path d="m17 36h-10c-1.66 0-3 1.34-3 3v9h16v-9c0-1.66-1.34-3-3-3z" fill="#cf9e76"/></g><g><path d="m37 36h-10c-1.66 0-3 1.34-3 3v9h16v-9c0-1.66-1.34-3-3-3z" fill="#cf9e76"/></g><g><path d="m57 36h-10c-1.66 0-3 1.34-3 3v9h16v-9c0-1.66-1.34-3-3-3z" fill="#cf9e76"/></g><g><path d="m54 26.18c-.31-.12-.65-.18-1-.18-1.37 0-2.52.91-2.88 2.17-.04-.03-.08-.07-.12-.1v-10.07h-1c-.55 0-1-.45-1-1v-4c0-.55.45-1 1-1h4c.55 0 1 .45 1 1v13.17z" fill="#ffeaa7"/></g><g><path d="m34 26.17v.01c-.31-.12-.65-.18-1-.18-1.37 0-2.52.91-2.88 2.17-.04-.03-.08-.07-.12-.1v-10.07h-1c-.55 0-1-.45-1-1v-4c0-.55.45-1 1-1h4c.55 0 1 .45 1 1z" fill="#ffeaa7"/></g><g><path d="m14 26.17v.01c-.31-.12-.65-.18-1-.18-1.37 0-2.52.91-2.88 2.17-.04-.03-.08-.07-.12-.1v-10.07h-1c-.55 0-1-.45-1-1v-4c0-.55.45-1 1-1h4c.55 0 1 .45 1 1z" fill="#ffeaa7"/></g><g><path d="m50 32c1.1 0 2 .9 2 2s-.9 2-2 2-2-.9-2-2c0-.02 0-.05 0-.07.04-1.07.92-1.93 2-1.93z" fill="#ff826e"/></g><g><path d="m53 26c.35 0 .69.06 1 .18 1.17.4 2 1.51 2 2.82 0 .39-.07.76-.21 1.1-.44 1.11-1.52 1.9-2.79 1.9-.27 0-.54-.04-.79-.11-1.28-.34-2.21-1.5-2.21-2.89 0-.29.04-.57.12-.83.36-1.26 1.51-2.17 2.88-2.17z" fill="#ff826e"/></g><g><path d="m30 32c1.1 0 2 .9 2 2s-.9 2-2 2-2-.9-2-2c0-.02 0-.05 0-.07.04-1.07.92-1.93 2-1.93z" fill="#ff826e"/></g><g><path d="m34 26.18c1.17.4 2 1.51 2 2.82 0 .39-.07.76-.21 1.1-.44 1.11-1.52 1.9-2.79 1.9-.27 0-.54-.04-.79-.11-1.28-.34-2.21-1.5-2.21-2.89 0-.29.04-.57.12-.83.36-1.26 1.51-2.17 2.88-2.17.35 0 .69.06 1 .18z" fill="#ff826e"/></g><g><path d="m14 26.18c1.17.4 2 1.51 2 2.82 0 .39-.07.76-.21 1.1-.44 1.11-1.52 1.9-2.79 1.9-.27 0-.54-.04-.79-.11-1.28-.34-2.21-1.5-2.21-2.89 0-.29.04-.57.12-.83.36-1.26 1.51-2.17 2.88-2.17.35 0 .69.06 1 .18z" fill="#ff826e"/></g><g><path d="m10 32c1.1 0 2 .9 2 2s-.9 2-2 2-2-.9-2-2c0-.02 0-.05 0-.07.04-1.07.92-1.93 2-1.93z" fill="#ff826e"/></g><g><path d="m55.79 30.1c1.27.35 2.21 1.52 2.21 2.9 0 1.66-1.34 3-3 3s-3-1.34-3-3c0-.39.07-.76.21-1.11.25.07.52.11.79.11 1.27 0 2.35-.79 2.79-1.9z" fill="#fc6e51"/></g><g><path d="m35.79 30.1c1.27.35 2.21 1.52 2.21 2.9 0 1.66-1.34 3-3 3s-3-1.34-3-3c0-.39.07-.76.21-1.11.25.07.52.11.79.11 1.27 0 2.35-.79 2.79-1.9z" fill="#fc6e51"/></g><g><path d="m15.79 30.1c1.27.35 2.21 1.52 2.21 2.9 0 1.66-1.34 3-3 3s-3-1.34-3-3c0-.39.07-.76.21-1.11.25.07.52.11.79.11 1.27 0 2.35-.79 2.79-1.9z" fill="#fc6e51"/></g><g><path d="m52 33c0 1.66 1.34 3 3 3h-5c1.1 0 2-.9 2-2s-.9-2-2-2c-1.08 0-1.96.86-2 1.93-3.39-.49-6-3.4-6-6.93v-1h2.17c2.13 0 4.19.73 5.83 2.07.04.03.08.07.12.1-.08.26-.12.54-.12.83 0 1.39.93 2.55 2.21 2.89-.14.35-.21.72-.21 1.11z" fill="#b4dd7f"/></g><g><path d="m24.17 26c2.13 0 4.19.73 5.83 2.07.04.03.08.07.12.1-.08.26-.12.54-.12.83 0 1.39.93 2.55 2.21 2.89-.14.35-.21.72-.21 1.11 0 1.66 1.34 3 3 3h-5c1.1 0 2-.9 2-2s-.9-2-2-2c-1.08 0-1.96.86-2 1.93-3.39-.49-6-3.4-6-6.93v-1z" fill="#b4dd7f"/></g><g><path d="m12 33c0 1.66 1.34 3 3 3h-5c1.1 0 2-.9 2-2s-.9-2-2-2c-1.08 0-1.96.86-2 1.93-3.39-.49-6-3.4-6-6.93v-1h2.17c2.13 0 4.19.73 5.83 2.07.04.03.08.07.12.1-.08.26-.12.54-.12.83 0 1.39.93 2.55 2.21 2.89-.14.35-.21.72-.21 1.11z" fill="#b4dd7f"/></g></g><path d="m61 47v-8c0-1.744-1.128-3.214-2.688-3.761.434-.639.688-1.41.688-2.239 0-1.468-.814-2.784-2.053-3.479.023-.172.053-.343.053-.521 0-1.474-.81-2.75-2-3.444v-12.556c0-1.103-.897-2-2-2h-4c-1.103 0-2 .897-2 2v4c0 1.103.897 2 2 2v7.22c-1.478-.79-3.135-1.22-4.829-1.22h-3.171v2c0 3.7 2.58 6.917 6.114 7.775.021.076.044.151.07.225h-.184c-2.206 0-4 1.794-4 4v8h-2v-8c0-1.744-1.128-3.214-2.688-3.761.434-.639.688-1.41.688-2.239 0-1.468-.814-2.784-2.053-3.479.023-.172.053-.343.053-.521 0-1.474-.81-2.75-2-3.444v-12.556c0-1.103-.897-2-2-2h-4c-1.103 0-2 .897-2 2v4c0 1.103.897 2 2 2v7.22c-1.478-.79-3.135-1.22-4.829-1.22h-3.171v2c0 3.7 2.58 6.917 6.114 7.775.021.076.044.151.07.225h-.184c-2.206 0-4 1.794-4 4v8h-2v-8c0-1.744-1.128-3.214-2.688-3.761.434-.639.688-1.41.688-2.239 0-1.468-.814-2.784-2.053-3.479.023-.172.053-.343.053-.521 0-1.474-.81-2.75-2-3.444v-12.556c0-1.103-.897-2-2-2h-4c-1.103 0-2 .897-2 2v4c0 1.103.897 2 2 2v7.22c-1.478-.79-3.135-1.22-4.829-1.22h-3.171v2c0 3.7 2.58 6.917 6.114 7.775.021.076.044.151.07.225h-.184c-2.206 0-4 1.794-4 4v8c-1.103 0-2 .897-2 2 0 4.411 3.589 8 8 8h46c4.411 0 8-3.589 8-8 0-1.103-.897-2-2-2zm-4-14c0 1.103-.897 2-2 2s-2-.897-2-2c1.304 0 2.454-.637 3.184-1.606.499.37.816.958.816 1.606zm-2-4c0 1.103-.897 2-2 2s-2-.897-2-2 .897-2 2-2 2 .897 2 2zm-6-16h4v12c-.732 0-1.409.212-2 .556v-8.556h-2zm-6 14h1.171c1.754 0 3.461.568 4.869 1.599-.013.134-.04.264-.04.401 0 .398.076.776.185 1.139l-2.585-1.939-1.2 1.6 2.619 1.965c-.305.271-.555.598-.73.971-2.494-.747-4.289-3.067-4.289-5.736zm6 7c0-.551.449-1 1-1s1 .449 1 1-.449 1-1 1-1-.449-1-1zm-2 3h10c1.103 0 2 .897 2 2h-14c0-1.103.897-2 2-2zm-2 8h4v-2h-4v-2h14v2h-8v2h8v2h-14zm-8-12c0 1.103-.897 2-2 2s-2-.897-2-2c1.304 0 2.454-.637 3.184-1.606.499.37.816.958.816 1.606zm-2-4c0 1.103-.897 2-2 2s-2-.897-2-2 .897-2 2-2 2 .897 2 2zm-6-16h4v12c-.732 0-1.409.212-2 .556v-8.556h-2zm-6 14h1.171c1.754 0 3.461.568 4.869 1.599-.013.134-.04.264-.04.401 0 .398.076.776.185 1.139l-2.585-1.939-1.2 1.6 2.619 1.965c-.305.271-.555.598-.73.971-2.494-.747-4.289-3.067-4.289-5.736zm6 7c0-.551.449-1 1-1s1 .449 1 1-.449 1-1 1-1-.449-1-1zm-2 3h10c1.103 0 2 .897 2 2h-14c0-1.103.897-2 2-2zm-2 8h4v-2h-4v-2h14v2h-8v2h8v2h-14zm-8-12c0 1.103-.897 2-2 2s-2-.897-2-2c1.304 0 2.454-.637 3.184-1.606.499.37.816.958.816 1.606zm-2-4c0 1.103-.897 2-2 2s-2-.897-2-2 .897-2 2-2 2 .897 2 2zm-6-16h4v12c-.732 0-1.409.212-2 .556v-8.556h-2zm-6 14h1.171c1.754 0 3.461.568 4.869 1.599-.013.134-.04.264-.04.401 0 .398.076.776.185 1.139l-2.585-1.939-1.2 1.6 2.619 1.965c-.305.271-.555.598-.73.971-2.494-.747-4.289-3.067-4.289-5.736zm6 7c0-.551.449-1 1-1s1 .449 1 1-.449 1-1 1-1-.449-1-1zm-2 3h10c1.103 0 2 .897 2 2h-14c0-1.103.897-2 2-2zm-2 8h4v-2h-4v-2h14v2h-8v2h8v2h-14zm50 10h-46c-3.309 0-6-2.691-6-6h58c0 3.309-2.691 6-6 6z"/></g></svg>