<?xml version="1.0" encoding="iso-8859-1"?>
<!-- Generator: Adobe Illustrator 19.0.0, SVG Export Plug-In . SVG Version: 6.00 Build 0)  -->
<svg version="1.1" id="Layer_1" xmlns="http://www.w3.org/2000/svg" xmlns:xlink="http://www.w3.org/1999/xlink" x="0px" y="0px"
	 viewBox="0 0 512.001 512.001" style="enable-background:new 0 0 512.001 512.001;" xml:space="preserve">
<path style="fill:#FFC894;" d="M122.532,234.617l35.211,29.81l-30.135,29.81c-19.282,6.634-40.884,6.972-61.538-0.556
	c-29.827-10.85-50.644-35.48-57.899-64.087c23.944-17.255,55.732-22.735,85.547-11.885
	C104.601,221.664,114.275,227.46,122.532,234.617z"/>
<path style="fill:#FFA46E;" d="M503.829,229.595c-7.255,28.607-28.073,53.237-57.899,64.087c-20.654,7.527-42.256,7.19-61.538,0.556
	l-30.074-29.81l35.15-29.81c8.257-7.157,17.931-12.952,28.814-16.907C448.097,206.86,479.884,212.34,503.829,229.595z"/>
<path style="fill:#FFD3C0;" d="M379.086,160.682l-110.112-32.681v319.378l76.255-32.681l5.207-32.67
	c17.059-11.896,29.119-30.916,30.938-52.256l10.697-125.755C393.488,187.415,388.466,172.208,379.086,160.682z"/>
<path style="fill:#FFE6DC;" d="M346.406,160.682L239.66,128.001l-106.746,32.681c-9.379,11.525-14.401,26.733-12.985,43.335
	l10.697,125.755c1.819,21.34,13.878,40.361,30.938,52.256l5.207,32.67l72.889,32.681l72.889-32.681l5.207-32.67
	c17.059-11.896,29.119-30.916,30.938-52.256l10.698-125.755C360.807,187.415,355.785,172.208,346.406,160.682z"/>
<path style="fill:#FFA46E;" d="M312.548,414.698l-46.897,89.131h32.681c17.974,0,34.99-14.521,37.822-32.278l9.074-56.854H312.548z"
	/>
<path style="fill:#FFC894;" d="M312.548,414.698l-9.074,56.854c-2.832,17.757-19.848,32.278-37.822,32.278h-51.984
	c-17.974,0-34.99-14.521-37.822-32.278l-9.074-56.854H312.548z"/>
<path style="fill:#FFF9E9;" d="M166.335,95.321v65.361h-60.122c-35.949,0-71.527-28.759-79.055-63.913L8.171,8.172l39.217,52.289
	c14.38,19.173,45.753,34.859,69.719,34.859H166.335z"/>
<path style="fill:#FFECBA;" d="M464.612,60.461c-1.808,2.407-3.878,4.76-6.177,7.037l-85.329,93.184h32.681
	c35.949,0,71.527-28.759,79.055-63.913l18.987-88.597L464.612,60.461z"/>
<path style="fill:#FFF9E9;" d="M458.435,67.499L452.16,96.77c-7.527,35.154-43.106,63.913-79.055,63.913h-27.441V95.321h49.228
	C415.852,95.321,442.465,83.327,458.435,67.499z"/>
<path style="fill:#FFC894;" d="M332.255,84.427h-32.681v87.149h32.681c17.974,0,32.681-14.706,32.681-32.681v-21.787
	C364.936,99.134,350.229,84.427,332.255,84.427z"/>
<path style="fill:#FFD3C0;" d="M332.255,117.108v21.787c0,17.974-14.706,32.681-32.681,32.681H179.745
	c-17.974,0-32.681-14.706-32.681-32.681v-21.787c0-17.974,14.706-32.681,32.681-32.681h119.829
	C317.549,84.427,332.255,99.134,332.255,117.108z"/>
<path d="M299.574,163.406h-87.149c-4.513,0-8.17,3.658-8.17,8.17s3.657,8.17,8.17,8.17h87.149c4.513,0,8.17-3.658,8.17-8.17
	S304.087,163.406,299.574,163.406z"/>
<path d="M508.604,222.964c-27.037-19.478-61.847-24.312-93.12-12.932c-5.719,2.082-11.189,4.647-16.375,7.676l1.107-12.995
	c1.075-12.625-1.168-24.939-6.378-35.861h11.95c39.683,0,78.73-31.567,87.045-70.369l18.986-88.6
	c0.803-3.752-1.112-7.558-4.604-9.147c-3.49-1.59-7.62-0.536-9.922,2.534l-39.217,52.289
	c-12.844,17.125-41.778,31.591-63.183,31.591h-34.903c-7.29-6.754-17.036-10.894-27.735-10.894h-152.51
	c-10.699,0-20.444,4.14-27.735,10.894h-34.903c-21.405,0-50.339-14.467-63.183-31.591L14.708,3.27
	C12.408,0.2,8.279-0.853,4.786,0.736c-3.494,1.59-5.408,5.397-4.605,9.148l18.986,88.6c8.315,38.802,47.363,70.369,87.045,70.369
	h11.95c-5.21,10.922-7.452,23.237-6.378,35.862l1.107,12.994c-5.186-3.028-10.656-5.594-16.375-7.676
	c-31.273-11.381-66.084-6.547-93.12,12.932c-2.722,1.961-3.969,5.386-3.144,8.638c8.192,32.301,31.75,58.381,63.023,69.764
	c11.057,4.024,22.702,6.038,34.35,6.038c7.616,0,15.228-0.883,22.679-2.609l2.184,25.665c1.844,21.688,13.554,42.441,31.54,56.182
	l13.747,86.201C171.218,494.435,191.807,512,213.671,512h84.659c21.863,0,42.452-17.566,45.896-39.156l13.747-86.201
	c17.986-13.741,29.696-34.494,31.54-56.182l2.184-25.665c7.45,1.726,15.063,2.608,22.679,2.608c11.646,0,23.294-2.015,34.35-6.038
	c31.271-11.383,54.831-37.462,63.023-69.764C512.572,228.351,511.327,224.925,508.604,222.964z M471.148,65.363l16.898-22.53
	l-11.192,52.226c-6.672,31.141-39.217,57.452-71.066,57.452h-26.576c-0.059-0.001-0.118,0-0.176,0h-8.271
	c1.511-4.262,2.342-8.843,2.342-13.617v-21.787c0-4.774-0.831-9.355-2.342-13.617h24.129
	C421.617,103.491,455.113,86.743,471.148,65.363z M35.147,95.06L23.954,42.834l16.898,22.53
	c16.035,21.38,49.531,38.127,76.255,38.127h24.129c-1.512,4.262-2.342,8.843-2.342,13.617v21.787c0,4.774,0.831,9.355,2.342,13.617
	h-8.282c-0.052,0-0.105-0.001-0.157,0h-26.584C74.364,152.512,41.819,126.202,35.147,95.06z M328.089,470.271
	c-2.195,13.762-15.823,25.39-29.759,25.39h-34.159v-29.214h24.511c4.513,0,8.17-3.658,8.17-8.17v-10.894
	c0-4.512-3.657-8.17-8.17-8.17s-8.17,3.658-8.17,8.17v2.723H231.49v-2.723c0-4.512-3.657-8.17-8.17-8.17s-8.17,3.658-8.17,8.17
	v10.894c0,4.512,3.657,8.17,8.17,8.17h24.511v29.214h-34.159c-13.936,0-27.565-11.627-29.759-25.39l-7.559-47.399h159.296
	L328.089,470.271z M443.136,286.009c-16.309,5.936-33.48,6.704-50.039,2.321l1.732-20.347c0.383-4.496-2.951-8.45-7.448-8.834
	c-4.476-0.379-8.451,2.951-8.833,7.448l-1.657,19.464h-57.857c-4.513,0-8.17,3.658-8.17,8.17v21.787c0,4.512,3.657,8.17,8.17,8.17
	s8.17-3.658,8.17-8.17v-13.617h48.296l-2.27,26.673c-1.535,18.038-11.805,35.33-27.471,46.256c-1.82,1.269-3.046,3.223-3.394,5.415
	l-4.111,25.784H173.746l-4.112-25.784c-0.349-2.191-1.574-4.146-3.394-5.415c-15.667-10.926-25.937-28.219-27.471-46.257
	l-2.27-26.672h48.297v13.617c0,4.512,3.657,8.17,8.17,8.17s8.17-3.658,8.17-8.17v-21.787c0-4.512-3.657-8.17-8.17-8.17h-57.857
	l-1.657-19.464c-0.382-4.496-4.348-7.822-8.833-7.448c-4.497,0.383-7.83,4.338-7.448,8.834l1.732,20.346
	c-16.559,4.382-33.732,3.614-50.039-2.321c-24.396-8.879-43.189-28.446-51.189-52.958c21.887-13.633,48.86-16.542,73.253-7.664
	c9.693,3.528,18.528,8.71,26.258,15.401c2.512,2.174,6.093,2.611,9.056,1.102c2.962-1.509,4.715-4.661,4.432-7.973l-2.607-30.59
	c-1.066-12.543,2.102-24.637,8.939-34.476h15.005c7.29,6.754,17.036,10.894,27.735,10.894c4.513,0,8.17-3.658,8.17-8.17
	s-3.657-8.17-8.17-8.17c-7.058,0-13.424-3.002-17.9-7.792c-0.211-0.267-0.437-0.522-0.68-0.759c-3.692-4.292-5.93-9.866-5.93-15.958
	v-21.787c0-6.092,2.239-11.667,5.93-15.958c0.243-0.239,0.468-0.492,0.68-0.759c4.476-4.79,10.843-7.792,17.9-7.792h152.51
	c7.058,0,13.424,3.002,17.9,7.792c0.211,0.267,0.437,0.522,0.68,0.759c3.692,4.292,5.93,9.866,5.93,15.958v21.787
	c0,6.092-2.239,11.667-5.93,15.958c-0.243,0.239-0.468,0.492-0.68,0.759c-4.476,4.79-10.843,7.792-17.9,7.792
	c-4.513,0-8.17,3.658-8.17,8.17s3.657,8.17,8.17,8.17c10.699,0,20.445-4.14,27.735-10.894h15.005
	c6.837,9.839,10.007,21.932,8.939,34.475l-2.607,30.591c-0.283,3.313,1.471,6.465,4.431,7.973c2.962,1.51,6.543,1.072,9.056-1.102
	c7.731-6.692,16.565-11.873,26.258-15.401c24.397-8.879,51.369-5.969,73.253,7.665C486.325,257.563,467.532,277.13,443.136,286.009z
	"/>
<g>
</g>
<g>
</g>
<g>
</g>
<g>
</g>
<g>
</g>
<g>
</g>
<g>
</g>
<g>
</g>
<g>
</g>
<g>
</g>
<g>
</g>
<g>
</g>
<g>
</g>
<g>
</g>
<g>
</g>
</svg>
