<svg height="512" viewBox="0 0 60 61" width="512" xmlns="http://www.w3.org/2000/svg"><g id="Page-1" fill="none" fill-rule="evenodd"><g id="027---Salting-Meat" fill-rule="nonzero"><path id="Shape" d="m46 35.5c0 5.71-.69 10.07-9.31 10.07-4.09 0-5.38 2.03-6.62 3.99-1.68 2.66-3.25 4.53-8.12 4.53-2.0538404-.0021149-4.1040472-.1726868-6.13-.51-9.14-1.53-14.82-7.56-14.82-15.76 0-6.62 4.56-12.37 11.33-15.47l-.7 2.45c-.3140774 1.1089486.2772327 2.2729958 1.3580199 2.6733843 1.0807871.4003884 2.287765-.0974649 2.7719801-1.1433843l2.69-5.92c3.2031666-.6048029 6.484646-.6723926 9.71-.2l-4.53 3.52c-1.0095821.7800995-1.2761426 2.1920171-.6204701 3.2865054s2.0263323 1.5256003 3.1904701 1.0034946c5.713-2.5 6.157-2.8 7.82-3.36 1.2867429-.4297147 2.5318463-.9752842 3.72-1.63 5.19 2.71 8.26 7.08 8.26 12.47z" fill="#f5f5f5"/><path id="Shape" d="m37.74 23.03c-.526.29-1.07.551-1.62.8 4.346 2.733 6.88 6.779 6.88 11.67 0 5.71-.69 10.07-9.31 10.07-4.09 0-5.38 2.03-6.62 3.99-1.531 2.425-2.98 4.188-6.911 4.482.6.029 1.191.048 1.791.048 4.87 0 6.44-1.87 8.12-4.53 1.24-1.96 2.53-3.99 6.62-3.99 8.62 0 9.31-4.36 9.31-10.07 0-5.39-3.07-9.76-8.26-12.47z" fill="#cfd8dc"/><path id="Shape" d="m59 7.8v11.87c.0022455.3141814-.1432986.6111513-.392989.8018598-.2496904.1907084-.5744927.2529794-.877011.1681402l-12.16-3.48c-.3527331-.0991299-.7314938.0003426-.99.26l-1.87 1.87c-1.4741953 1.4722844-3.1470667 2.7311454-4.97 3.74-1.1881537.6547158-2.4332571 1.2002853-3.72 1.63-1.949.674-2.867 1.2-7.82 3.36-1.1641378.5221057-2.5347976.0909937-3.1904701-1.0034946s-.389112-2.5064059.6204701-3.2865054l6.98-5.43c.2470861-.1872793.3915758-.4799636.39-.79v-3.96c-.0007064-.3388877-.1729981-.654358-.4577352-.8381245s-.6431699-.2108205-.9522648-.0718755l-9.59 4.36-3.69 8.13h-.01l-.54 1.2c-.4842151 1.0459194-1.691193 1.5437727-2.7719801 1.1433843-1.0807872-.4003885-1.6720973-1.5644357-1.3580199-2.6733843 3.911-13.683 2.653-9.281 2.97-10.39.2592258-.9115541.8332246-1.7016882 1.62-2.23l15.33-10.51c.9255404-.61882529 2.0678847-.82190873 3.15-.56l23.52 5.71c.4577145.10322125.7821104.51079567.78.98z" fill="#ffe0b2"/><path id="Shape" d="m58.22 6.82-23.52-5.71c-.7834565-.18645869-1.6049517-.13208735-2.357.156l22.877 5.554c.4577145.10322125.7821104.51079567.78.98v11.87c.0010685.1540216-.0331386.3062435-.1.445l1.834.525c.3019743.0833333.6255494.020344.8742128-.17018.2486633-.1905241.3936768-.486564.3917872-.79982v-11.87c.0021104-.46920433-.3222855-.87677875-.78-.98z" fill="#dfc49c"/><path id="Shape" d="m42 35.5c0 4.78 0 6.07-5.31 6.07-6.29 0-8.61 3.66-10 5.85-1.23 1.94-1.69 2.67-4.74 2.67-1.832956-.0008764-3.6626408-.1547438-5.47-.46-7.28-1.21-11.48-5.55-11.48-11.81 0-4.43 2.83-8.39 7.16-10.88.5074027.5248493 1.2410015.765698 1.9607586.6437392.7197571-.1219589 1.3330633-.5910332 1.6392414-1.2537392l.54-1.2h.01c2.2355009-.6824335 4.5628039-1.0163508 6.9-.99-.6101561.7722429-.7229342 1.8261349-.29 2.71.605762 1.2029892 2.0496367 1.7180299 3.28 1.17 6.435-2.85 5.926-2.637 6.28-2.77 5.43 1.63 9.52 4.98 9.52 10.25z" fill="#e91e63"/><path id="Shape" d="m32.48 25.25c-.209.078-.128.041-1.335.577 4.578 1.785 7.855 4.958 7.855 9.673 0 4.78 0 6.07-5.31 6.07-6.29 0-8.61 3.66-10 5.85-1.043 1.646-1.539 2.418-3.525 2.616.582.032 1.173.054 1.785.054 3.05 0 3.51-.73 4.74-2.67 1.39-2.19 3.71-5.85 10-5.85 5.31 0 5.31-1.29 5.31-6.07 0-5.27-4.09-8.62-9.52-10.25z" fill="#ad1457"/><ellipse id="Oval" cx="18.456" cy="37" fill="#f5f5f5" rx="4.544" ry="4"/><path id="Shape" d="m46 35.5v5c0 5.71-.99 10.07-6.26 10.07-4.09 0-5.38 2.03-6.62 3.99-1.68 2.66-3.25 4.53-8.12 4.53-3.0670456-.0012227-6.1316931-.1714809-9.18-.51-9.14-1.53-14.82-7.56-14.82-15.76v-5c0 8.2 5.68 14.23 14.82 15.76 2.0259528.3373132 4.0761596.5078851 6.13.51 4.87 0 6.44-1.87 8.12-4.53 1.24-1.96 2.53-3.99 6.62-3.99 8.62 0 9.31-4.36 9.31-10.07z" fill="#cfd8dc"/><g fill="#000"><path id="Shape" d="m45.291 18.123 12.159 3.477c.6040092.1727644 1.2540947.0516827 1.755403-.3269525.5013082-.3786351.7955746-.9708169.794597-1.5990475v-11.874c.0070003-.93021624-.6326201-1.7406515-1.539-1.95l-23.529-5.712c-1.35829-.32341656-2.7899113-.06651464-3.951.709l-15.312 10.506c-.9869042.658322-1.7080603 1.6456148-2.035 2.786l-2.969 10.391c-.4611486 1.6153303.4015232 3.3129392 1.9781632 3.8927291s3.3336051-.1544799 4.0288368-1.6837291l4.083-8.984 9.245-4.202v3.958l-6.984 5.432c-1.4022607 1.0924062-1.7696714 3.0590332-.8564018 4.5840332.9132697 1.525 2.8204215 2.1294703 4.4454018 1.4089668l5.82-2.586c.623-.277 1.266-.526 1.91-.741 3.4214891-1.1445948 6.5311723-3.0665399 9.085-5.615zm-11.591 5.589c-.7.234-1.407.507-2.09.81l-5.819 2.587c-.7019936.3129227-1.5271076.0521903-1.9218267-.6072886-.394719-.659479-.2346502-1.5098745.3728267-1.9807114l6.985-5.432c.4888819-.3772997.7745481-.9604579.773-1.578v-3.958c.0001518-.6801532-.3453687-1.3137642-.9172229-1.6819913-.5718541-.3682272-1.2916494-.4205922-1.9107771-.1390087l-9.586 4.358c-.22248.0995126-.4004874.27752-.5.5l-4.238 9.325c-.2420462.5311519-.8287818.8137944-1.395.672-.3169302-.0790907-.5882221-.283359-.751826-.5660847-.163604-.2827257-.2055246-.6197234-.116174-.9339153l2.969-10.392c.1979561-.6880791.6343226-1.2832532 1.231-1.679l15.315-10.516c.6938296-.46254401 1.548872-.61543719 2.36-.422l23.54 5.722v11.874l-12.16-3.474c-.698217-.1992397-1.4495723-.0044155-1.963.509l-1.871 1.871c-2.3353009 2.3290119-5.1782365 4.0855669-8.306 5.132z"/><path id="Shape" d="m51.9 10.421 2.1.515v2.064c0 .5522847.4477153 1 1 1s1-.4477153 1-1v-2.849c-.0002349-.46080425-.3153242-.86178944-.763-.971l-2.865-.7c-.3508872-.09610044-.7262827.00594553-.9802288.26646133-.2539462.26051581-.3463728.63839477-.2413435.98671353.1050294.34831874.3909421.61211624.7465723.68882514z"/><path id="Shape" d="m4 37.82c0 6.731 4.6 11.514 12.315 12.8 1.8617091.3158084 3.7466951.474368 5.635.474 3.451 0 4.205-.959 5.586-3.137 1.36-2.143 3.416-5.383 9.154-5.383 6.068 0 6.31-2.041 6.31-7.07-.0172832-3.5648731-1.8688215-6.8696801-4.9-8.746-.4561872-.3114886-1.0785114-.1941872-1.39.262s-.1941872 1.0785114.262 1.39c2.4878621 1.498547 4.0145024 4.1857069 4.028 7.09 0 4.784 0 5.07-4.31 5.07-6.837 0-9.443 4.106-10.847 6.32-1.183 1.864-1.4 2.2-3.893 2.2-1.7760321-.0001505-3.5489194-.1493406-5.3-.446-6.77-1.125-10.65-5.07-10.65-10.824.06957109-2.9880987 1.38578847-5.8108955 3.63-7.785.4004064-.3808003.4163003-1.0140936.03549999-1.4145-.38080033-.4004064-1.01409354-.4163003-1.41449999-.0355-2.629185 2.3609185-4.16729745 5.7023602-4.251 9.235z"/><path id="Shape" d="m24 37c-.1614603-2.9066892-2.6371528-5.1390539-5.545-5-2.9074659-.1384867-5.3825362 2.0937196-5.544 5 .1614638 2.9062804 2.6365341 5.1384867 5.544 5 2.9078472.1390539 5.3835397-2.0933108 5.545-5zm-9.089 0c.164198-1.7998411 1.7417518-3.1352422 3.544-3 1.802444-.1352635 3.3802899 1.200008 3.545 3-.1647101 1.799992-1.742556 3.1352635-3.545 3-1.8022482.1352422-3.379802-1.2001589-3.544-3z"/><path id="Shape" d="m15.659 59.567c3.1016158.3467414 6.2200631.5213424 9.341.523 5.374 0 7.24-2.263 8.965-5 1.2-1.892 2.23-3.525 5.775-3.525 6.4 0 7.26-5.6 7.26-11.07v-5c.0135774-4.1443988-1.8052372-8.0829064-4.969-10.76-.4158202-.349063-1.0341976-.3025821-1.3931652.1047184-.3589675.4073006-.3273798 1.0266174.0711652 1.3952816 2.7283559 2.3031245 4.2990551 5.6945317 4.291 9.265 0 5.643-.56 9.07-8.31 9.07-4.648 0-6.21 2.471-7.465 4.456-1.6 2.529-2.884 4.064-7.275 4.064-1.9986325-.0039298-3.9936028-.1711528-5.965-.5-8.626-1.441-13.985-7.101-13.985-14.77 0-4.42 2.192-8.6 6.174-11.778.2793817-.2229337.41860731-.5779813.36523189-.9313999-.05337542-.3534185-.29124288-.6515152-.62400001-.782s-.70985019-.0735338-.98923188.1493999c-4.466 3.563-6.926 8.301-6.926 13.342v5c0 8.713 6 15.13 15.659 16.747zm0-5c2.0792036.3458018 4.1832379.5207199 6.291.523 5.382 0 7.177-2.165 8.966-5 1.195-1.891 2.229-3.524 5.774-3.524 4.15 0 6.639-1 8.129-2.6-.487 4.019-2.01 5.6-5.079 5.6-4.645 0-6.209 2.47-7.466 4.456-1.6 2.529-2.882 4.064-7.274 4.064-3.0118744-.0019718-6.0213807-.1688884-9.015-.5-7.119-1.192-12-5.261-13.5-10.956 2.623 4.093 7.195 6.936 13.174 7.937z"/><circle id="Oval" cx="27" cy="32" r="1"/><circle id="Oval" cx="31" cy="30" r="1"/><circle id="Oval" cx="30" cy="35" r="1"/><circle id="Oval" cx="27" cy="38" r="1"/></g></g></g></svg>