<svg id="Layer_1" enable-background="new 0 0 128 128" height="512" viewBox="0 0 128 128" width="512" xmlns="http://www.w3.org/2000/svg"><g><path d="m105.8 43.5c-9.7 0-18.6 5.3-23.2 13.8 4.4 3.3 7.8 7.6 9.9 12.7h4.5c14.6 0 26.4-11.8 26.4-26.4h-17.6z" fill="#fae8d8"/><path d="m22.2 43.5c9.7 0 18.6 5.3 23.2 13.8-4.4 3.3-7.8 7.6-9.9 12.7h-4.5c-14.6 0-26.4-11.8-26.4-26.4h17.6z" fill="#fae8d8"/><path d="m87.8 102.2c-1.7 1.9-3.2 4-4.3 6.2l-6 11.9c-1.8 3.6-5.5 5.9-9.5 5.9h-8.1c-4 0-7.7-2.3-9.5-5.9l-6-11.9c-1.1-2.3-2.6-4.4-4.3-6.2-4.6-5-7.2-11.6-7.2-18.4v-1.8c0-17.1 13.9-31 31-31 17.1 0 31 13.9 31 31v1.9c.1 6.8-2.5 13.3-7.1 18.3z" fill="#b1705b"/><path d="m105.8 43.5c-9.7 0-18.6 5.3-23.2 13.8 1.3 1 2.6 2.1 3.8 3.3 4.8-4.2 11-6.5 17.3-6.5h17.5c1.5-3.3 2.2-7 2.2-10.6z" fill="#724b3b"/><path d="m22.2 43.5c9.7 0 18.6 5.3 23.2 13.8-1.3 1-2.6 2.1-3.7 3.3-4.8-4.2-11-6.5-17.3-6.5h-17.6c-1.5-3.3-2.2-7-2.2-10.6z" fill="#724b3b"/><path d="m117.8 1.7v9.3c0 4-2.5 7.6-6.3 9l-8.4 3v-15.7h-8.5v18.8l-13.4 4.8c-7.2 2.6-12 9.4-12 17v3.7c2.9.5 5.8 1.4 8.5 2.7v-6.4c0-4 2.5-7.6 6.3-9l30.3-10.9c7.2-2.6 12-9.4 12-17v-9.3z" fill="#f4d844"/><path d="m10.2 1.7v9.3c0 4 2.5 7.6 6.3 9l8.4 3v-15.7h8.5v18.8l13.4 4.8c7.2 2.6 12 9.4 12 17v3.7c-2.9.5-5.8 1.4-8.5 2.7v-6.4c0-4-2.5-7.6-6.3-9l-30.3-10.8c-7.2-2.6-12-9.4-12-17v-9.4z" fill="#f4d844"/><path d="m69.4 107.9-4.1 1.8c-.8.4-1.7.4-2.5 0l-4.1-1.8c-1.2-.5-1.9-1.6-1.9-2.9v-.6c0-1.8 1.4-3.2 3.2-3.2h8.3c1.8 0 3.2 1.4 3.2 3.2v.6c-.2 1.2-.9 2.4-2.1 2.9z" fill="#3c4646"/></g><path d="m68.1 99.4h-8.3c-2.7 0-4.9 2.2-4.9 4.9v.6c0 2 1.2 3.7 3 4.5 1.2.5 3.6 1.6 4.4 1.9v3.4l-2.5 2.5c-.7.7-.7 1.8 0 2.5s1.8.7 2.4 0l1.8-1.7 1.8 1.8c.7.7 1.8.7 2.5 0s.7-1.8 0-2.5l-2.5-2.5v-3.4c.8-.3 3-1.3 4.4-1.9 1.8-.8 3-2.6 3-4.5v-.6c-.1-2.8-2.3-5-5.1-5zm1.5 5.6c0 .6-.3 1.1-.9 1.3l-4.1 1.8c-.4.2-.8.2-1.1 0l-4.1-1.8c-.5-.2-.9-.7-.9-1.3v-.6c0-.8.6-1.4 1.4-1.4h8.3c.8 0 1.4.6 1.4 1.4zm-17.6-15.2c0 1-.8 1.8-1.8 1.8s-1.8-.8-1.8-1.8c0-.7-.4-1.4-1.1-1.7l-2.3-1.2c-.9-.5-1.2-1.5-.7-2.4.4-.8 1.5-1.2 2.3-.8l2.3 1.2c1.9.9 3.1 2.8 3.1 4.9zm31.7-5.3c.4.9.1 1.9-.8 2.3l-2.3 1.2c-.7.3-1.1 1-1.1 1.7 0 1-.8 1.8-1.8 1.8s-1.7-.8-1.7-1.7c0-2.1 1.2-4 3-4.9l2.3-1.2c.9-.4 1.9-.1 2.4.8zm30-58.1-8.4 3c-.9.3-1.4 1.3-1.1 2.2s1.3 1.4 2.2 1.1l8.4-3c7.9-2.8 13.1-10.3 13.1-18.6v-9.4c0-1-.8-1.7-1.8-1.7h-8.5c-1 0-1.8.8-1.8 1.8v9.3c0 3.3-2.1 6.2-5.2 7.3l-6.1 2.2v-13.3c0-1-.8-1.7-1.7-1.8h-8.5c-1 0-1.8.8-1.8 1.8v17.5l-12.2 4.4c-7.6 2.8-12.8 10.2-12.9 18.6v1.6c-2.3-.2-4.6-.2-6.9 0v-1.6c0-8.4-5.3-15.8-13.1-18.6l-12.2-4.4v-17.5c0-1-.8-1.7-1.7-1.8h-8.5c-1 0-1.7.8-1.8 1.7v13.3l-6.1-2.2c-3.1-1.1-5.2-4-5.2-7.3v-9.3c0-1-.8-1.7-1.8-1.7h-8.3c-1 0-1.8.8-1.8 1.7v9.3c0 8.4 5.3 15.8 13.1 18.6l30.3 10.8c3.1 1.1 5.2 4 5.2 7.3v5.3c-.9.5-1.8 1-2.6 1.6-5.2-8.1-14.1-13-23.7-13h-17.7c-1 0-1.7.8-1.8 1.7 0 15.4 12.6 28.2 28.2 28.2h2c-1.1 3.3-1.7 6.8-1.7 10.3.1.8-1.2 11.8 7.6 21.4 3.9 4.2 4.6 7.5 10 17.8 2.1 4.2 6.4 6.8 11 6.8h8.1c4.7 0 9-2.6 11-6.8 5.4-10.3 6.1-13.6 10-17.8 8.7-9.5 7.5-20.8 7.6-21.4 0-3.5-.6-7-1.7-10.3h2c15.7 0 28.2-12.8 28.2-28.2 0-1-.8-1.7-1.7-1.8h-17.6c-9.6 0-18.6 4.9-23.7 13-.8-.6-1.7-1.1-2.6-1.6v-5.3c0-3.3 2.1-6.2 5.2-7.3.9-.3 1.4-1.3 1.1-2.2s-1.3-1.4-2.2-1.1c-4.5 1.6-7.5 5.9-7.5 10.6v3.7c-1.6-.6-3.3-1.1-5-1.5v-2.2c0-6.9 4.3-13 10.8-15.3l13.4-4.8c.7-.2 1.2-.9 1.2-1.6v-17h5v14c0 1.2 1.2 2.1 2.3 1.6l8.4-3c4.5-1.6 7.5-5.9 7.5-10.6v-7.4h5v7.6c-.2 6.9-4.5 13-11 15.3zm-69.1 10.8-30.3-10.8c-6.5-2.3-10.8-8.4-10.8-15.3v-7.6h5v7.6c0 4.8 3 9 7.5 10.6l8.4 3c1.1.4 2.3-.4 2.3-1.6v-14h5v17c0 .7.5 1.4 1.2 1.6l13.4 4.8c6.4 2.3 10.7 8.4 10.7 15.3v2.2c-1.7.4-3.4.9-5 1.5v-3.7c.1-4.8-2.9-9-7.4-10.6zm-13.6 30.9c-8.8 0-16.9-4.7-21.3-12.3h14.7c1 0 1.8-.8 1.8-1.8s-.8-1.8-1.8-1.8h-16.4c-.9-2.3-1.4-4.7-1.6-7.1h15.8c8.5 0 16.4 4.4 20.9 11.6-.5.5-1.1.9-1.6 1.4-1.8-1.4-3.7-2.6-5.8-3.5-.9-.4-1.9 0-2.3.9s0 1.9.9 2.3c1.7.8 3.3 1.7 4.8 2.8-1.9 2.2-3.5 4.7-4.8 7.4zm55.5 32.9c-4.3 4.7-5.1 8.3-10.5 18.6-1.5 3-4.6 4.9-7.9 4.9h-8.1c-3.4 0-6.4-1.9-7.9-4.9-5.3-10.2-6.2-13.9-10.5-18.6-7.8-8.5-6.6-18.3-6.7-19.1 0-16.1 13.1-29.2 29.2-29.2s29.1 13.1 29.1 29.3c-.2.9 1.2 10.5-6.7 19zm10.5-32.9h-3.3c-1.2-2.7-2.8-5.1-4.7-7.4 4.3-3.2 9.5-5 14.8-5h14.7c-4.6 7.7-12.7 12.4-21.5 12.4zm8.8-22.9h15.8c-.2 2.4-.7 4.8-1.6 7.1h-16.3c-6.2 0-12.3 2.1-17.2 5.9-.5-.5-1-1-1.6-1.4 4.5-7.2 12.4-11.6 20.9-11.6zm-8.1-11.3c.3.9-.1 1.9-1.1 2.2l-2.2.9c-.9.3-1.9-.2-2.2-1.1s.2-1.9 1.1-2.2l2.3-.8c.8-.3 1.8.1 2.1 1z"/></svg>