<svg id="Capa_1" enable-background="new 0 0 511.998 511.998" height="512" viewBox="0 0 511.998 511.998" width="512" xmlns="http://www.w3.org/2000/svg"><g><g><path d="m484.248 84.578c11.829-2.958 22.721 7.686 19.759 19.514-8.225 32.844-50.692 95.949-134.307 112.672l-56.85-89.336z" fill="#f5ebcd"/><path d="m497.175 122.182c-16.348 34.052-57.419 80.572-127.475 94.582l-33.123-52.05 141.417-49.402c7.671-2.679 15.381.756 19.181 6.87z" fill="#ff9a9f"/><path d="m27.75 84.578c-11.829-2.958-22.721 7.686-19.759 19.514 8.225 32.844 50.692 95.949 134.307 112.672l56.85-89.336z" fill="#f5ebcd"/><path d="m14.823 122.182c16.348 34.052 57.42 80.572 127.475 94.582l33.123-52.05-141.417-49.402c-7.671-2.679-15.381.756-19.181 6.87z" fill="#ff9a9f"/><path d="m255.999 86.82c-77.779 0-138.1 67.928-128.906 145.162l10.846 91.102c7.119 59.805 57.833 104.839 118.06 104.839s110.941-45.035 118.06-104.839l10.846-91.102c9.194-77.234-51.127-145.162-128.906-145.162z" fill="#faf5dc"/><path d="m226.078 324.909 18.435 18.435c6.343 6.343 16.628 6.343 22.971 0l18.435-18.435c4.685-4.685-.14-12.492-6.426-10.397l-18.358 6.12c-3.334 1.111-6.939 1.111-10.273 0l-18.358-6.12c-6.286-2.096-11.111 5.712-6.426 10.397z" fill="#5d5360"/><path d="m161.759 319.436-19.034-166.13c-12.905 23.01-19.022 50.194-15.631 78.675l10.846 91.102c7.119 59.805 57.833 104.839 118.06 104.839 4.22 0 8.377-.274 12.492-.706-55.829-5.63-100.021-51.398-106.733-107.78z" fill="#f5ebcd"/></g><g><path d="m167.284 224.885v8.122c0 4.142 3.358 7.5 7.5 7.5s7.5-3.358 7.5-7.5v-8.122c0-4.142-3.358-7.5-7.5-7.5s-7.5 3.358-7.5 7.5z"/><path d="m337.214 217.385c-4.142 0-7.5 3.358-7.5 7.5v8.122c0 4.142 3.358 7.5 7.5 7.5s7.5-3.358 7.5-7.5v-8.122c0-4.142-3.358-7.5-7.5-7.5z"/><path d="m231.635 371.694c-9.498 0-16.865-4.7-16.865-8.743 0-4.142-3.358-7.5-7.5-7.5s-7.5 3.358-7.5 7.5c0 13.314 13.997 23.743 31.865 23.743 9.876 0 18.563-3.19 24.364-8.289 5.801 5.098 14.488 8.289 24.364 8.289 17.868 0 31.865-10.429 31.865-23.743 0-4.142-3.358-7.5-7.5-7.5s-7.5 3.358-7.5 7.5c0 4.043-7.367 8.743-16.865 8.743s-16.864-4.7-16.864-8.743v-8.594c3.395-1.125 6.592-3.012 9.289-5.709l18.436-18.435c4.612-4.613 5.406-11.439 1.977-16.988-3.429-5.548-9.893-7.89-16.078-5.828l-21.124 7.041-21.124-7.041c-6.186-2.063-12.649.28-16.078 5.828s-2.635 12.375 1.977 16.988l18.436 18.435c2.697 2.698 5.893 4.584 9.289 5.71v8.594c0 4.042-7.367 8.742-16.864 8.742zm3.404-48.432 18.589 6.196c1.539.513 3.204.513 4.743 0l18.589-6.196-14.779 14.778c-3.409 3.408-8.955 3.408-12.364 0z"/><path d="m505.077 83.586c-5.982-5.984-14.449-8.333-22.647-6.284l-137.817 34.455c-24.619-20.791-55.993-32.437-88.613-32.437s-63.994 11.646-88.613 32.437l-137.818-34.455c-8.199-2.051-16.666.299-22.647 6.284-5.907 5.91-8.227 14.257-6.206 22.329 8.209 32.781 34.446 89.781 117.984 108.815-.085 6.026.226 12.085.947 18.139l10.846 91.102c7.563 63.539 61.52 111.453 125.507 111.453s117.944-47.914 125.507-111.453l5.889-49.467c.49-4.113-2.448-7.844-6.561-8.334-4.117-.494-7.845 2.447-8.334 6.561l-5.889 49.467c-6.666 55.998-54.219 98.226-110.613 98.226s-103.947-42.228-110.613-98.226l-10.846-91.102c-4.129-34.685 6.805-69.558 29.999-95.677 23.194-26.118 56.53-41.098 91.46-41.098s68.266 14.98 91.46 41.098c23.193 26.119 34.127 60.992 29.999 95.677l-1.088 9.144c-.49 4.113 2.448 7.845 6.561 8.334 4.112.49 7.844-2.448 8.334-6.561l1.088-9.143c.721-6.054 1.031-12.113.947-18.139 83.537-19.035 109.775-76.034 117.984-108.815 2.02-8.073-.3-16.42-6.207-22.33zm-385.316 115.979c-31.601-7.587-56.964-21.747-75.447-42.183-11.643-12.874-19.058-26.661-23.791-38.728l86.74 31.726c.85.311 1.72.458 2.576.458 3.059 0 5.932-1.886 7.044-4.926 1.423-3.89-.577-8.197-4.467-9.62l-97.399-35.625c-.212-3.321 1.62-5.585 2.513-6.479 2.222-2.223 5.364-3.095 8.401-2.336l128.697 32.175c-.435.476-.876.947-1.305 1.43-18.573 20.917-30.137 46.834-33.562 74.108zm237.609-75.537 128.697-32.175c3.037-.758 6.179.113 8.401 2.336.894.894 2.725 3.158 2.513 6.479l-123.361 45.122c-4.316-7.169-9.306-13.981-14.945-20.331-.429-.484-.87-.954-1.305-1.431zm110.314 33.354c-18.483 20.436-43.846 34.596-75.447 42.183-1.756-13.985-5.652-27.613-11.538-40.393l110.776-40.517c-4.733 12.066-12.148 25.853-23.791 38.727z"/></g></g></svg>