<svg height="512" viewBox="0 0 64 64" width="512" xmlns="http://www.w3.org/2000/svg"><g id="flat"><path d="m16 23-2-4a19.661 19.661 0 0 1 12-2c7 1 10 4 13 4l-3 4a28.842 28.842 0 0 0 -20-2z" fill="#5f79ba"/><path d="m39 27 3-4a26.629 26.629 0 0 0 8 4l-3 4a24.977 24.977 0 0 1 -8-4z" fill="#5f79ba"/><path d="m18 41 1 5s14 1 25-3l-7-3s-10 3-19 1z" fill="#5f79ba"/><path d="m8.88 39.04c-2.56-1.77-4-3.57-5.88-4.04v-3s8-11 21-11 19 10 29 10v5s-14 7-29 7a28.445 28.445 0 0 1 -12.03-2.2z" fill="#92cdde"/><path d="m61 40-8-4v-5l8-3s-2 4-2 6 2 6 2 6z" fill="#5f79ba"/><circle cx="11" cy="32" fill="#394d5c" r="2"/><path d="m18.11 34a6.322 6.322 0 0 1 -2.04 4.93 8.5 8.5 0 0 1 -4.1 1.87 19.106 19.106 0 0 1 -3.09-1.76c1.29.04 4.15-.08 5.86-1.6a4.367 4.367 0 0 0 1.37-3.44z" fill="#4da6ea"/><path d="m40.5 31.868c-7.386-4.222-12.014-5.868-16.5-5.868-4.654 0-9.438 2.829-9.486 2.858l-1.029-1.715c.215-.129 5.298-3.143 10.515-3.143 4.869 0 9.774 1.719 17.5 6.132z" fill="#4da6ea"/><path d="m19 32 8-3v8l-8-3z" fill="#233b8e"/><g fill="#4da6ea"><path d="m33 32a3 3 0 0 0 -3-3v2a1 1 0 0 1 0 2v2a1 1 0 0 1 0 2v2a2.987 2.987 0 0 0 2.22-5 2.981 2.981 0 0 0 .78-2z"/><path d="m35 37v-2a1 1 0 0 0 0-2v-2a3 3 0 0 1 0 6z"/><path d="m40 33h2v2h-2z"/><path d="m44 33h2v2h-2z"/></g></g></svg>