<?xml version="1.0" encoding="iso-8859-1"?>
<!-- Generator: Adobe Illustrator 19.0.0, SVG Export Plug-In . SVG Version: 6.00 Build 0)  -->
<svg version="1.1" id="Capa_1" xmlns="http://www.w3.org/2000/svg" xmlns:xlink="http://www.w3.org/1999/xlink" x="0px" y="0px"
	 viewBox="0 0 512 512" style="enable-background:new 0 0 512 512;" xml:space="preserve">
<path style="fill:#FED42D;" d="M502,187.564v240c0,11.05-8.95,20-20,20H250.65c3.4-5.88,5.35-12.71,5.35-20
	c0-24.86-22.69-44.43-48.49-39.13c-14.72,3.03-27,14.91-30.4,29.56c-2.51,10.83-0.62,21.17,4.24,29.57H30c-11.05,0-20-8.95-20-20
	v-80c22.09,0,40-17.91,40-40s-17.91-40-40-40v-80h491.97H502z"/>
<g>
	<circle style="fill:#FEA832;" cx="146" cy="277.56" r="30"/>
	<circle style="fill:#FEA832;" cx="336" cy="347.56" r="40"/>
	<path style="fill:#FEA832;" d="M396,227.564c11.05,0,20,8.95,20,20c0,11.05-8.95,20-20,20s-20-8.95-20-20
		S384.95,227.564,396,227.564z"/>
	<path style="fill:#FEA832;" d="M501.97,187.564H10l262.79-115.75c22.77-10.51,44.44-8.24,74.84-2.88
		C428.42,83.174,493.34,140.634,501.97,187.564z"/>
</g>
<path d="M462,317.564c5.52,0,10-4.48,10-10s-4.48-10-10-10s-10,4.48-10,10S456.48,317.564,462,317.564z"/>
<path d="M458.122,108.193C427.323,83.459,388.7,66.019,349.366,59.086c-29.841-5.262-54.733-8.336-80.684,3.609
	C154.614,112.939,6.183,178.319,6.063,178.371C5.963,178.461,0,180.8,0,187.564v0.113c0,0.02,0,0.04,0,0.06v79.827
	c0,5.522,4.477,10,10,10c16.542,0,30,13.458,30,30s-13.458,30-30,30c-5.523,0-10,4.478-10,10v80c0,16.542,13.458,30,30,30h151.35
	c3.574,0,6.877-1.907,8.663-5.004c1.786-3.096,1.783-6.91-0.007-10.004c-2.711-4.686-5.459-12.359-3.155-22.302
	c2.491-10.732,11.815-19.79,22.671-22.024C229.26,394.175,246,409.138,246,427.564c0,5.275-1.386,10.461-4.007,14.994
	c-1.789,3.094-1.791,6.907-0.005,10.003c1.786,3.096,5.088,5.003,8.662,5.003H482c16.542,0,30-13.458,30-30v-240
	c0-0.891-0.129-1.75-0.349-2.572C506.685,159.51,487.224,131.566,458.122,108.193z M276.821,80.965
	c0.054-0.023,0.107-0.047,0.16-0.072c19.013-8.774,37.372-7.674,68.913-2.11c36.076,6.358,71.485,22.342,99.704,45.005
	c20.999,16.864,36.158,35.903,43.117,53.776H57.511L276.821,80.965z M492,427.564c0,5.514-4.486,10-10,10H264.992
	c0.667-3.277,1.008-6.629,1.008-10c0-31.438-28.745-55.445-60.507-48.925c-18.54,3.817-33.861,18.724-38.125,37.097
	c-1.694,7.31-1.79,14.737-0.354,21.828H30c-5.514,0-10-4.486-10-10v-71.005c22.794-4.646,40-24.85,40-48.995
	s-17.206-44.35-40-48.995v-61.005h472V427.564z"/>
<path d="M336,397.564c27.57,0,50-22.43,50-50s-22.43-50-50-50s-50,22.43-50,50S308.43,397.564,336,397.564z M336,317.564
	c16.542,0,30,13.458,30,30s-13.458,30-30,30s-30-13.458-30-30S319.458,317.564,336,317.564z"/>
<path d="M106,397.564c11.028,0,20-8.972,20-20s-8.972-20-20-20s-20,8.972-20,20S94.972,397.564,106,397.564z"/>
<path d="M246,297.564c11.028,0,20-8.972,20-20s-8.972-20-20-20s-20,8.972-20,20S234.972,297.564,246,297.564z"/>
<path d="M396,277.564c16.542,0,30-13.458,30-30s-13.458-30-30-30s-30,13.458-30,30S379.458,277.564,396,277.564z M396,237.564
	c5.514,0,10,4.486,10,10s-4.486,10-10,10s-10-4.486-10-10S390.486,237.564,396,237.564z"/>
<path d="M146,317.564c22.056,0,40-17.944,40-40s-17.944-40-40-40s-40,17.944-40,40S123.944,317.564,146,317.564z M146,257.564
	c11.028,0,20,8.972,20,20s-8.972,20-20,20s-20-8.972-20-20S134.972,257.564,146,257.564z"/>
<path d="M462,417.564c5.523,0,10-4.478,10-10v-60c0-5.522-4.477-10-10-10s-10,4.478-10,10v60
	C452,413.086,456.477,417.564,462,417.564z"/>
<g>
</g>
<g>
</g>
<g>
</g>
<g>
</g>
<g>
</g>
<g>
</g>
<g>
</g>
<g>
</g>
<g>
</g>
<g>
</g>
<g>
</g>
<g>
</g>
<g>
</g>
<g>
</g>
<g>
</g>
</svg>
