<svg height="512pt" viewBox="0 -44 512.00003 512" width="512pt" xmlns="http://www.w3.org/2000/svg"><path d="m296.078125 15.53125v96.1875c20.9375 0 38.742187-13.386719 45.347656-32.0625h163.058594v-32.0625h-163.058594c-6.605469-18.679688-24.410156-32.0625-45.347656-32.0625zm0 0" fill="#e5e4e0"/><path d="m333.410156 63.625c-5.742187 16.238281-19.953125 28.472656-37.332031 31.390625v16.703125c20.9375 0 38.742187-13.386719 45.347656-32.0625h163.058594v-16.03125zm0 0" fill="#d8d6d0"/><path d="m352.1875 272.03125c0 53.121094-43.066406 96.1875-96.1875 96.1875s-96.1875-43.066406-96.1875-96.1875c0-53.125 43.066406-96.1875 96.1875-96.1875s96.1875 43.0625 96.1875 96.1875zm0 0" fill="#ffe477"/><path d="m320.125 272.03125c0 35.414062-28.710938 64.125-64.125 64.125s-64.125-28.710938-64.125-64.125c0-35.417969 28.710938-64.125 64.125-64.125s64.125 28.707031 64.125 64.125zm0 0" fill="#ffeda4"/><path d="m288.0625 272.03125c0 17.707031-14.355469 32.0625-32.0625 32.0625s-32.0625-14.355469-32.0625-32.0625 14.355469-32.0625 32.0625-32.0625 32.0625 14.355469 32.0625 32.0625zm0 0" fill="#fff6d2"/><path d="m336.15625 264.015625c32.699219 0 59.660156 24.480469 63.609375 56.109375h32.242187c-4.074218-49.371094-45.429687-88.171875-95.851562-88.171875-50.425781 0-91.78125 38.800781-95.855469 88.171875h32.246094c3.949219-31.628906 30.910156-56.109375 63.609375-56.109375zm0 0" fill="#ffeda4"/><path d="m336.15625 264.015625c-32.699219 0-59.660156 24.480469-63.609375 56.109375h32.558594c3.558593-13.828125 16.113281-24.046875 31.050781-24.046875 14.941406 0 27.492188 10.21875 31.054688 24.046875h32.554687c-3.949219-31.628906-30.910156-56.109375-63.609375-56.109375zm0 0" fill="#fff6d2"/><path d="m336.15625 296.078125c-14.941406 0-27.492188 10.21875-31.050781 24.046875h62.101562c-3.558593-13.828125-16.113281-24.046875-31.050781-24.046875zm0 0" fill="#fffae8"/><path d="m175.84375 264.015625c32.699219 0 59.660156 24.480469 63.609375 56.109375h32.242187c-4.074218-49.371094-45.429687-88.171875-95.851562-88.171875-50.425781 0-91.78125 38.800781-95.855469 88.171875h32.246094c3.949219-31.628906 30.910156-56.109375 63.609375-56.109375zm0 0" fill="#ffeda4"/><path d="m175.84375 264.015625c-32.699219 0-59.660156 24.480469-63.609375 56.109375h32.558594c3.558593-13.828125 16.113281-24.046875 31.050781-24.046875 14.941406 0 27.492188 10.21875 31.054688 24.046875h32.554687c-3.949219-31.628906-30.910156-56.109375-63.609375-56.109375zm0 0" fill="#fff6d2"/><path d="m175.84375 296.078125c-14.941406 0-27.492188 10.21875-31.050781 24.046875h62.101562c-3.558593-13.828125-16.113281-24.046875-31.050781-24.046875zm0 0" fill="#fffae8"/><path d="m416.3125 368.21875h-320.625l-88.171875-48.09375h496.96875zm0 0" fill="#f2f1ef"/><path d="m7.515625 320.125 88.171875 48.09375h48.09375l-88.171875-48.09375zm0 0" fill="#e5e4e0"/><path d="m95.6875 368.21875 17.785156 26.675781c8.917969 13.382813 23.933594 21.417969 40.015625 21.417969h205.023438c16.078125 0 31.09375-8.039062 40.015625-21.417969l17.785156-26.675781zm0 0" fill="#e5e4e0"/><path d="m390.574219 400.28125h-205.023438c-16.078125 0-31.09375-8.039062-40.015625-21.417969l-7.097656-10.644531h-42.75l17.785156 26.675781c8.917969 13.378907 23.933594 21.417969 40.015625 21.417969h205.023438c13.863281 0 26.929687-5.988281 35.988281-16.210938-1.300781.105469-2.609375.179688-3.925781.179688zm0 0" fill="#d8d6d0"/><path d="m57.242188 259.597656c-4.28125 16.042969-.144532 33.867188 12.441406 46.453125 12.585937 12.585938 30.410156 16.722657 46.453125 12.441407 4.28125-16.042969.140625-33.863282-12.445313-46.449219-12.585937-12.585938-30.40625-16.726563-46.449218-12.445313zm0 0" fill="#8bdca3"/><path d="m81.707031 294.023438c-9.898437-9.894532-14.546875-23.03125-14.007812-35.992188-3.523438.148438-7.03125.652344-10.457031 1.566406-4.28125 16.042969-.144532 33.867188 12.441406 46.449219 12.585937 12.585937 30.40625 16.726563 46.449218 12.445313.917969-3.429688 1.421876-6.9375 1.566407-10.457032-12.960938.535156-26.09375-4.113281-35.992188-14.011718zm0 0" fill="#6ed38c"/><path d="m180.257812 259.597656c-16.039062-4.28125-33.863281-.140625-46.449218 12.445313-12.585938 12.585937-16.722656 30.40625-12.441406 46.449219 16.039062 4.28125 33.863281.144531 46.449218-12.441407 12.585938-12.585937 16.722656-30.410156 12.441406-46.453125zm0 0" fill="#a8e5ba"/><path d="m180.257812 259.597656c-3.734374-.996094-7.566406-1.515625-11.40625-1.601562.277344 12.652344-4.386718 25.390625-14.042968 35.046875-9.652344 9.652343-22.390625 14.316406-35.042969 14.042969.085937 3.839843.605469 7.667968 1.601563 11.40625 16.042968 4.28125 33.867187.140624 46.449218-12.445313 12.585938-12.582031 16.722656-30.40625 12.441406-46.449219zm0 0" fill="#8bdca3"/><g fill="#f38763"><path d="m296.078125 288.0625c0 13.28125-10.765625 24.046875-24.046875 24.046875s-24.046875-10.765625-24.046875-24.046875 10.765625-24.046875 24.046875-24.046875 24.046875 10.765625 24.046875 24.046875zm0 0"/><path d="m376.234375 272.03125c0 8.851562-7.175781 16.03125-16.03125 16.03125s-16.03125-7.179688-16.03125-16.03125c0-8.855469 7.175781-16.03125 16.03125-16.03125s16.03125 7.175781 16.03125 16.03125zm0 0"/><path d="m231.953125 231.953125c0 8.851563-7.175781 16.03125-16.03125 16.03125s-16.03125-7.179687-16.03125-16.03125c0-8.855469 7.175781-16.03125 16.03125-16.03125s16.03125 7.175781 16.03125 16.03125zm0 0"/></g><path d="m296.078125 119.234375c21.703125 0 41.316406-12.6875 50.378906-32.0625h158.027344c4.152344 0 7.515625-3.367187 7.515625-7.515625v-32.0625c0-4.152344-3.363281-7.515625-7.515625-7.515625h-158.027344c-9.0625-19.378906-28.675781-32.0625-50.378906-32.0625h-80.65625v-.5c0-4.152344-3.367187-7.515625-7.515625-7.515625s-7.515625 3.363281-7.515625 7.515625v.5h-8.515625c-4.148438 0-7.515625 3.363281-7.515625 7.515625 0 4.148438 3.367187 7.515625 7.515625 7.515625h8.515625v17.03125h-8.515625c-4.148438 0-7.515625 3.363281-7.515625 7.515625 0 4.148438 3.367187 7.515625 7.515625 7.515625h8.515625v17.03125h-8.515625c-4.148438 0-7.515625 3.363281-7.515625 7.515625 0 4.148438 3.367187 7.515625 7.515625 7.515625h8.515625v17.03125h-8.515625c-4.148438 0-7.515625 3.363281-7.515625 7.515625 0 4.148438 3.367187 7.515625 7.515625 7.515625h8.515625v64.625c0 .175781.015625.347656.027344.523437-15.441407 9.792969-28.285157 23.710938-36.945313 40.796876-24.855468 2.957031-47.742187 14.769531-64.644531 33.527343-12.851563-7.882812-28.625-10.347656-43.523437-6.367187-2.601563.691406-4.628907 2.722656-5.324219 5.324218-5.105469 19.140626.40625 39.714844 14.390625 53.699219.425781.425781.871094.835938 1.3125 1.246094h-58.167969c-3.433594 0-6.433594 2.332031-7.28125 5.65625-.847656 3.332031.667969 6.8125 3.683594 8.457031l86.542969 47.207032 16.757812 25.136718c10.335938 15.503906 27.636719 24.761719 46.269531 24.761719h205.023438c18.636719 0 35.933593-9.257813 46.269531-24.761719l16.757812-25.136718 86.542969-47.207032c3.015625-1.644531 4.53125-5.125 3.683594-8.453125s-3.84375-5.65625-7.28125-5.65625h-65.816406c-3.484375-23.195312-14.710938-44.507812-32.101563-60.601562-16.164062-14.957031-36.425781-24.261719-58.046875-26.835938-8.433593-16.621093-21.175781-30.683593-36.945312-40.710937-9.890625-6.289063-20.714844-10.796875-32.027344-13.425782v-51.804687zm-7.515625-47.09375h-9.015625v-.5c0-4.152344-3.363281-7.515625-7.515625-7.515625s-7.515625 3.363281-7.515625 7.515625v.5h-17.03125v-17.03125h41.078125zm-24.046875 15.03125v17.03125h-17.03125v-17.03125zm15.03125 0h9.015625v17.03125h-9.015625zm54.792969-37.074219c1.0625 3.003906 3.898437 5.011719 7.082031 5.011719h155.546875v17.03125h-155.542969c-3.1875 0-6.023437 2.007813-7.085937 5.011719-4.871094 13.773437-16.738282 23.699218-30.746094 26.347656v-79.75c14.007812 2.644531 25.875 12.574219 30.746094 26.347656zm-118.917969-27.050781h73.140625v17.03125h-41.078125v-.5c0-4.152344-3.367187-7.515625-7.515625-7.515625s-7.515625 3.363281-7.515625 7.515625v.5h-17.03125zm0 32.0625h17.03125v17.03125h-17.03125zm0 32.0625h17.03125v17.03125h-17.03125zm0 32.0625h17.03125v51.773437c-5.863281 1.351563-11.558594 3.199219-17.03125 5.515626zm-39.578125 120.230469c6.335938 0 12.007812.679687 18.648438 2.222656 3.710937 8.136719 11.917968 13.808594 21.429687 13.808594 2.710937 0 5.3125-.464844 7.738281-1.3125 6.496094 4.230468 14.472656 10.339844 21.027344 18.144531-2.675781 4.636719-4.21875 10.007813-4.21875 15.734375 0 9.90625 4.59375 18.757812 11.757812 24.546875h-6.460937c-6.273437-28.417969-29.3125-50.429687-58.316406-55.160156-.746094-2.496094-2.726563-4.433594-5.25-5.109375-19.144531-5.109375-39.71875.40625-53.703125 14.390625-3.933594 3.933593-7.199219 8.390625-9.746094 13.191406-2.222656-4.195313-5-8.125-8.289062-11.675781 16.796874-18.351563 40.347656-28.78125 65.382812-28.78125zm127.75 48.597656c0-1.992188-.195312-3.941406-.550781-5.832031 9.667969-7.007813 21.058593-10.703125 33.113281-10.703125.171875 0 .34375.015625.511719.019531 0 .160156-.011719.320313-.011719.484375 0 6.875 2.964844 13.074219 7.683594 17.382812-2.652344-.558593-5.390625-.851562-8.183594-.851562-16.050781 0-30.277344 9.640625-36.40625 24.046875h-7.910156c7.160156-5.792969 11.753906-14.640625 11.753906-24.546875zm73.183594.675781c6.542968 6.726563 11.269531 14.894531 13.8125 23.871094h-18.023438c-2.988281-7.019531-7.898437-12.90625-14.003906-17.097656.542969.039062 1.089844.0625 1.640625.0625 6.457031 0 12.316406-2.613281 16.574219-6.835938zm-21.609375 23.871094h-38.023438c4.550781-5.566406 11.449219-9.019531 19.011719-9.019531 7.558594 0 14.457031 3.453125 19.011719 9.019531zm5.035156-32.0625c-4.695313 0-8.515625-3.820313-8.515625-8.515625s3.820312-8.519531 8.515625-8.519531 8.515625 3.824219 8.515625 8.519531-3.820312 8.515625-8.515625 8.515625zm-101.03125-21.882813c-.257813.285157-.476563.585938-.683594.894532-1.164062.554687-2.28125 1.183594-3.359375 1.867187-3.527344-4.039062-7.320312-7.65625-11.097656-10.832031 3.617188-2.027344 7.707031-3.113281 11.96875-3.113281 4.105469 0 8.058594 1.003906 11.578125 2.890625-2.941406 2.59375-5.753906 5.355468-8.40625 8.292968zm12.859375 45.929688c-9.117188 0-16.53125-7.417969-16.53125-16.53125 0-9.117188 7.414062-16.535156 16.53125-16.535156s16.53125 7.417968 16.53125 16.535156c0 9.113281-7.417969 16.53125-16.53125 16.53125zm8.265625-63.800781c-6.917969-5.402344-15.378906-8.339844-24.296875-8.339844-5.953125 0-11.703125 1.304687-16.929688 3.78125.257813-1.390625.398438-2.820313.398438-4.28125 0-4.707031-1.394531-9.089844-3.78125-12.769531 6.445312-2.472656 13.335938-3.765625 20.3125-3.765625 15.464844 0 29.804688 6.113281 40.398438 16.964843-5.59375 2.324219-10.984376 5.140626-16.101563 8.410157zm-55.859375-8.839844c0 4.695313-3.820312 8.515625-8.515625 8.515625s-8.515625-3.820312-8.515625-8.515625 3.820312-8.519531 8.515625-8.519531 8.515625 3.824218 8.515625 8.519531zm-12.1875 80.65625c-4.722656-11.046875-14.296875-19.402344-25.847656-22.609375 1.839844-5.40625 2.847656-11.089844 2.972656-16.835938 19.757812 4.835938 35.371094 19.980469 40.894531 39.445313zm-49.746094-11.875c-9.140625 9.136719-22.136718 13.324219-34.792968 11.414063-1.90625-12.65625 2.273437-25.65625 11.410156-34.792969 9.140625-9.136719 22.136718-13.320313 34.792968-11.414063 1.90625 12.65625-2.273437 25.65625-11.410156 34.792969zm10.625 10.628906c2.332032-2.332031 4.425782-4.851562 6.273438-7.511719 6.148437.894532 11.632812 4.097657 15.453125 8.757813h-23.035157c.4375-.410156.882813-.820313 1.308594-1.246094zm-109.542968-45.421875c12.65625-1.898437 25.652343 2.277344 34.792968 11.414063 9.136719 9.136719 13.316406 22.140625 11.410156 34.792969-12.652343 1.902343-25.652343-2.273438-34.792968-11.414063-9.136719-9.136719-13.316406-22.136719-11.410156-34.792969zm350.8125 94.761719h-29.144532c-4.152344 0-7.515625 3.363281-7.515625 7.515625 0 4.148438 3.363281 7.511719 7.515625 7.511719h17.019532l-9.996094 14.996093c-7.542969 11.316407-20.167969 18.070313-33.765625 18.070313h-205.023438c-13.597656 0-26.21875-6.753906-33.761719-18.070313l-9.996093-14.996093h238.648437c4.152344 0 7.515625-3.363281 7.515625-7.511719 0-4.152344-3.363281-7.515625-7.515625-7.515625h-250.777344l-60.617187-33.066406h438.03125zm9.066406-48.09375h-17.375c-3.246094-14.757813-11.054688-28.015625-22.472656-38.113281.085937-.808594.132812-1.632813.132812-2.464844 0-12.984375-10.5625-23.546875-23.546875-23.546875-7.164063 0-13.585937 3.21875-17.90625 8.28125-2.039063-.171875-4.09375-.265625-6.140625-.265625-14.039062 0-27.835938 4.183594-39.484375 11.875-3.796875-4.746094-8.933594-8.371094-14.832031-10.304688 15.4375-11.953124 34.546875-18.605468 54.316406-18.605468 43.027344 0 79.894531 31.523437 87.308594 73.144531zm-92.53125-88.035156c-6.429688.324219-12.777344 1.246093-18.96875 2.738281-13.535156-16.902344-34.261719-26.921875-55.964844-26.921875-12.003906 0-23.820312 3.019531-34.292969 8.734375-1.851562-.46875-3.789062-.71875-5.785156-.71875-10.941406 0-20.160156 7.5-22.792969 17.632812-4.117187-.777343-8.03125-1.246093-12.058594-1.457031 16.1875-25.632812 44.152344-41.226562 74.929688-41.226562 30.84375 0 58.757812 15.574219 74.933594 41.21875zm-66.417969-55.886719c-2.824219-.230469-5.664063-.359375-8.515625-.359375-2.863281 0-5.699219.128906-8.515625.355469v-49.449219h17.03125zm0 0"/></svg>