<svg id="Capa_1" enable-background="new 0 0 512 512" height="512" viewBox="0 0 512 512" width="512" xmlns="http://www.w3.org/2000/svg"><g><g><path d="m484.5 67.572h-68.331c-48.784 0-88.331 39.547-88.331 88.331 0 48.783 39.547 88.33 88.331 88.33 48.784 0 88.331-39.547 88.331-88.33v-68.331c0-11.046-8.954-20-20-20z" fill="#ffc6c2"/></g><g><path d="m98.956 67.633-10.168-.061h-61.288c-11.046 0-20 8.954-20 20v68.331c0 48.783 39.547 88.33 88.331 88.33 48.784 0 88.331-39.547 88.331-88.33-.001-47.738-37.871-86.624-85.206-88.27z" fill="#ffc6c2"/></g><g><path d="m95.831 244.233c48.784 0 88.331-39.547 88.331-88.33 0-48.783-39.547-88.33-88.33-88.33 11.057 0 20.021 8.964 20.021 20.021s-8.964 20.021-20.021 20.021l-48.289 48.288c0 11.057-8.964 20.021-20.021 20.021s-20.021-8.964-20.021-20.021v.001c-.001 48.782 39.546 88.329 88.33 88.329z" fill="#ffa8ad"/></g><g><path d="m416.17 244.233c-48.784 0-88.331-39.547-88.331-88.33 0-48.783 39.547-88.33 88.33-88.33-11.057 0-20.021 8.964-20.021 20.021s8.964 20.021 20.021 20.021l48.289 48.288c0 11.057 8.964 20.021 20.021 20.021s20.021-8.964 20.021-20.021v.001c0 48.782-39.547 88.329-88.33 88.329z" fill="#ffa8ad"/></g><g><path d="m96.1 204.19c-26.914.148-48.557-22.238-48.557-49.153v-47.423h47.423c26.915 0 49.301 21.644 49.153 48.559-.146 26.413-21.607 47.872-48.019 48.017z" fill="#fc979e"/></g><g><path d="m415.9 204.19c26.914.148 48.557-22.238 48.557-49.153v-47.423h-47.423c-26.915 0-49.301 21.644-49.153 48.559.147 26.413 21.607 47.872 48.019 48.017z" fill="#fc979e"/></g><g><path d="m256 107.614c-110.574 0-200.212 89.638-200.212 200.212 0 85.207 100.106 133.672 200.212 136.603 100.106-2.931 200.212-51.396 200.212-136.603 0-110.574-89.638-200.212-200.212-200.212z" fill="#ffd7d1"/></g><g><path d="m177.982 123.386c-71.813 30.414-122.194 101.543-122.194 184.44 0 85.207 100.106 133.672 200.212 136.603 33.108-.969 66.213-6.924 95.699-17.536-209.13-.001-258.614-260.671-173.717-303.507z" fill="#ffc6c2"/></g><g><ellipse cx="256" cy="286.142" fill="#ffc6c2" rx="67.979" ry="49.675"/></g><g><path d="m230.995 286.142c0-21.945 19.483-40.554 46.492-47.127-6.756-1.644-13.975-2.548-21.487-2.548-37.544 0-67.979 22.24-67.979 49.675s30.435 49.675 67.979 49.675c7.512 0 14.731-.904 21.487-2.548-27.009-6.574-46.492-25.182-46.492-47.127z" fill="#ffa8ad"/></g><g><path d="m270.697 362.229c-3.926 3.926-9.145 6.088-14.697 6.088s-10.771-2.162-14.697-6.088c-2.929-2.928-7.678-2.928-10.606 0-2.929 2.93-2.929 7.678 0 10.607 6.976 6.976 16.14 10.464 25.303 10.464s18.327-3.488 25.303-10.464c2.929-2.93 2.929-7.678 0-10.607-2.928-2.928-7.678-2.928-10.606 0z"/><path d="m174.478 206.422c-11.726 0-21.265 9.54-21.265 21.266 0 4.143 3.358 7.5 7.5 7.5s7.5-3.357 7.5-7.5c0-3.455 2.811-6.266 6.265-6.266s6.265 2.811 6.265 6.266c0 4.143 3.358 7.5 7.5 7.5s7.5-3.357 7.5-7.5c0-11.726-9.54-21.266-21.265-21.266z"/><path d="m331.257 227.688c0-3.455 2.811-6.266 6.265-6.266s6.265 2.811 6.265 6.266c0 4.143 3.358 7.5 7.5 7.5s7.5-3.357 7.5-7.5c0-11.726-9.54-21.266-21.265-21.266s-21.265 9.54-21.265 21.266c0 4.143 3.358 7.5 7.5 7.5s7.5-3.358 7.5-7.5z"/><path d="m484.5 60.071h-68.331c-36.995 0-70.057 20.846-86.085 53.672-23.424-8.938-48.483-13.629-74.085-13.629-26.084 0-51.053 4.846-74.073 13.664-15.466-31.588-47.224-52.406-82.71-53.64-.072-.003-.144-.004-.215-.005l-10.214-.062h-61.287c-15.164 0-27.5 12.337-27.5 27.5v68.331c0 38.642 23.165 73.253 58.304 88.191-6.493 20.092-10.016 41.507-10.016 63.732 0 9.046 1.072 17.967 3.188 26.514.845 3.416 3.907 5.7 7.274 5.7.597 0 1.203-.072 1.808-.222 4.021-.995 6.474-5.061 5.479-9.082-1.823-7.369-2.748-15.077-2.748-22.91 0-106.262 86.45-192.712 192.712-192.712 48.193 0 94.32 17.879 129.883 50.344 3.059 2.794 7.804 2.576 10.596-.482 2.792-3.06 2.577-7.803-.482-10.596-5.56-5.076-11.367-9.81-17.378-14.213 6.43-14.962 21.585-25.052 38.417-25.052h39.922v39.923c0 17.549-11.134 33.331-27.054 39.206-3.873-5.937-8.053-11.689-12.543-17.221-2.61-3.216-7.334-3.707-10.549-1.097-3.216 2.61-3.708 7.333-1.097 10.55 27.728 34.164 42.998 77.261 42.998 121.352 0 46.624-32.085 76.183-59.001 92.77-35.044 21.596-83.769 34.833-133.711 36.33-81.095-2.43-151.405-33.891-179.159-80.184-2.131-3.553-6.736-4.707-10.289-2.576-3.553 2.13-4.706 6.736-2.576 10.289 15.677 26.148 43.028 48.179 79.098 63.708 33.358 14.363 72.332 22.58 112.707 23.763.073.002.146.003.22.003s.146-.001.22-.003c103.11-3.02 207.492-53.486 207.492-144.1 0-21.735-3.454-43.244-10.051-63.714 35.164-14.93 58.336-49.528 58.336-88.211v-68.331c0-15.163-12.336-27.5-27.5-27.5zm-469.5 95.831v-68.331c0-6.893 5.607-12.5 12.5-12.5h61.242l10.058.061c29.618 1.069 56.138 18.318 69.295 44.53-7.63 3.579-15.007 7.607-22.099 12.053-9.333-18.991-29.122-31.601-51.029-31.601h-47.424c-4.142 0-7.5 3.357-7.5 7.5v47.423c0 22.895 13.947 43.523 34.258 52.244-4.061 7.31-7.693 14.888-10.863 22.702-29.225-12.768-48.438-41.755-48.438-74.081zm67.165 38.369c-15.968-5.852-27.122-21.623-27.122-39.233v-39.923h39.923c16.884 0 32.049 10.123 38.455 25.137-20.146 14.775-37.537 33.088-51.256 54.019zm414.835-38.369c0 32.353-19.213 61.32-48.451 74.083-3.141-7.779-6.757-15.367-10.819-22.722 20.28-8.736 34.227-29.39 34.227-52.226v-47.423c0-4.143-3.358-7.5-7.5-7.5h-47.422c-21.851 0-41.638 12.583-50.991 31.525-7.139-4.466-14.523-8.485-22.117-12.035 13.653-27.26 41.317-44.533 72.243-44.533h68.33c6.893 0 12.5 5.607 12.5 12.5z"/><path d="m308.493 244.961c-14.114-10.314-32.757-15.994-52.493-15.994s-38.379 5.68-52.493 15.994c-14.822 10.831-22.985 25.456-22.985 41.181s8.163 30.35 22.985 41.181c14.114 10.314 32.757 15.994 52.493 15.994s38.379-5.68 52.493-15.994c14.822-10.831 22.985-25.456 22.985-41.181s-8.163-30.35-22.985-41.181zm-52.493 83.355c-33.348 0-60.479-18.92-60.479-42.175s27.13-42.175 60.479-42.175 60.479 18.92 60.479 42.175-27.131 42.175-60.479 42.175z"/><path d="m231.006 262.028h-.006c-4.14 0-7.497 3.354-7.5 7.494l-.01 13.091c-.003 4.143 3.352 7.503 7.494 7.506h.006c4.14 0 7.497-3.354 7.5-7.494l.01-13.091c.003-4.142-3.352-7.503-7.494-7.506z"/><path d="m281.016 262.164h-.006c-4.14 0-7.497 3.354-7.5 7.494l-.01 13.092c-.003 4.143 3.352 7.503 7.494 7.506h.006c4.14 0 7.497-3.354 7.5-7.494l.01-13.092c.004-4.143-3.352-7.503-7.494-7.506z"/></g></g></svg>