<svg id="Capa_1" enable-background="new 0 0 512 512" height="512" viewBox="0 0 512 512" width="512" xmlns="http://www.w3.org/2000/svg"><path d="m96.207 132.184c0 15.491-8.372 23.373-18.699 23.373s-18.699-7.883-18.699-23.373 7.506-43.397 17.833-43.397 19.565 27.906 19.565 43.397z" fill="#ff5426"/><path d="m76.642 88.787c-1.003 0-1.978.27-2.923.759 5.588 9.482 9.509 24.837 9.509 34.928 0 15.491-8.372 23.373-18.699 23.373-.564 0-1.12-.034-1.672-.081 3.425 5.167 8.708 7.79 14.65 7.79 10.327 0 18.699-7.883 18.699-23.373s-9.237-43.396-19.564-43.396z" fill="#f04424"/><path d="m114.922 7.501c-10.256 0-19.111 5.904-23.417 14.486-3.393-2.387-7.52-3.801-11.984-3.801-11.524 0-20.866 9.342-20.866 20.867 0 .287.031.566.043.85-.528-.047-1.06-.081-1.6-.081-9.837 0-17.811 7.974-17.811 17.811 0 9.836 7.974 17.811 17.811 17.811 9.251 0 16.85-7.053 17.723-16.075 1.513.349 3.082.552 4.701.552 6.71 0 12.664-3.181 16.482-8.102 4.771 4.984 11.475 8.102 18.919 8.102 14.475 0 26.209-11.734 26.209-26.209-.001-14.477-11.735-26.211-26.21-26.211z" fill="#ff5426"/><path d="m114.922 7.501c-3.155 0-6.175.563-8.974 1.587 10.042 3.671 17.209 13.31 17.209 24.622 0 11.311-7.165 20.948-17.203 24.621 2.797 1.024 5.815 1.588 8.968 1.588 14.475 0 26.209-11.734 26.209-26.209s-11.734-26.209-26.209-26.209z" fill="#f04424"/><path d="m85.514 106.805h-40.583c-4.35 0-7.068-4.725-4.858-8.471 4.699-7.963 13.626-19.22 27.988-23.095z" fill="#ffd500"/><path d="m68.061 75.239c-1.529.412-2.983.924-4.39 1.491l5.202 9.408c2.681 4.849-.826 10.796-6.367 10.796h-21.581c-.297.475-.583.944-.852 1.399-2.211 3.746.508 8.471 4.858 8.471h40.584z" fill="#fbc700"/><path d="m449.945 196.746h-194.28c-16.144 0-30.97-8.912-38.544-23.17l-38.08-71.685c-17.134-32.254-50.673-52.415-87.195-52.415h-7.828c-11.75 0-22.282 7.917-24.869 19.379-2.153 9.539 1.407 19.199 8.794 25.073l21.777 17.317c2.348 1.867 3.243 5.023 2.227 7.844l-11.248 31.215c-14.333 39.776-14.395 83.298-.175 123.114l19.534 54.695.002.005c22.256 80.601 99.928 128.377 192.335 128.377 109.765 0 160.177-67.404 160.177-177.168 0-17.765 11.686-34.984 18.445-51.37 6.138-14.881-4.974-31.211-21.072-31.211z" fill="#efe2dd"/><g fill="#e1d3ce"><path d="m449.945 196.746h-15.988c-6.356 13.108-13.527 26.689-13.527 40.605 0 109.765-50.413 177.169-160.177 177.169-58.264 0-110.663-18.999-147.014-53.238 32.088 60.369 100.244 95.213 179.155 95.213 109.765 0 160.177-67.404 160.177-177.168 0-17.765 11.686-34.984 18.445-51.37 6.139-14.881-4.973-31.211-21.071-31.211z"/><path d="m58.824 70.583c-.456 2.957-.371 5.901.193 8.72l.789-2.189c.806-2.241.391-4.682-.982-6.531z"/><path d="m379.552 248.003c-3.5-14.95-16.833-25.522-32.187-25.522h-87.795c-37.005 0-67.004 29.999-67.004 67.004s29.999 67.004 67.004 67.004c15.519 0 29.793-5.29 41.151-14.146l.009.015s4.994-4.225 7.171-6.494l61.696-55.863c8.88-8.068 12.69-20.315 9.955-31.998z"/></g><path d="m379.552 248.003c-2.284-9.756-8.756-17.645-17.244-21.951.53 1.385.975 2.816 1.32 4.292 2.735 11.683-1.075 23.93-9.955 32l-61.696 55.863c-2.177 2.269-7.171 6.494-7.171 6.494l-.009-.015c-11.358 8.856-25.633 14.146-41.151 14.146-15.46 0-29.685-5.25-41.023-14.045 11.82 19.027 32.899 31.703 56.947 31.703 15.519 0 29.793-5.29 41.151-14.146l.009.015s4.994-4.225 7.171-6.494l61.696-55.863c8.88-8.069 12.69-20.316 9.955-31.999z" fill="#cdbfba"/><path d="m475.122 202.702c-5.639-8.425-15.051-13.456-25.176-13.456h-2.5c-4.143 0-7.5 3.358-7.5 7.5s3.358 7.5 7.5 7.5h2.5c5.186 0 9.818 2.478 12.71 6.798 2.84 4.243 3.361 9.366 1.427 14.052-1.765 4.279-3.89 8.632-6.14 13.241-6.328 12.963-12.872 26.366-12.872 40.99 0 71.337-22.501 155.299-124.817 168.019v-23.853c0-4.143-3.358-7.5-7.5-7.5s-7.5 3.358-7.5 7.5v25.156c-4.171.221-8.447.345-12.858.345-91.837 0-164.494-48.23-185.105-122.873-.05-.182-.108-.363-.172-.541l-19.53-54.685c-13.6-38.081-13.541-80.006.168-118.048l11.248-31.216c2.109-5.854.254-12.387-4.615-16.258l-21.779-17.316c-5.285-4.203-7.64-10.928-6.145-17.551 1.769-7.84 9.151-13.53 17.552-13.53h7.828c33.829 0 64.702 18.559 80.571 48.434l38.08 71.686c8.897 16.747 26.203 27.151 45.167 27.151h159.446c4.143 0 7.5-3.358 7.5-7.5s-3.358-7.5-7.5-7.5h-159.445c-13.402 0-25.632-7.352-31.919-19.188l-38.08-71.686c-18.479-34.787-54.429-56.397-93.819-56.397h-7.828c-15.129 0-28.487 10.308-32.028 24.6-3.103-1.779-5.202-5.118-5.202-8.944 0-5.685 4.625-10.309 10.31-10.309.25 0 .547.017.938.051 2.141.188 4.278-.553 5.839-2.044 1.562-1.489 2.406-3.579 2.318-5.736-.007-.178-.019-.353-.03-.528l-.006-.093c.043-7.333 6.022-13.286 13.366-13.286 2.752 0 5.404.842 7.669 2.436 1.785 1.254 4.027 1.672 6.145 1.139 2.116-.532 3.896-1.96 4.874-3.91 3.202-6.384 9.606-10.349 16.712-10.349 8.46 0 15.893 5.699 18.075 13.857 1.07 4.001 5.184 6.378 9.184 5.307 4.002-1.07 6.378-5.182 5.307-9.184-3.936-14.71-17.327-24.983-32.568-24.983-10.257 0-19.697 4.57-26.012 12.283-2.994-1.054-6.157-1.598-9.388-1.598-13.519 0-24.86 9.507-27.689 22.187-11.438 2.43-20.046 12.608-20.046 24.759 0 9.64 5.418 18.036 13.368 22.309-5.242 4.927-9.032 10.329-11.541 14.581-2.384 4.04-2.42 9.083-.092 13.16 2.333 4.085 6.705 6.623 11.409 6.623h8.464c-1.329 6.238-2.086 12.549-2.086 17.879 0 16.752 8.119 26.232 17.921 29.53-10.293 37.448-8.893 77.484 4.23 114.228l19.445 54.446c16.897 60.814 65.064 105.494 129.649 124.083l-12.087 33.71c-14.16.105-27.271 3.435-36.054 9.183-3.466 2.269-4.437 6.917-2.168 10.383s6.917 4.437 10.383 2.168c6.452-4.223 17.117-6.744 28.529-6.744s22.078 2.521 28.53 6.744c1.267.829 2.692 1.226 4.1 1.226 2.445 0 4.844-1.194 6.283-3.394 2.268-3.466 1.297-8.115-2.169-10.383-5.759-3.769-13.383-6.494-21.938-7.958l11.203-31.246c17.456 3.826 35.95 5.836 55.227 5.836 4.369 0 8.649-.116 12.858-.324v25.387c-13.674.289-26.267 3.587-34.787 9.164-3.467 2.268-4.438 6.916-2.169 10.382 1.44 2.2 3.837 3.395 6.283 3.395 1.408 0 2.833-.397 4.1-1.226 6.453-4.222 17.118-6.743 28.531-6.743 11.414 0 22.078 2.521 28.529 6.743 3.464 2.267 8.114 1.298 10.383-2.168s1.298-8.115-2.168-10.383c-6.152-4.026-14.428-6.868-23.701-8.246v-27.519c42.211-4.827 75.465-21.07 99.074-48.49 27.036-31.398 40.744-76.698 40.744-134.64 0-11.158 5.771-22.978 11.351-34.408 2.253-4.616 4.582-9.387 6.528-14.101 3.819-9.255 2.761-19.765-2.827-28.116zm-419.653-111.875c1.667 2.828 3.779 5.424 6.308 7.691-.708.164-1.387.429-2.016.786h-11.436c1.83-2.719 4.202-5.723 7.144-8.477zm13.321 23.478h12.727l3.25 2.584-10.994 30.512c-4.735-1.792-7.463-7.198-7.463-15.217 0-5.148.932-11.699 2.48-17.879z"/><circle cx="95.568" cy="78.873" r="7.949"/><path d="m192.96 279c-4.133-.184-7.64 3.027-7.821 7.165-.048 1.1-.073 2.217-.073 3.32 0 41.082 33.422 74.505 74.504 74.505 16.56 0 32.226-5.325 45.342-15.404.23-.153.451-.321.664-.501.526-.446 5.103-4.33 7.541-6.823l61.525-55.708c10.887-9.893 15.567-24.937 12.214-39.259-4.316-18.437-20.554-31.313-39.49-31.313h-87.796c-26.737 0-51.567 14.451-64.8 37.714-2.048 3.6-.79 8.179 2.811 10.227s8.179.789 10.228-2.811c10.572-18.584 30.406-30.13 51.761-30.13h87.795c11.931 0 22.164 8.114 24.883 19.732 2.113 9.025-.835 18.504-7.686 24.729l-61.695 55.863c-.13.117-.255.239-.376.365-1.433 1.492-4.695 4.332-6.234 5.647-.05.036-.099.073-.147.111-10.541 8.217-23.176 12.56-36.54 12.56-32.81 0-59.503-26.693-59.503-59.504 0-.892.02-1.779.058-2.663.181-4.138-3.026-7.64-7.165-7.822z"/></svg>