<svg id="Capa_1" enable-background="new 0 0 512 512" height="512" viewBox="0 0 512 512" width="512" xmlns="http://www.w3.org/2000/svg"><g><path d="m174.945 233.14c-3.949 0-7.773-1.561-10.605-4.394l-67.818-67.817c-5.858-5.857-5.858-15.354-.001-21.213l3.958-3.957c36.134-36.135 87.715-52.184 137.976-42.926 4.739.873 8.771 3.969 10.836 8.322s1.914 9.435-.408 13.657l-60.793 110.555c-2.273 4.135-6.36 6.958-11.031 7.623-.705.101-1.412.15-2.114.15z" fill="#bebcdd"/><path d="m382.9 398.667c-3.839 0-7.677-1.464-10.606-4.394l-58.637-58.636c-3.021-3.021-4.61-7.186-4.37-11.451s2.288-8.226 5.629-10.887l123.721-98.57c4.314-3.438 10.166-4.228 15.237-2.063 5.072 2.166 8.546 6.94 9.047 12.433 5.297 58.102-15.314 115.074-56.549 156.309l-12.867 12.867c-2.927 2.927-6.767 4.392-10.605 4.392z" fill="#aaa5d3"/><path d="m356.18 15.987c-47.635 14.066-88.132 37.055-118.792 67.716-60.971 60.97-88.886 155.269-101.567 223.64l-.839 4.524c-18.754-3.398-36.318-2.969-52.293 1.312-42.1 11.281-70.156 48.724-80.264 64.299-2.318 3.572-3.015 7.977-1.911 12.083 1.101 4.097 3.902 7.548 7.687 9.47 14.277 7.25 49.484 22.469 86.479 18.3-4.168 36.993 11.05 72.202 18.3 86.479 3.76 7.81 14.377 10.654 21.553 5.774 15.575-10.108 53.018-38.164 64.298-80.264 4.28-15.973 4.709-33.537 1.311-52.292l4.525-.84c68.371-12.682 162.67-40.598 223.64-101.567 30.661-30.66 53.649-71.156 67.716-118.792z" fill="#e2dff4"/><path d="m112.978 503.81c3.76 7.81 14.377 10.654 21.553 5.774 15.575-10.108 53.018-38.164 64.298-80.264 4.28-15.973 4.709-33.537 1.311-52.292l4.525-.84c68.371-12.682 162.67-40.598 223.64-101.567 30.661-30.66 53.649-71.156 67.716-118.792l-69.921-69.921-331.421 331.422c-4.168 36.993 11.049 72.202 18.299 86.48z" fill="#bebcdd"/><path d="m350.549 161.46c-12.535-12.536-23.563-26.417-33.189-41.206-1.325.927-2.506 2.07-3.485 3.401-19.612 26.658-35.909 61.723-48.438 104.219-1.554 5.271-.102 10.969 3.785 14.853 2.854 2.852 6.684 4.39 10.604 4.39 1.419 0 2.85-.201 4.25-.615 42.574-12.583 77.647-28.856 104.244-48.367 1.338-.981 2.485-2.167 3.416-3.497-14.782-9.624-28.657-20.648-41.187-33.178z" fill="#f4f4f6"/><path d="m279.826 247.116c1.419 0 2.85-.201 4.25-.615 42.574-12.583 77.647-28.856 104.244-48.367 1.338-.981 2.485-2.167 3.416-3.497-14.781-9.623-28.656-20.646-41.186-33.177l-81.295 81.295c2.849 2.832 6.664 4.361 10.571 4.361z" fill="#e2dff4"/><path d="m510.949 14.478c-.716-7.093-6.325-12.703-13.419-13.418-1.652-.167-41.049-3.988-92.631 4.062-16.937 2.644-33.205 6.283-48.72 10.865 2.14 38.399 16.822 72.914 41.875 97.967s59.568 39.735 97.966 41.875c4.581-15.515 8.221-31.783 10.865-48.72 8.052-51.583 4.231-90.979 4.064-92.631z" fill="#f4f4f6"/><path d="m398.055 113.954c25.053 25.053 59.568 39.735 97.966 41.875 4.581-15.515 8.221-31.783 10.865-48.72 8.051-51.583 4.229-90.979 4.063-92.631-.358-3.546-1.939-6.722-4.318-9.101z" fill="#e2dff4"/><path d="m396.986 212.998c-2.697 0-5.427-.727-7.888-2.252-18.284-11.332-34.822-24.346-49.156-38.68-14.334-14.333-27.348-30.872-38.679-49.155-4.364-7.042-2.193-16.288 4.848-20.652 7.042-4.363 16.288-2.194 20.652 4.848 10.117 16.324 21.688 31.043 34.393 43.747s27.422 24.275 43.747 34.393c7.042 4.364 9.212 13.61 4.848 20.652-2.84 4.58-7.745 7.099-12.765 7.099z" fill="#bebcdd"/><path d="m389.098 210.746c2.461 1.525 5.19 2.252 7.888 2.252 5.02 0 9.925-2.52 12.764-7.1 4.364-7.042 2.193-16.288-4.848-20.652-16.324-10.117-31.042-21.688-43.747-34.393l-21.213 21.213c14.334 14.335 30.873 27.348 49.156 38.68z" fill="#aaa5d3"/><circle cx="421.706" cy="66.161" fill="#0a617d" r="15"/></g></svg>