<svg height="512" viewBox="0 0 128 128" width="512" xmlns="http://www.w3.org/2000/svg"><g><g><path d="m66.325 98.409a62.586 62.586 0 0 1 -20.661-6.409c-1.747 6.25-.457 11.083 4.5 13.833-2.834 8 .25 13.584 3.416 15.667 2.584-4.083 5.989-8.233 15.084-16.333z" fill="#fd637b"/><path d="m31.167 24.192a30.808 30.808 0 0 0 30.807 30.808h9.193a19.5 19.5 0 0 1 19.5 19.5v.015a23.988 23.988 0 0 1 -6.567 16.494 23.987 23.987 0 0 1 -17.418 7.491h-.182a3.333 3.333 0 0 0 -3.333 3.333 3.334 3.334 0 0 0 3.333 3.334h7.908a47.1 47.1 0 0 0 25.092-7.243 47.1 47.1 0 0 0 22-39.85 33.882 33.882 0 0 0 -33.882-33.882z" fill="#fd637b"/><path d="m117.07 41.31c-8.4 18.03-27.56 22.27-29.5 22.65a19.453 19.453 0 0 0 -16.4-8.96c7.16-4.67 10.16-25 3.66-30.81h12.79a33.877 33.877 0 0 1 29.45 17.12z" fill="#ff3e63"/><path d="m108.69 90.35a47.091 47.091 0 0 1 -34.28 14.82h-7.91a3.335 3.335 0 0 1 0-6.67h.18a23.946 23.946 0 0 0 22.77-16.46c3.38 4.63 9.94 8.34 19.24 8.31z" fill="#ff3e63"/><circle cx="53.498" cy="33.48" fill="#385b60" r="3"/></g><g fill="#001d38"><path d="m87.618 22.442h-38.412a1.75 1.75 0 0 0 0 3.5h24.894c1.936 2.2 2.879 6.717 2.474 12.037-.509 6.674-3 12.955-5.986 15.271h-8.614a29.1 29.1 0 0 1 -29-27.308h7.114a1.75 1.75 0 0 0 0-3.5h-8.921a1.75 1.75 0 0 0 -1.75 1.75c0 .862.043 1.713.109 2.558h-12.026a9.387 9.387 0 0 1 -1.768-.19 9.242 9.242 0 0 1 8.938-11.62h46.5a1.75 1.75 0 0 0 0-3.5h-46.5a12.744 12.744 0 0 0 -12.75 12.75c0 .233.018.465.031.7a9.31 9.31 0 0 1 -3.701-7.39 9.246 9.246 0 0 1 9.25-9.25h46.5a1.75 1.75 0 0 0 0-3.5h-46.5a12.744 12.744 0 0 0 -12.75 12.75 12.832 12.832 0 0 0 8.31 11.949 12.8 12.8 0 0 0 11.61 7.491h7.348a32.675 32.675 0 0 0 7.069 10.381c-5.409 5.249-5.187 14.137-5.176 14.547a1.75 1.75 0 0 0 1.748 1.692h.059a1.75 1.75 0 0 0 1.691-1.807c0-.084-.2-7.964 4.306-12.1a32.587 32.587 0 0 0 6.67 4.116c-3.274 5.406-2.765 12.2-2.739 12.52a1.749 1.749 0 0 0 1.742 1.6c.048 0 .1 0 .146-.006a1.752 1.752 0 0 0 1.6-1.883c-.005-.069-.479-6.469 2.551-10.922a32.319 32.319 0 0 0 8.366 1.614 23.957 23.957 0 0 0 -.31 11.62 1.75 1.75 0 0 0 3.4-.833c-.015-.063-1.4-5.926.607-10.725h7.42a17.773 17.773 0 0 1 17.75 17.765 22.236 22.236 0 0 1 -22.236 22.231h-.182c-.019 0-.037 0-.057.006a62.956 62.956 0 0 1 -19.981-6.312 1.751 1.751 0 0 0 -2.488 1.087c-2.29 8.227.7 12.681 4.113 15.061-2.235 7.761.567 13.761 4.531 16.37a1.751 1.751 0 0 0 2.44-.524c2.482-3.91 5.77-7.9 14.286-15.521h5.064a48.842 48.842 0 0 0 41.135-22.51 1.75 1.75 0 1 0 -2.948-1.886 45.388 45.388 0 0 1 -4.645 6.068c-7.086-.148-13.033-2.63-16.548-6.9a25.875 25.875 0 0 0 1.015-7.189 21.093 21.093 0 0 0 -2.181-9.317c5.447-1.464 18.986-6.354 26.8-20.012a31.924 31.924 0 0 1 2.714 12.9 45.448 45.448 0 0 1 -.969 9.328 1.75 1.75 0 0 0 1.353 2.072 1.72 1.72 0 0 0 .362.038 1.75 1.75 0 0 0 1.71-1.39 48.926 48.926 0 0 0 1.044-10.048 35.672 35.672 0 0 0 -35.632-35.629zm-62.948 11a9.268 9.268 0 0 1 -6.952-3.19h12.272a32.518 32.518 0 0 0 .772 3.19zm28.559 85.423c-1.859-2.13-3.581-6.333-1.41-12.447a1.75 1.75 0 0 0 -.8-2.116c-3.547-1.967-4.913-5.168-4.143-9.75a68.145 68.145 0 0 0 15.1 5.008 5.016 5.016 0 0 0 -.562 2.275 5.088 5.088 0 0 0 3.145 4.7c-5.984 5.516-9.075 9.079-11.33 12.328zm51.423-27a45.415 45.415 0 0 1 -30.244 11.555h-7.908a1.584 1.584 0 0 1 0-3.167h.182a25.749 25.749 0 0 0 23.346-14.9 24.617 24.617 0 0 0 14.624 6.509zm-16.308-29.823a21.253 21.253 0 0 0 -13.314-8.423c2.947-3.951 4.635-10.089 5.038-15.374.379-4.981-.274-9.251-1.812-12.3h9.362a32.143 32.143 0 0 1 27.456 15.455c-7.366 14.955-22.614 19.631-26.73 20.642z"/><path d="m119.278 72.478a1.748 1.748 0 0 0 -2.241 1.048c-.422 1.163-.9 2.322-1.412 3.444a1.75 1.75 0 1 0 3.181 1.46c.555-1.21 1.067-2.458 1.521-3.71a1.75 1.75 0 0 0 -1.049-2.242z"/><path d="m102.784 32.625a29.52 29.52 0 0 0 -6.608-2.925 1.75 1.75 0 0 0 -1.012 3.351 26.009 26.009 0 0 1 5.823 2.575 1.75 1.75 0 0 0 1.8-3z"/><path d="m58.249 33.479a4.75 4.75 0 1 0 -4.75 4.75 4.756 4.756 0 0 0 4.75-4.75zm-6 0a1.25 1.25 0 1 1 1.25 1.25 1.251 1.251 0 0 1 -1.25-1.25z"/></g></g></svg>