<svg height="512" viewBox="0 0 60 60" width="512" xmlns="http://www.w3.org/2000/svg"><g id="Page-1" fill="none" fill-rule="evenodd"><g id="003---Hot-Spice" fill-rule="nonzero" transform="translate(-1 -1)"><path id="Shape" d="m60 28.2c0 14-8 31.8-37 31.8-16 0-21-6-21-9s8 0 20-1c12.12-1.01 19-6.8 21-20.8.98-6.88 2.31-9.86 4.91-11.11 1.7007984.0921924 3.2822597.9029186 4.35 2.23.1929831.2048859.4614052.3218725.7428607.3237615.2814554.001889.5514235-.1114843.7471393-.3137615 1.0014601-1.2227192 2.5817746-1.8143829 4.14-1.55h.01c2.1 2.3 2.1 6.6 2.1 9.42z" fill="#f44335"/><path id="Shape" d="m57.9 18.78h-.01c-.9144068-.1745327-1.8610706-.0215937-2.674.432 1.761 2.374 1.784 6.329 1.784 8.988 0 13.784-7.771 31.24-35.691 31.775.551.015 1.112.025 1.691.025 29 0 37-17.8 37-31.8 0-2.82 0-7.12-2.1-9.42z" fill="#c81e1e"/><path id="Shape" d="m55 9v4.02c-.0103894.7405833.4005257 1.4228574 1.06 1.76 2 .97 2.21 2.96 2.94 4.42-.3392515-.2033169-.711573-.345476-1.1-.42h-.01c-1.5582254-.2643829-3.1385399.3272808-4.14 1.55-.1957158.2022772-.4656839.3156505-.7471393.3137615-.2814555-.001889-.5498776-.1188756-.7428607-.3237615-1.0677403-1.3270814-2.6492016-2.1378076-4.35-2.23-.3070161-.0066976-.6134226.0303406-.91.11.5312716-1.456626 1.5721245-2.6715464 2.93-3.42.6694176-.338062 1.0854917-1.0302228 1.07-1.78v-4c0-4.59 2.3-6.95 6.85-7 1.0294819-.03861976 1.9335555.67869686 2.13 1.69.0885959.57786031-.0793015 1.1656186-.4597623 1.60948949-.3804607.4438709-.9356258.69968547-1.5202377.70051051-2.57 0-3 .75-3 3z" fill="#60a917"/><path id="Shape" d="m30.49 43.75c-2.756775 1.3424187-5.7573578 2.1112755-8.82 2.26-.4.03-.8.06-1.2.08l-.47-.09s-5-1-5-7c0-.11 0-.21.01-.31.24-5.66 6.97-4.83 5.99-12.69 0 0 14.1 4.7 9.49 17.75z" fill="#ff9801"/><path id="Shape" d="m36.77 36.98c-1.2598558 2.906917-3.4757447 5.2957017-6.28 6.77 4.61-13.05-9.49-17.75-9.49-17.75.98 7.86-5.75 7.03-5.99 12.69h-.01c-1.6982511.2015885-3.4198217-.0359882-5-.69 0 0-5-2-3-10 0 0 2 5 6 2 1.32-.99 1.55-2.75 1.27-4.67-.6320606-2.9353211-1.7364233-5.7485754-3.27-8.33 0 0 12-1 18 7 0 0 3-1 2-5 0 0 6.1 2.03 6.58 10.55.0999978 2.5031326-.1729909 5.0072141-.81 7.43z" fill="#ff5722"/><path id="Shape" d="m37.65 29.55h-.07c-.48-8.52-6.58-10.55-6.58-10.55 1 4-2 5-2 5-6-8-18-7-18-7 1.5335767 2.5814246 2.6379394 5.3946789 3.27 8.33h-.01c-3.3080651 1.3719771-7.04693688 1.251721-10.26-.33 0 0-2-1-2-5-.08089728-3.566472.9692663-7.0670173 3-10 0 0 1 3 6 3 0 0 8 0 5-11 0 0 11 3 13 12 0 0 3-1 3-7 0 0 13.43 4.48 5.65 22.55z" fill="#f44335"/><path id="Shape" d="m26 14c1.0206018-.4965838 1.8047763-1.3748737 2.183-2.445-3.211-7.106-12.183-9.555-12.183-9.555.123.451.221.877.308 1.291 3.411 1.625 8.407 4.928 9.692 10.709z" fill="#c81e1e"/><path id="Shape" d="m32 7c-.0008167.54017417-.0301911 1.07992744-.088 1.617 2.927 2.17 6.7 6.843 4.486 15.812.7052209 1.6199016 1.1059109 3.3558857 1.182 5.121h.07c7.78-18.07-5.65-22.55-5.65-22.55z" fill="#c81e1e"/><g fill="#000"><path id="Shape" d="m59.9 18.754c-.1662367-.349033-.3141053-.7065212-.443-1.071-.415446-1.6216284-1.4856776-2.9978992-2.955-3.8-.3171032-.1687935-.5109218-.5029368-.5-.862v-4.021c0-1.773.074-2 2-2 .8756292.00029553 1.7076837-.38198531 2.2778522-1.04654115.5701686-.66455583.8215354-1.54504891.6881478-2.41045885-.2718663-1.5057437-1.6035323-2.58663314-3.133-2.543-5.126.059-7.835 2.825-7.835 8v4c.0142513.3590459-.1748733.6955252-.489.87-1.5685258.8390995-2.7788984 2.2193364-3.406 3.884-.0588293.125209-.0898728.2616638-.091.4-2.012 1.756-3.16 4.984-4 10.908-1.855 12.958-7.865 18.922-20.097 19.938-4.3635546.308593-8.7451576.2557462-13.1-.158-3.76-.285-6.03-.457-7.159.589-.43471652.4040701-.67445267.9757206-.658 1.569 0 4.02 5.859 10 22 10 35.26 0 38-25.1 38-32.8 0-2.4-.022-5.778-1.248-8.359.2631666-.2997256.3214544-.7278264.148-1.087zm-9.541-3.071c1.0202734-.5012429 1.6595216-1.5464002 1.641-2.683v-4c0-4.048 1.861-5.954 5.858-6 .5262892-.01929517.9956528.32878153 1.13.838.0475859.28985883-.0346753.58598061-.2249484.80976333-.1902731.22378273-.4693129.35259191-.7630516.35223667-3.346 0-4 1.467-4 4v4.022c-.0094867 1.1249194.6210042 2.157513 1.626 2.663.8082476.424114 1.4155561 1.1511583 1.689 2.022-1.6500943-.0125516-3.2244233.6916094-4.315 1.93-1.0985957-1.2977825-2.6133722-2.1742747-4.286-2.48.3934932-.6388637.9629235-1.1506565 1.64-1.474zm-27.359 43.317c-15.111 0-20-5.39-20-8-.00089698-.0335698.00212341-.0671298.009-.1.381-.465 3.3-.243 5.652-.065 4.4618014.4249132 8.9511015.4801013 13.422.165 13.168-1.1 19.924-7.776 21.907-21.656.892-6.266 2.032-9.089 4.155-10.242 1.3305491.1742945 2.5430001.8539259 3.386 1.898.3718532.4068415.8958553.6411396 1.447.647h.022c.5493734-.0023229 1.0747552-.2253759 1.458-.619.7075335-.8622673 1.7718589-1.3518496 2.887-1.328 1.64 2.085 1.655 5.919 1.655 8.5 0 7.225-2.6 30.8-36 30.8z"/><path id="Shape" d="m30.47 43.885c.2540782.0768259.5282764.0494834.7621803-.0760031.233904-.1254866.4083203-.3388202.4848197-.5929969 3.983-13.202-10.257-18.116-10.401-18.165-.3258221-.1084201-.6844854-.0420819-.949972.1757065-.2654867.2177884-.4006607.5565628-.358028.8972935.484 3.876-1.03 5.24-2.783 6.82-1.512 1.362-3.225 2.906-3.225 6.056 0 5.4 3.8 7.579 5.8 7.98.0657661.0137577.1328119.0204623.2.02.5118821-.001958.9396374-.3901521.991107-.8994437s-.289967-.9752211-.791107-1.0795563c-.17-.037-4.2-.95-4.2-6.021 0-2.26 1.131-3.28 2.563-4.57 1.585-1.428 3.511-3.163 3.533-6.9 3.2 1.486 10.467 5.962 7.706 15.112-.157488.527577.1411152 1.0832114.668 1.243z"/><path id="Shape" d="m22.2 37.02c-.5411704-.1079009-1.0674584.2429578-1.176.784-.939 4.7 2.034 6.74 3.737 7.166.0782073.019377.1584299.0294468.239.03.5031996-.0004773.9276661-.3747915.9910793-.8739798.0634131-.4991882-.2539816-.967743-.7410793-1.0940202-.314-.084-3.049-.937-2.27-4.836.1080912-.5398874-.2405837-1.0655818-.78-1.176z"/><path id="Shape" d="m36.791 36.978c.2593837.055453.5301724.0055836.7527837-.1386356.2226113-.1442191.3788061-.3709715.4342163-.6303644 3.151-14.705-6.563-18.125-6.662-18.158-.3463665-.1153782-.7280827-.0328337-.9958318.2153443-.267749.2481779-.3789746.6225437-.2901682.9766557.5 2.01-.2 3.013-.774 3.472-6.39-7.61-17.842-6.754-18.339-6.715-.3441575.0288362-.6490759.2332157-.8065306.5405982-.15745466.3073824-.14515608.6742543.0325306.9704018 1.434 2.398 4.929 9.689 2.257 11.689-.62332.5837815-1.4847024.840789-2.326.694-.98525698-.4437414-1.7559393-1.2578981-2.145-2.266-.16049737-.4038597-.5634591-.6578274-.99704354-.6283893-.43358443.0294381-.79852025.335542-.90295646.7573893-2.186 8.743 3.541 11.148 3.599 11.172.11840047.0469573.24462789.0710491.372.071.4780101.0009742.8898685-.3364834.9829115-.8053518.093043-.4688685-.1587502-.9380221-.6009115-1.1196482-.149-.063-3.224-1.431-2.814-6.461.53959365.5624773 1.21547276.9758591 1.962 1.2 1.4408188.3402755 2.9572365-.0375249 4.07-1.014 3.711-2.783.713-9.7-.919-12.834 3.355.057 11.177.845 15.519 6.634.2581419.3443619.7076574.4849362 1.116.349 1.735814-.6624153 2.8829852-2.3270863 2.884-4.185 2.217 1.536 5.846 5.586 3.823 15.027-.1155263.5398258.228244 1.0711479.768 1.187z"/><path id="Shape" d="m3.553 25.9c.13634725.066629.28624601.1008525.438.1.36873714-.0025063.70617304-.207735.878-.534.24979416-.4835848.07324172-1.0781252-.4-1.347-.058-.036-1.469-.88-1.469-4.119-.0708458-2.8535258.63422334-5.6727655 2.04-8.157.954 1.014 2.743 2.157 5.96 2.157 2.0262188-.0648874 3.9240901-1.0076184 5.2-2.583 1.422-1.861 1.82-4.5 1.189-7.871 3.017 1.207 9.249 4.412 10.64 10.671.0613759.2763271.2369846.5136982.483265.6532317s.5401583.1681563.808735.0787683c.139-.046 3.131-1.108 3.618-6.43 2.271 1.235 6.767 4.681 6.061 12.39-.0325112.3572656.1280462.7047371.4211917.9115254s.6743433.2414773 1 .091c.3256566-.1504773.5462971-.4632598.5788083-.8205254 1.06-11.654-8.582-15.007-8.68-15.04-.3054707-.10317631-.6419484-.05273674-.9037387.13547463s-.4167717.49110107-.4162613.81352537c0 3-.777 4.552-1.431 5.33-2.848-8.351-12.858-11.173-13.306-11.295-.3462545-.09449603-.7165946.00381957-.9703875.25761248s-.3521085.62413302-.2576125.97038752c.98 3.594.84 6.259-.416 7.922-.8975915 1.0867918-2.2111762 1.7455805-3.619 1.815-4.143 0-5.021-2.236-5.051-2.316-.12058516-.36254292-.43721067-.62469014-.81588713-.67550635s-.75321277.11858105-.96511287.43650635c-2.13500975 3.0998904-3.24309637 6.7917636-3.168 10.555 0 4.488 2.292 5.764 2.553 5.9z"/></g><path id="Shape" d="m46.591 33c-.064475.0001168-.1287984-.0062486-.192-.019-.5420069-.1053018-.8961026-.6299544-.791-1.172.138-.705.255-1.439.362-2.182.051089-.353693.2869901-.6532631.6188416-.7858652.3318516-.1326021.7092375-.0780908.9900001.143.2807625.2210908.4222473.5751723.3711583.9288652-.113.776-.236 1.542-.379 2.278-.0913059.4692439-.5019561.8082398-.98.809z" fill="#f5f5f5"/><path id="Shape" d="m37.061 50.08c-.4326682.0009032-.8168432-.2765508-.9520255-.6875597-.1351824-.4110089.0092932-.862338.3580255-1.1184403 3.878-2.853 6.565-6.961 8.214-12.557.0968799-.3476333.3735487-.6161003.7239391-.7024782s.7201398.0227348.9674963.2855073c.2473565.2627724.333943.6384357.2265646.9829709-1.777 6.031-4.7 10.48-8.946 13.6-.1712739.1271214-.378707.196149-.592.197z" fill="#f5f5f5"/></g></g></svg>