<svg height="512pt" viewBox="0 -72 512.00075 512" width="512pt" xmlns="http://www.w3.org/2000/svg"><path d="m344.179688 231.21875c0-4.75 1.402343-9.390625 4.039062-13.339844 5.226562-7.84375-.199219-18.375-9.617188-18.675781l-18.945312-.597656c-18.398438-.582031-31.492188 17.703125-25.019531 34.933593l17.476562 46.511719v72.144531c0 4.425782 3.589844 8.015626 8.015625 8.015626h25.101563c6.402343 0 10.222656-7.136719 6.671875-12.464844l-7.722656-11.585938zm0 0" fill="#f4dbb3"/><path d="m93.070312 242.5 18.640626 62.132812v47.5625c0 4.425782 3.589843 8.015626 8.015624 8.015626h25.101563c6.402344 0 10.222656-7.136719 6.671875-12.464844l-7.722656-11.585938v-68.9375c0-6.9375 2.25-13.6875 6.410156-19.238281l5.28125-7.039063c6.816406-9.089843 4.953125-21.988281-4.160156-28.777343l-30.859375-22.984375c-13.539063-10.082032-32.785157-.417969-32.785157 16.460937 0 12.484375 1.820313 24.898438 5.40625 36.855469zm0 0" fill="#f4dbb3"/><path d="m434.691406 46.808594c-6.738281-4.714844-14.761718-7.242188-22.988281-7.242188l-2.058594 7.011719-79.921875 36.65625c-6.320312 2.917969-13.199218 4.429687-20.15625 4.429687h-205.871094c-26.5625 0-48.097656 21.53125-48.097656 48.09375v40.628907s99.699219 109.675781 278.148438 80.949219c0 0 33.914062-5.921876 44.644531-9.851563 23.238281-8.515625 44.816406-24.765625 53.03125-52.339844 3.199219-10.738281 10.6875-37.164062 14.558594-50.851562 1.511719-5.347657 5.664062-9.464844 11.003906-10.988281l30.074219-8.59375c10.324218-2.949219 17.441406-12.386719 17.441406-23.125 0-3.703126-1.804688-7.171876-4.839844-9.296876zm0 0" fill="#fff5d7"/><path d="m341.863281 239.15625c-4.835937.90625-8.113281 1.480469-8.113281 1.480469-101.144531 16.28125-176.953125-21.292969-223.6875-48.765625-1.808594 4.4375-4.550781 17.835937-7.894531 21.292968 45.84375 28.828126 124.519531 61.40625 231.582031 44.171876 0 0 7.855469-1.375 17.1875-3.230469-4.058594-4.390625-7.207031-9.488281-9.074219-14.949219zm0 0" fill="#f9eac7"/><path d="m186.363281 132.25c-21.507812 26.347656-26.46875 64.769531 21.542969 67.636719 33.566406 2.003906 36.785156-31.203125 56.109375-48.597657 20.042969-18.035156 43.839844-13.527343 53.609375 1.503907 19.539062 30.058593 54.027344 3.648437 50.601562-25.050781-.128906-1.097657-4.828124-24.003907-28.5625-49.066407l-9.941406 4.558594c-6.320312 2.917969-13.195312 4.429687-20.15625 4.429687h-157.773437c28.554687 0 54.609375 20.039063 34.570312 44.585938zm0 0" fill="#eac89f"/><path d="m61.007812 217.917969 18.640626 62.128906v72.148437c0 4.425782 3.589843 8.015626 8.015624 8.015626h25.101563c6.402344 0 10.222656-7.136719 6.667969-12.464844l-7.722656-11.585938v-93.519531c0-6.941406 2.25-13.691406 6.414062-19.238281l5.277344-7.039063c6.820312-9.089843 4.953125-21.992187-4.160156-28.777343l-30.855469-22.984376c-13.542969-10.085937-32.789063-.421874-32.789063 16.460938 0 12.484375 1.824219 24.898438 5.410156 36.855469zm0 0" fill="#f9eac7"/><path d="m497.816406 118.136719c4.15625-4.367188 6.683594-10.210938 6.683594-16.550781 0-3.703126-1.804688-7.171876-4.839844-9.296876l-18.628906-13.035156c-.34375 1.984375-.578125 4.007813-.578125 6.09375 0 13.664063 6.902344 25.601563 17.363281 32.789063zm0 0" fill="#fad7cd"/><g fill="#eac89f"><path d="m356.636719 47.917969c5.246093 7.738281 15.871093 18.769531 35.636719 23.710937 0 0 32.066406-32.0625 32.066406-32.0625h-63.15625c-4.292969 0-6.957032 4.796875-4.546875 8.351563zm0 0"/><path d="m265.707031 220.261719c-21.171875-8.351563-44.144531 17.570312-29.433593 39.613281 29.242187 3.355469 61.75 3.210938 97.472656-2.539062 0 0 6.898437-1.203126 15.441406-2.886719v-28.175781h-21.042969c-29.421875 10.355468-44.707031.980468-62.4375-6.011719zm0 0"/><path d="m87.664062 191.871094c-3.675781-20.039063 25.046876-20.039063 24.382813-37.742188-.421875-11.136718-29.644531-25.820312-54.890625-30.328125-.980469 3.828125-1.558594 7.820313-1.558594 11.957031v45.304688c0 12.480469 1.824219 24.898438 5.410156 36.851562l3.519532 11.734376c7.414062-2.117188 28.128906-10.535157 23.136718-37.777344zm0 0"/><path d="m265.707031 220.261719c-21.171875-8.351563-44.144531 17.570312-29.433593 39.613281 29.242187 3.355469 61.75 3.210938 97.472656-2.539062 0 0 6.898437-1.203126 15.441406-2.886719v-28.175781h-21.042969c-29.421875 10.355468-44.707031.980468-62.4375-6.011719zm0 0"/></g><path d="m349.1875 254.449219v-2.429688c-3.199219-3.898437-5.742188-8.234375-7.324219-12.863281-4.835937.90625-8.117187 1.480469-8.117187 1.480469-37.550782 6.046875-71.59375 5.941406-101.972656 2.042969-.546876 5.554687.699218 11.5 4.5 17.199218 29.242187 3.351563 61.75 3.210938 97.472656-2.539062 0-.003906 6.898437-1.207032 15.441406-2.890625zm0 0" fill="#d2af8c"/><path d="m376.242188 231.21875c0-4.75 1.40625-9.390625 4.039062-13.339844 5.230469-7.84375-.195312-18.375-9.617188-18.675781l-18.941406-.597656c-18.398437-.582031-31.496094 17.703125-25.019531 34.933593l17.476563 46.511719v72.144531c0 4.425782 3.589843 8.015626 8.015624 8.015626h25.101563c6.402344 0 10.222656-7.136719 6.671875-12.464844l-7.726562-11.585938zm0 0" fill="#f9eac7"/><path d="m87.664062 191.871094c-1.828124-9.957032 4.347657-14.96875 10.941407-19.660156l-10.222657-7.609376c-13.539062-10.085937-32.785156-.421874-32.785156 16.460938 0 12.484375 1.820313 24.898438 5.410156 36.851562l3.519532 11.734376c7.414062-2.117188 28.128906-10.535157 23.136718-37.777344zm0 0" fill="#d2af8c"/><path d="m508.800781 89.535156-69.808593-48.867187c-6.164063-4.316407-13.148438-7.0625-20.492188-8.113281-1.742188-2.667969-2.691406-5.792969-2.691406-9.019532v-8.019531c0-4.140625-3.359375-7.5-7.5-7.5-4.144532 0-7.5 3.359375-7.5 7.5v8.019531c0 2.410156.273437 4.792969.808594 7.105469-5.800782-2.578125-9.859376-8.382813-9.859376-15.125v-8.015625c0-4.140625-3.355468-7.5-7.5-7.5-4.140624 0-7.5 3.359375-7.5 7.5v8.015625c0 6.066406 1.726563 11.734375 4.703126 16.546875h-29.265626c-2.414062 0-4.675781 1.160156-6.085937 3.117188-1.410156 1.957031-1.792969 4.46875-1.03125 6.757812.222656.667969 3.539063 10.195312 13.414063 19.757812l-31.914063 14.730469c-5.296875 2.445313-11.179687 3.738281-17.011719 3.738281h-205.871094c-15.191406 0-28.96875 6.125-39.015624 16.03125-.347657 0-.703126 0-1.066407 0-26.234375 0-47.578125 21.34375-47.578125 47.578126v100.089843c0 6.453125-1.894531 12.703125-5.472656 18.074219l-9.300781 13.953125c-2.300781 3.445313-1.367188 8.101563 2.078125 10.398437 1.28125.851563 2.726562 1.261719 4.152344 1.261719 2.425781 0 4.804687-1.175781 6.25-3.34375l9.300781-13.949219c5.226562-7.84375 7.988281-16.96875 7.988281-26.394531v-100.089843c0-14.246094 9.199219-26.378907 21.964844-30.792969-3.136719 6.957031-4.898438 14.664062-4.898438 22.777343v45.304688c0 13.222656 1.925782 26.347656 5.726563 39.011719l18.320312 61.078125v79.058594c0 4.144531 3.359375 7.5 7.5 7.5h80.164063c2.765625 0 5.308594-1.519532 6.609375-3.960938 1.304687-2.4375 1.164062-5.398438-.371094-7.699219l-14.769531-22.15625v-67.203125c0-5.28125 1.742187-10.515625 4.910156-14.738281l1.605469-2.140625c23.03125 10.164062 58.214843 19.222656 110.5 19.222656 9.816406 0 20.242187-.320312 31.300781-1.011718l5.019531 13.386718v78.800782c0 4.144531 3.359375 7.5 7.5 7.5h80.164063c2.765625 0 5.304687-1.519532 6.613281-3.960938 1.304687-2.4375 1.160156-5.398438-.375-7.699219l-14.773437-22.15625v-80.460937c28.410156-11.5625 47.355468-30.925782 54.867187-56.144532 3.589844-12.058593 12.664063-44.136718 15.863281-55.464843l34.648438-9.898438c13.46875-3.851562 22.878906-16.324219 22.878906-30.335937v-5.910156c0-2.449219-1.191406-4.742188-3.199219-6.144532zm-371.265625 250.785156 8.257813 12.390626h-14.035157l-12.546874-18.820313v-91.25c0-5.222656 1.710937-10.394531 4.8125-14.59375 3.957031 3.910156 10.414062 9.308594 20.160156 14.90625-5.101563 6.804687-7.910156 15.234375-7.910156 23.734375v69.472656c.003906 1.480469.441406 2.929688 1.261718 4.160156zm103.546875-87.253906c-3.984375-8.378906-1.347656-16.25 2.769531-21.058594 3.601563-4.207031 9.84375-7.6875 16.570313-4.839843 1.886719.800781 3.742187 1.632812 5.59375 2.460937 13.652344 6.113282 29.019531 12.992188 53.25 5.34375l5.921875 15.796875c-33.277344 3.597657-61.070312 3.90625-84.105469 2.296875zm78.054688 24.347656-3.96875-10.582031c5.03125-.453125 10.179687-.972656 15.453125-1.578125l6.058594 16.15625v71.300782h-17.066407v-72.660157c0-.902343-.160156-1.792969-.476562-2.636719zm177.863281-175.828124c0 7.351562-4.933594 13.894531-12 15.914062l-38.671875 11.046875c-2.5.714844-4.453125 2.675781-5.160156 5.179687-.125.445313-12.59375 44.703126-16.9375 59.277344-5.753907 19.320313-19.363281 34.109375-40.488281 44.058594v-5.84375c0-3.277344.960937-6.453125 2.777343-9.179688l11.996094-17.988281c2.296875-3.449219 1.367187-8.105469-2.082031-10.402343-3.445313-2.296876-8.101563-1.367188-10.398438 2.078124l-11.992187 17.992188c-3.46875 5.199219-5.300781 11.25-5.300781 17.5v104.945312c0 1.480469.4375 2.925782 1.261718 4.160157l8.257813 12.386719h-26.582031v-72.660157c0-.898437-.164063-1.792969-.480469-2.636719l-24.046875-64.128906c-1.453125-3.878906-5.777344-5.839844-9.65625-4.386718-3.875 1.453124-5.84375 5.777343-4.386719 9.65625l.878906 2.347656c-18.304687 5.5625-29.289062.65625-41.839843-4.964844-1.941407-.871094-3.890626-1.742188-5.871094-2.582031-11.683594-4.949219-24.960938-1.457031-33.820313 8.898437-7.164062 8.371094-9.738281 19.027344-7.59375 29.28125-23.65625-2.828125-41.34375-7.710937-54.097656-12.621094-22.445313-8.636718-33.578125-18.699218-37.628906-23.03125l8.625-11.496093c2.484375-3.3125 1.8125-8.015625-1.5-10.5s-8.015625-1.8125-10.5 1.5l-17.636719 23.515625c-5.101562 6.804687-7.914062 15.234375-7.914062 23.738281v93.519531c0 1.484375.4375 2.929688 1.261718 4.160156l8.257813 12.390626h-26.582031v-72.664063c0-.726563-.109376-1.453125-.316407-2.152344l-13.054687-43.511719c4.882812-2.027343 11.125-5.707031 15.773437-12.230468 5.957031-8.367188 7.804688-19.007813 5.488281-31.632813-.984374-5.375 1.566407-7.71875 9.109376-13.042969 6.691406-4.726562 15.859374-11.199218 15.390624-23.628906-.714843-19.015625-20.761718-25.527344-28.308593-27.980468-3.941407-1.277344-8.167969.878906-9.449219 4.820312-1.277344 3.9375.878906 8.167969 4.816406 9.449219 15.535156 5.042969 17.792969 10.046875 17.953125 14.273437.148438 3.914063-2.507812 6.1875-9.058593 10.8125-7.171876 5.0625-18.007813 12.714844-15.207032 28 1.542969 8.417969.578125 15.183594-2.871094 20.105469-2.265624 3.234375-5.332031 5.292969-7.980468 6.578125l-1.242188-4.144531c-3.378906-11.265625-5.09375-22.9375-5.09375-34.699219v-45.304688c0-22.386718 18.210938-40.597656 40.597656-40.597656h48.09375c15 0 28.863282 6.269532 32.964844 14.90625 2.445313 5.160156 1.03125 11.027344-4.203125 17.441406-18.925781 23.183594-19.863281 44.6875-14.425781 57.082032 4.171875 9.515625 14.730469 21.195312 41.332031 22.78125 1.152344.070312 2.277344.105468 3.375.105468 24.453125 0 34.789063-16.734374 43.949219-31.574218 4.441406-7.191406 8.636719-13.988282 14.25-19.039063 8.175781-7.359375 17.558594-10.769531 26.421875-9.601562 6.691406.878906 12.480469 4.382812 15.882813 9.617187 9.402343 14.464844 23.554687 20.011719 37.863281 14.824219 17.105469-6.195313 28.734375-25.898437 26.472656-44.847656-.203125-1.6875-.519531-3.441407-.945313-5.210938-.96875-4.023437-5.023437-6.503906-9.046874-5.53125-4.027344.96875-6.503907 5.019531-5.535157 9.046875.289063 1.199219.5 2.363282.632813 3.472656 1.621094 13.570313-7.398438 25.605469-16.6875 28.96875-7.621094 2.761719-14.601563-.3125-20.179688-8.894531-5.792968-8.917969-15.453125-14.863281-26.503906-16.316406-13.277344-1.75-26.917969 2.984375-38.40625 13.324219-7.214844 6.488281-12.179688 14.53125-16.980469 22.308594-9.742187 15.777343-16.574219 25.394531-33.667969 24.375-10.503906-.625-23.972656-3.535157-28.488281-13.832032-4.519531-10.308594.425781-27.015625 12.308594-41.574218 12.082031-14.800782 9.03125-27.25 6.132813-33.355469-1.453126-3.058594-3.476563-5.902344-5.972657-8.476563h117.234375c7.988282 0 16.042969-1.769531 23.296875-5.117187l4.292969-1.980469c2.226562 2.425781 5.46875 6.136719 8.847656 10.597656 1.476563 1.945313 3.714844 2.96875 5.984375 2.96875 1.578125 0 3.167969-.496094 4.523438-1.523437 3.300781-2.503907 3.949219-7.207031 1.445312-10.507813-2.335937-3.082031-4.59375-5.816406-6.566406-8.101562l20.898437-9.648438c5.121094 2.828125 11.125 5.296875 18.164063 7.058594 4.015625 1.003906 8.09375-1.4375 9.097656-5.457031 1.003907-4.019531-1.4375-8.089844-5.457031-9.097657-11.492188-2.871093-20.824219-8.296874-27.738281-16.121093-.34375-.390625-.675781-.78125-.996094-1.167969h46.34375c6.71875 0 13.179687 2.039062 18.683594 5.890625l66.613281 46.628906zm0 0"/><path d="m424.339844 72.144531c-4.140625 0-7.5 3.359375-7.5 7.5 0 4.144531 3.359375 7.5 7.5 7.5h.082031c4.140625 0 7.457031-3.355469 7.457031-7.5 0-4.140625-3.398437-7.5-7.539062-7.5zm0 0"/></svg>