<svg height="64" viewBox="0 6 60 54" width="64" fill="white" xmlns="http://www.w3.org/2000/svg">
    <g>
        <path d="m32 32c4.411 0 8-3.621 8-8.071 0-1.327-.328-2.646-.949-3.817l-6.168-11.582c-.376-.705-1.39-.705-1.766 0l-6.17 11.584c-.62 1.17-.947 2.489-.947 3.815 0 4.45 3.589 8.071 8 8.071zm-5.286-10.948 5.286-9.925 5.285 9.923c.468.883.715 1.878.715 2.879 0 3.347-2.691 6.071-6 6.071s-6-2.724-6-6.071c0-1.001.247-1.996.714-2.877z"/><path d="m32 28c1.324 0 1.323-2 0-2-1.103 0-2-.929-2-2.071 0-1.323-2-1.324-2 0 0 2.245 1.794 4.071 4 4.071z"/><path d="m43 30h16c1.324 0 1.323-2 0-2h-16c-1.324 0-1.323 2 0 2z"/><path d="m5 30h16c1.324 0 1.323-2 0-2h-16c-1.324 0-1.323 2 0 2z"/><path d="m59 33h-54c-1.324 0-1.323 2 0 2h54c.553 0 1-.448 1-1s-.447-1-1-1z"/><path d="m40 39c-2.206 0-4 1.794-4 4s1.794 4 4 4 4-1.794 4-4-1.794-4-4-4zm0 6c-1.103 0-2-.897-2-2s.897-2 2-2 2 .897 2 2-.897 2-2 2z"/><path d="m24 39c-2.206 0-4 1.794-4 4s1.794 4 4 4 4-1.794 4-4-1.794-4-4-4zm0 6c-1.103 0-2-.897-2-2s.897-2 2-2 2 .897 2 2-.897 2-2 2z"/><circle cx="32" cy="41" r="1.5"/><circle cx="16" cy="41" r="1.5"/><circle cx="8" cy="51" r="1.5"/><circle cx="24" cy="51" r="1.5"/><circle cx="40" cy="51" r="1.5"/><circle cx="56" cy="51" r="1.5"/><circle cx="48" cy="41" r="1.5"/><path d="m56 39c-2.206 0-4 1.794-4 4s1.794 4 4 4 4-1.794 4-4-1.794-4-4-4zm0 6c-1.103 0-2-.897-2-2s.897-2 2-2 2 .897 2 2-.897 2-2 2z"/><path d="m8 39c-2.206 0-4 1.794-4 4s1.794 4 4 4 4-1.794 4-4-1.794-4-4-4zm0 6c-1.103 0-2-.897-2-2s.897-2 2-2 2 .897 2 2-.897 2-2 2z"/><path d="m16 48c-2.206 0-4 1.794-4 4s1.794 4 4 4 4-1.794 4-4-1.794-4-4-4zm0 6c-1.103 0-2-.897-2-2s.897-2 2-2 2 .897 2 2-.897 2-2 2z"/><path d="m32 48c-2.206 0-4 1.794-4 4s1.794 4 4 4 4-1.794 4-4-1.794-4-4-4zm0 6c-1.103 0-2-.897-2-2s.897-2 2-2 2 .897 2 2-.897 2-2 2z"/><path d="m48 48c-2.206 0-4 1.794-4 4s1.794 4 4 4 4-1.794 4-4-1.794-4-4-4zm0 6c-1.103 0-2-.897-2-2s.897-2 2-2 2 .897 2 2-.897 2-2 2z"/>
    </g>
</svg>