<svg height="64" viewBox="0 0 50 60" width="64" xmlns="http://www.w3.org/2000/svg"><g id="Page-1" fill="none" fill-rule="evenodd"><g id="043---Blueberries" fill="white" fill-rule="nonzero" transform="translate(-1)"><path id="Shape" d="m49.388 4.644c-3.008-.689-10.588-1.875-16.009 1.992-1.6895668 1.24292512-3.0885706 2.8384719-4.1 4.676-.3147886-1.0866109-.7674725-2.12842244-1.347-3.1-3.468-5.733-10.912-7.631-13.953-8.181-.9948068-.17805995-1.9652088.41742374-2.257 1.385-1.2245717 3.86840093-1.5064078 7.97353908-.822 11.973-5.26873964 1.2868417-9.18194767 5.7138811-9.8123126 11.1007372-.63036492 5.3868562 2.15502006 10.5977587 6.9843126 13.0662628-2.59225716 2.4583011-4.06392385 5.8714692-4.072 9.444-.00535713 2.4910807.71346789 4.9300133 2.069 7.02-.04085342.1569211-.06399776.3179253-.069.48-.00763788.8597053.50065918 1.6402762 1.29 1.981l.616.274c.06719076.0289428.10772086.0982493.1.171l-.072.671c-.10160359.8540252.31841694 1.6857919 1.066 2.111.74060221.4348881 1.669693.3836659 2.358-.13l.542-.4c.0570916-.0431687.1359084-.0431687.193 0l.543.4c.6197102.4566343 1.4385825.5405131 2.138.219.7346656.1324126 1.4795018.2003379 2.226.203 4.1356514.0227058 8.0327443-1.9338362 10.4850607-5.2640423 2.4523163-3.3302061 3.164062-7.6323925 1.9149393-11.5749577 3.9944506 1.5071279 8.4741733.9582225 11.9865768-1.4687286s5.6102985-6.4229553 5.6134232-10.6922714c.0008195-3.4811325-1.3989486-6.8162134-3.884-9.254.241-.149.484-.3.715-.462 5.427-3.868 6.769-11.422 7.092-14.484.1082282-1.00371176-.5511326-1.92982382-1.535-2.156zm-35.764-2.644c2.163.391 9.466 2.069 12.6 7.25.9050878 1.5592754 1.4663006 3.2940569 1.646 5.088-.7332666 1.988396-1.2401312 4.0530893-1.511 6.155-.149.108-.3.214-.443.329-.3666666-.8346186-.8201651-1.6283246-1.353-2.368-.663-3.008-2.3-8.322-5.94-11.235-.4313344-.34517796-1.060822-.27533438-1.406.15600001-.345178.43133438-.2753344 1.06082202.156 1.40599999 2.0055049 1.8172627 3.4822908 4.1430104 4.274 6.731-2.216203-1.6307937-4.8954472-2.5109116-7.647-2.512-.379 0-.753.025-1.124.057-.989-4.434.181-9.157.748-11.057zm-10.624 24c0-6.0751322 4.92486775-11 11-11 6.0751322 0 11 4.9248678 11 11s-4.9248678 11-11 11c-6.07216255-.0071635-10.9928365-4.9278374-11-11zm7.721 31.566-.543.4c-.0528713.0383244-.1234408.0416308-.1796639.008418-.05622309-.0332129-.08738523-.0966157-.0793361-.161418l.073-.671c.1045771-.9386918-.41314208-1.8363957-1.278-2.216l-.615-.274c-.06359295-.0224276-.10419664-.0847686-.099-.152-.00447869-.067584.03630085-.1299767.1-.153l.614-.272c.8655666-.3800097 1.3836786-1.2785026 1.279-2.218l-.073-.669c-.01174537-.0662345.02057162-.1324844.08-.164.0259004-.0149351.0551132-.0231834.085-.024.0341072.0006003.0669599.0129642.093.035l.544.4c.7599403.5601246 1.7960597.5601246 2.556 0l.543-.4c.0507461-.0409574.1219636-.0449809.177-.01.0602035.0309047.0933983.0972943.082.164l-.073.67c-.1045771.9386918.4131421 1.8363957 1.278 2.216l.615.274c.0639896.0220705.1050621.0845007.1.152.0044787.067584-.0363008.1299767-.1.153l-.614.272c-.8655666.3800097-1.3836786 1.2785026-1.279 2.218l.073.669c.0113983.0667057-.0217965.1330953-.082.164-.0550824.0353374-.1267167.0308855-.177-.011l-.544-.4c-.7601523-.5594793-1.7958477-.5594793-2.556 0zm17.279-10.566c-.0071635 6.0721626-4.9278374 10.9928365-11 11-.318 0-.632-.02-.943-.047.0140312-.1184509.0180454-.2378743.012-.357l-.069-.669c-.0079795-.0733077.0324934-.1433258.1-.173l.615-.272c.7841054-.3471346 1.2897619-1.1239898 1.2897619-1.9815s-.5056565-1.6343654-1.2897619-1.9815l-.616-.274c-.0671908-.0289428-.1077209-.0982493-.1-.171l.072-.671c.0932774-.8527877-.326012-1.6801611-1.068888-2.1092099-.7428759-.4290487-1.6690623-.3787562-2.361112.1282099l-.543.4c-.0568889.0426667-.1351111.0426667-.192 0l-.543-.4c-.6918619-.5079469-1.61860738-.5587583-2.36185437-.1294952s-1.16236647 1.2573801-1.06814563 2.1104952l.072.669c.00797948.0733077-.03249343.1433258-.1.173l-.458.2c-.95191716-1.6565223-1.45097374-3.5344512-1.447-5.445.01144743-3.3409391 1.53507143-6.4970173 4.144-8.584 4.1043559 1.2755701 8.5741041.433536 11.933-2.248.9629968 2.249651 2.5463325 4.1787886 4.565 5.562.8869286 1.615194 1.3538858 3.427318 1.358 5.27zm17-16c-.0064879 4.0240687-2.2062698 7.7245328-5.7382382 9.6528405-3.5319683 1.9283076-7.8342695 1.7777103-11.2227618-.3928405-.025-.02-.052-.036-.079-.054-2.0059463-1.3153193-3.5230461-3.25448-4.317-5.518 2.9129727-3.1903956 4.0244074-7.6327516 2.957-11.819 3.2182257-2.9357907 7.866495-3.6941231 11.8509247-1.9333949 3.9844297 1.7607281 6.553163 5.7082697 6.5490753 10.0643949zm-2.33-11.345c-.3823068.2672148-.7810997.5100309-1.194.727-2.1423303-1.5170189-4.6961014-2.345137-7.321-2.374 1.5748208-2.837708 4.1370487-4.9981643 7.2-6.071.3347579-.125043.5773773-.4191786.6364658-.7716089.0590886-.3524303-.0743307-.7096127-.35-.937s-.6517079-.29043406-.9864658-.1653911c-3.9326842 1.3767573-7.1209481 4.3185451-8.809 8.128-1.1210873.1867919-2.2125492.5210227-3.246.994.2795763-1.5013277.6952931-2.974076 1.242-4.4.007-.02.018-.037.024-.058.9060653-2.558971 2.5318678-4.80182829 4.682-6.459 4.885-3.496 12.252-2.168 14.386-1.684-.234 2.184-1.365 9.58-6.264 13.071z"/><path id="Shape" d="m40.71 30.519-.616-.274c-.0671908-.0289428-.1077209-.0982493-.1-.171l.072-.671c.0932774-.8527877-.326012-1.6801611-1.068888-2.1092099-.7428759-.4290487-1.6690623-.3787562-2.361112.1282099l-.543.4c-.0568889.0426667-.1351111.0426667-.192 0l-.543-.4c-.6918619-.5079469-1.6186074-.5587583-2.3618544-.1294952s-1.1623664 1.2573801-1.0681456 2.1104952l.072.669c.0079795.0733077-.0324934.1433258-.1.173l-.615.272c-.7841054.3471346-1.2897619 1.1239898-1.2897619 1.9815s.5056565 1.6343654 1.2897619 1.9815l.616.274c.0671908.0289428.1077209.0982493.1.171l-.072.671c-.1010732.8554732.3211255 1.6880443 1.071 2.112.7406022.4348881 1.669693.3836659 2.358-.13l.542-.4c.0570916-.0431687.1359084-.0431687.193 0l.543.4c.6918619.5079469 1.6186074.5587583 2.3618544.1294952s1.1623664-1.2573801 1.0681456-2.1104952l-.066-.67c-.0079795-.0733077.0324934-.1433258.1-.173l.615-.272c.7841054-.3471346 1.2897619-1.1239898 1.2897619-1.9815s-.5056565-1.6343654-1.2897619-1.9815zm-.81 2.134-.614.272c-.8655666.3800097-1.3836786 1.2785026-1.279 2.218l.073.669c.0113983.0667057-.0217965.1330953-.082.164-.0550824.0353374-.1267167.0308855-.177-.011l-.544-.4c-.7603603-.5599701-1.7966397-.5599701-2.557 0l-.543.4c-.0511893.0397914-.1216546.0437724-.177.01-.0600438-.0305489-.0932617-.0965796-.082-.163l.073-.671c.1045771-.9386918-.4131421-1.8363957-1.278-2.216l-.615-.274c-.0628161-.022682-.1028661-.0843917-.098-.151-.0044787-.067584.0363008-.1299767.1-.153l.614-.272c.8655666-.3800097 1.3836786-1.2785026 1.279-2.218l-.073-.669c-.0117454-.0662345.0205716-.1324844.08-.164.0259004-.0149351.0551132-.0231834.085-.024.0341072.0006003.0669599.0129642.093.035l.544.4c.7599403.5601246 1.7960597.5601246 2.556 0l.543-.4c.0505076-.0415722.1221314-.0456187.177-.01.0602035.0309047.0933983.0972943.082.164l-.073.67c-.1045771.9386918.4131421 1.8363957 1.278 2.216l.615.274c.0639896.0220705.1050621.0845007.1.152.0040199.0672251-.0366748.129081-.1.152z"/><path id="Shape" d="m14 27.927c-.0079795-.0733077.0324934-.1433258.1-.173l.615-.272c.7841054-.3471346 1.2897619-1.1239898 1.2897619-1.9815s-.5056565-1.6343654-1.2897619-1.9815l-.616-.274c-.0671908-.0289428-.1077209-.0982493-.1-.171l.072-.671c.0932774-.8527877-.326012-1.6801611-1.068888-2.1092099-.7428759-.4290487-1.6690623-.3787562-2.361112.1282099l-.543.4c-.0567763.043003-.13522365.043003-.192 0l-.543-.4c-.69141676-.5087302-1.61824159-.5604527-2.36196935-.1318123-.74372777.4286403-1.16360239 1.25652-1.07003065 2.1098123l.072.669c.00797948.0733077-.03249343.1433258-.1.173l-.615.272c-.78410539.3471346-1.28976186 1.1239898-1.28976186 1.9815s.50565647 1.6343654 1.28976186 1.9815l.616.274c.06719076.0289428.10772086.0982493.1.171l-.072.671c-.10291564.8558355.31818764 1.6897619 1.068 2.115.74060221.4348881 1.66969296.3836659 2.358-.13l.542-.4c.05709161-.0431687.1359084-.0431687.193 0l.543.4c.6918619.5079469 1.6186074.5587583 2.3618544.1294952s1.1623664-1.2573801 1.0681456-2.1104952zm-.1-2.274-.614.272c-.8655666.3800097-1.3836786 1.2785026-1.279 2.218l.073.669c.0113983.0667057-.0217965.1330953-.082.164-.0550824.0353374-.1267167.0308855-.177-.011l-.544-.4c-.7603603-.5599701-1.79663965-.5599701-2.557 0l-.543.4c-.05129352.0395123-.12158243.0434834-.177.01-.06004376-.0305489-.09326166-.0965796-.082-.163l.073-.671c.10457705-.9386918-.41314208-1.8363957-1.278-2.216l-.615-.274c-.06281611-.022682-.10286611-.0843917-.098-.151-.00447869-.067584.03630085-.1299767.1-.153l.614-.272c.8655666-.3800097 1.38367859-1.2785026 1.279-2.218l-.073-.669c-.01174537-.0662345.02057162-.1324844.08-.164.02590043-.0149351.05511317-.0231834.085-.024.03410719.0006003.06695995.0129642.093.035l.544.4c.75994028.5601246 1.7960597.5601246 2.556 0l.543-.4c.0507461-.0409574.1219636-.0449809.177-.01.0602035.0309047.0933983.0972943.082.164l-.073.67c-.1045771.9386918.4131421 1.8363957 1.278 2.216l.615.274c.0639896.0220705.1050621.0845007.1.152.0040199.0672251-.0366748.129081-.1.152z"/></g></g></svg>