<svg id="Capa_1" enable-background="new 0 0 511.989 511.989" height="64" viewBox="0 0 511.989 511.989" width="64" fill="white" xmlns="http://www.w3.org/2000/svg"><g><path d="m303.775 291.54v-19.147c42.98-4.344 78.958-14.875 104.37-30.593 30.563-18.904 46.719-45.808 46.719-77.802 0-37.407-21.916-78.826-58.625-110.797-39.393-34.306-89.199-53.201-140.244-53.201-50.858 0-100.53 18.777-139.866 52.874-3.13 2.713-3.468 7.449-.755 10.579 2.712 3.13 7.449 3.469 10.579.755 3.708-3.214 7.515-6.282 11.41-9.2 6.543 15.352 21.804 25.921 39.213 25.921 23.491 0 42.604-19.112 42.604-42.604 0-6.611-1.525-13.052-4.399-18.867 13.501-2.944 27.311-4.458 41.214-4.458 39.475 0 75.971 12.245 105.867 31.171-14.104 6.739-23.871 21.145-23.871 37.79 0 23.079 18.775 41.854 41.854 41.854 17.238 0 32.074-10.475 38.48-25.395 13.752 20.661 21.538 42.785 21.538 63.578 0 41.803-32.106 66.262-71.804 79.898 18.91-13.792 29.816-31.141 29.816-49.814 0-7.584-1.792-15.072-5.327-22.258-1.828-3.717-6.323-5.25-10.04-3.419-3.717 1.828-5.248 6.323-3.419 10.04 1.316 2.677 2.292 5.396 2.924 8.137h-83.604c-2.441-1.471-4.942-2.804-7.493-3.998l57.396-33.141c3.255 1.814 6.349 3.736 9.263 5.76 3.398 2.363 8.075 1.521 10.438-1.882 2.362-3.401 1.521-8.075-1.882-10.438-26.904-18.688-67.049-29.407-110.138-29.407h-.006c-57.401.001-141.876 24.598-141.876 80.606 0 18.674 10.906 36.022 29.816 49.814-39.692-13.635-71.804-38.091-71.804-79.898 0-24.237 10.74-51 30.241-75.357 2.589-3.233 2.066-7.953-1.167-10.542-3.234-2.588-7.952-2.065-10.542 1.167-21.624 27.008-33.532 57.1-33.532 84.732 0 31.994 16.155 58.897 46.719 77.802 25.411 15.718 61.389 26.248 104.369 30.593v27.496c0 21.549-5.694 42.801-16.468 61.46l-35.439 61.384c-7.947 13.765-10.059 29.801-5.945 45.154s13.96 28.185 27.726 36.132c9.348 5.397 19.562 7.961 29.651 7.96 20.58-.001 40.625-10.674 51.634-29.741l4.557-7.892c14.419-24.975 25.089-51.799 31.757-79.818h12.303v19.42c0 15.988 2.473 31.817 7.349 47.046 1.265 3.95 5.488 6.117 9.43 4.855 3.944-1.263 6.119-5.484 4.855-9.43-4.401-13.748-6.634-28.038-6.634-42.472v-19.42h25.785v6.387c0 12.889 3.406 25.601 9.851 36.763l17.941 31.076c2.515 4.355 3.183 9.43 1.881 14.287s-4.417 8.917-8.772 11.432c-8.994 5.193-20.528 2.098-25.719-6.891-2.071-3.588-6.66-4.814-10.245-2.745-3.587 2.071-4.816 6.658-2.745 10.245 9.297 16.103 30.012 21.734 46.209 12.381 7.825-4.518 13.423-11.812 15.762-20.54s1.139-17.844-3.38-25.669l-17.941-31.076c-5.13-8.885-7.841-19.004-7.841-29.263v-6.387h23.401c13.594 0 25.583-7.665 31.289-20.003 5.705-12.338 3.78-26.437-5.023-36.794-8.929-10.506-16.732-19.686-25.717-30.257-20.934-24.628-55.971-30.91-83.948-15.933zm-99.596-253.215c0 15.221-12.383 27.604-27.604 27.604-12.365 0-23.056-8.223-26.469-19.733 15.555-9.905 32.274-17.58 49.666-22.838 2.865 4.432 4.407 9.613 4.407 14.967zm175.666 72.49c-14.808 0-26.854-12.047-26.854-26.854 0-14.048 10.844-25.611 24.602-26.759 10.932 8.466 20.706 17.836 29.088 27.756-.527 14.347-12.363 25.857-26.836 25.857zm-56.017 209.096c0 15.192-12.36 27.552-27.553 27.552-7.454 0-14.463-2.984-19.59-8.173l18.785-22.1c5.894-6.934 13.367-12.141 21.668-15.275 4.29 4.971 6.69 11.341 6.69 17.996zm-20.053-65.141v-24.441l27.941 16.133c-8.52 3.339-17.889 6.148-27.941 8.308zm44.522-16.055-44.521-25.707v-11.425h78.23c-3.244 13.944-15.386 26.964-33.709 37.132zm-140.084 16.055c-10.05-2.16-19.419-4.969-27.938-8.307l27.938-16.132zm3.623-122.143 23.657 40.962-55.236-31.894c9.735-3.829 20.351-6.872 31.579-9.068zm51.654-4.036c7.056.215 13.996.734 20.767 1.541l-20.767 35.965zm-15 37.508-20.77-35.963c6.778-.81 13.718-1.329 20.77-1.545zm27.987 7.503 23.667-40.987c11.281 2.2 21.916 5.245 31.622 9.062zm-112.784-24.151 57.385 33.135c-2.552 1.194-5.055 2.526-7.498 3.997h-83.612c3.139-13.708 14.832-26.66 33.725-37.132zm-33.709 52.132h78.229v11.427l-44.519 25.705c-18.324-10.167-30.466-23.187-33.71-37.132zm120.954 265.264-4.557 7.892c-5.944 10.295-15.542 17.659-27.024 20.736-4.326 1.159-8.726 1.656-13.08 1.509 4.963-4.381 9.702-10.21 13.747-17.216 2.071-3.587.842-8.174-2.745-10.245-3.586-2.071-8.174-.843-10.245 2.745-8.806 15.251-19.301 19.896-21.417 18.778-.01-.006-.02-.011-.03-.017s-.02-.012-.03-.018c-2.028-1.275-3.252-12.685 5.553-27.937 2.071-3.587.842-8.174-2.745-10.245-3.59-2.071-8.176-.843-10.245 2.745-4.045 7.007-6.724 14.026-8.036 20.515-2.305-3.697-4.074-7.757-5.233-12.084-3.077-11.482-1.498-23.477 4.446-33.771l35.439-61.384c12.088-20.936 18.478-44.782 18.478-68.96 0-16.268 0-24.647 0-35.898.002-.095.002-.19 0-.285v-65.375c20.281-11.334 45.276-11.334 65.562 0v104.111c-3.322 3.191-2.146 1.986-30.453 35.289-8.804 10.357-10.728 24.456-5.022 36.794 5.099 11.024 15.214 18.318 27.008 19.746-6.373 25.442-16.232 49.816-29.371 72.575zm141.698-130.431c-2.621 4.441-7.469 7.322-12.791 7.322-8.178 0-14.831-6.653-14.831-14.831 0-6.173 3.866-11.618 9.408-13.806.64.677 1.264 1.374 1.872 2.088zm-30.886-31.188c-7.161 5.507-11.736 14.164-11.736 23.68 0 16.449 13.382 29.831 29.831 29.831 8.929 0 17.198-4.038 22.755-10.567 4.538 5.838 5.389 13.267 2.249 20.058-3.271 7.075-9.879 11.299-17.674 11.299-8.07 0-39.476 0-102.587 0-7.795 0-14.402-4.224-17.674-11.299-2.641-5.712-2.458-11.875.366-17.164 7.784 7.257 18.08 11.397 28.995 11.397 23.464 0 42.553-19.089 42.553-42.552 0-7.583-2.017-14.926-5.735-21.338 10.007-.524 19.927 1.776 28.657 6.655z"/><path d="m296.955 70.361c0-13.814-11.238-25.053-25.052-25.053s-25.053 11.238-25.053 25.053c0 13.813 11.238 25.052 25.053 25.052 13.813 0 25.052-11.238 25.052-25.052zm-35.105 0c0-5.543 4.51-10.053 10.053-10.053s10.052 4.51 10.052 10.053-4.509 10.052-10.052 10.052-10.053-4.509-10.053-10.052z"/></g></svg>