<svg height="64" viewBox="0 0 512.12578 512" width="64" fill="white" xmlns="http://www.w3.org/2000/svg"><path d="m485.175781 191.832031c-5.640625-2.5625-9.140625-4.265625-9.984375-6.921875-.964844-2.953125.117188-5.367187 3.472656-11.484375 8.734376-13.394531 10.609376-30.132812 5.050782-45.125-10.238282-31.386719-36.019532-42.121093-72.625-30.234375-28.222656 9.175782-55.785156 30.550782-79.59375 54.214844 15.15625-29.953125 26.96875-62.78125 26.96875-92.445312 0-38.519532-18.1875-59.730469-51.203125-59.730469-15.980469-.648438-31.320313 6.316406-41.351563 18.773437-4.777344 5.117188-6.742187 6.824219-9.847656 6.824219s-5.066406-1.773437-9.847656-6.824219c-10.03125-12.457031-25.371094-19.421875-41.351563-18.773437-33.015625 0-51.199219 21.210937-51.199219 59.730469 0 29.664062 11.808594 62.492187 26.964844 92.433593-23.808594-23.660156-51.371094-45.039062-79.589844-54.210937-36.574218-11.894532-62.414062-1.160156-72.628906 30.234375-5.558594 14.992187-3.683594 31.730469 5.050782 45.125 3.355468 6.117187 4.4375 8.53125 3.476562 11.476562-.855469 2.617188-4.34375 4.34375-9.984375 6.929688-16.796875 5.167969-27.894531 21.136719-26.890625 38.679687 0 46.082032 26.71875 62.40625 49.136719 68.011719 12.542969 3.015625 25.410156 4.484375 38.3125 4.367187 13.320312-.113281 26.609375-1.300781 39.742187-3.539062-26.867187 13.210938-50.542968 32.097656-69.394531 55.355469-8.777344 10.925781-14.140625 24.199219-15.410156 38.160156-.375 16.3125 7.882812 31.613281 21.726562 40.253906 12.523438 9.945313 29.03125 13.339844 44.464844 9.136719 6.828125-1.289062 9.464844-1.578125 12 .25 2.53125 1.824219 3.464844 6.730469 4.5625 14.394531.773437 17.535157 9.378906 33.792969 23.441406 44.296875 8.652344 6.789063 19.25 10.632813 30.242188 10.964844 16.386719 0 32.214843-9.832031 46.292969-29.203125 16.214843-22.289063 25.601562-54.851563 30.882812-89.445313 5.28125 34.59375 14.6875 67.15625 30.882812 89.445313 14.078126 19.371094 29.910157 29.203125 46.292969 29.203125 10.992188-.332031 21.589844-4.175781 30.242188-10.964844 14.0625-10.503906 22.667969-26.761718 23.441406-44.296875 1.101563-7.679687 1.902344-12.460937 4.566406-14.394531 2.660157-1.9375 5.160157-1.53125 11.996094-.25 15.433594 4.191406 31.9375.800781 44.46875-9.128906 13.839844-8.644532 22.097656-23.945313 21.726563-40.261719-1.273438-13.960937-6.632813-27.234375-15.414063-38.160156-18.839844-23.25-42.5-42.136719-69.347656-55.355469 13.128906 2.238281 26.417969 3.425781 39.738281 3.539062 12.902344.117188 25.769531-1.351562 38.316406-4.367187 22.371094-5.605469 49.089844-21.929687 49.089844-68.011719 1.003906-17.542968-10.09375-33.503906-26.886719-38.671875zm-214.75 95.128907c-.675781.308593-1.339843.621093-2.023437.851562-1.179688.445312-2.378906.816406-3.601563 1.121094-1.402343.375-2.828125.660156-4.265625.851562-2.941406.601563-5.96875.601563-8.910156 0-1.4375-.195312-2.863281-.480468-4.265625-.851562-1.210937-.304688-2.398437-.675782-3.566406-1.109375-.699219-.273438-1.382813-.589844-2.066407-.855469-1.277343-.597656-2.515624-1.273438-3.710937-2.023438-.453125-.28125-.914063-.535156-1.347656-.851562-1.601563-1.109375-3.105469-2.351562-4.5-3.710938-.296875-.300781-.542969-.632812-.851563-.941406-.996094-1.0625-1.921875-2.1875-2.773437-3.367187-.511719-.710938-.988281-1.445313-1.449219-2.195313s-.929688-1.65625-1.359375-2.5c-.425781-.84375-.972656-1.886718-1.363281-2.882812-.519532-1.367188-.953125-2.769532-1.296875-4.191406-.265625-1.050782-.4375-2.097657-.597657-3.15625-.164062-1.058594-.265624-2.132813-.324218-3.21875-.050782-.851563-.128906-1.707032-.121094-2.507813.035156-1.902344.226562-3.800781.574219-5.675781.109375-.5625.28125-1.109375.417969-1.707032.339843-1.429687.777343-2.832031 1.304687-4.207031.230469-.597656.460937-1.191406.726563-1.773437.640624-1.40625 1.378906-2.765625 2.207031-4.070313.375-.597656.761719-1.1875 1.179687-1.765625.882813-1.222656 1.84375-2.386718 2.875-3.484375.683594-.714843 1.433594-1.390625 2.183594-2.054687 1.300781-1.1875 2.6875-2.273438 4.148438-3.25h.058593c2.371094-1.503906 4.917969-2.699219 7.585938-3.558594.675781-.230469 1.347656-.453125 2.050781-.640625 1.15625-.3125 2.328125-.566406 3.515625-.75.664063-.105469 1.347656-.136719 2.019531-.207031 2.140625-.195313 4.296875-.195313 6.433594 0 .675781.070312 1.359375.101562 2.023438.207031 1.183593.183594 2.359374.4375 3.515624.75.699219.1875 1.375.410156 2.050782.640625 2.667968.859375 5.214844 2.054688 7.585937 3.558594h.101563c1.449218.964844 2.820312 2.042968 4.105468 3.222656.75.667969 1.5 1.339844 2.183594 2.058594 1.023438 1.089844 1.976563 2.246094 2.859375 3.457031.425781.585937.851563 1.203125 1.210938 1.816406.820312 1.289063 1.550781 2.636719 2.183593 4.027344.273438.597656.503907 1.203125.742188 1.816406.519531 1.359375.953125 2.75 1.296875 4.164063.136719.574218.308594 1.128906.417969 1.707031.347656 1.871094.539062 3.765625.574218 5.667969 0 .851562-.070312 1.664062-.113281 2.5-.058593 1.09375-.171875 2.167968-.332031 3.234375-.164062 1.066406-.332031 2.097656-.597656 3.148437-.34375 1.421875-.777344 2.820313-1.296875 4.191406-.390625.996094-.851563 1.925782-1.367188 2.875-.511719.945313-.851562 1.707032-1.363281 2.558594-.511719.855469-.929688 1.476563-1.433594 2.183594-.867187 1.195312-1.808594 2.335938-2.816406 3.414062-.273438.28125-.511719.605469-.792969.855469-1.40625 1.378907-2.925781 2.632813-4.546875 3.753907-.394531.273437-.855468.503906-1.222656.757812-1.238281.789062-2.527344 1.496094-3.855469 2.117188zm-65.5625-269.789063c11.265625-.609375 22.101563 4.402344 28.9375 13.378906 5.207031 7.210938 13.382813 11.695313 22.261719 12.21875 8.878906-.523437 17.054688-5.007812 22.265625-12.21875 6.832031-8.976562 17.667969-13.988281 28.933594-13.378906 14.652343 0 34.132812 4.429687 34.132812 42.664063 0 51.773437-42.339843 117.90625-64.851562 149.378906-3.820313-1.667969-7.835938-2.855469-11.945313-3.542969v-69.035156c0-4.710938-3.820312-8.53125-8.535156-8.53125-4.710938 0-8.53125 3.820312-8.53125 8.53125v69.035156c-4.113281.6875-8.125 1.875-11.949219 3.542969-22.511719-31.472656-64.851562-97.605469-64.851562-149.378906 0-38.234376 19.480469-42.664063 34.132812-42.664063zm-151.535156 264.789063c-24.695313-6.171876-36.199219-22.519532-36.199219-51.457032 0-15.359375 7.109375-18.652344 16.941406-23.167968 8.578126-2.640626 15.5625-8.914063 19.105469-17.160157 2.242188-8.605469.5-17.761719-4.746093-24.941406-6.429688-9.273437-7.84375-21.132813-3.78125-31.660156 4.523437-13.953125 14.753906-31.09375 51.125-19.285157 49.246093 16 99.070312 76.738282 122.027343 107.851563l-.222656.265625c-.90625 1.03125-1.757813 2.097656-2.558594 3.207031-.257812.335938-.515625.660157-.753906 1-.707031 1-1.363281 2.03125-1.996094 3.082031-.273437.449219-.570312.894532-.851562 1.363282s-.496094.855468-.726563 1.332031l-65.648437-21.332031c-2.941407-1.117188-6.257813-.523438-8.628907 1.546875-2.375 2.066406-3.414062 5.273437-2.710937 8.339843.703125 3.066407 3.039063 5.5 6.078125 6.324219l65.652344 21.335938c-.371094 2.480469-.5625 4.988281-.570313 7.5 0 1.707031.09375 3.414062.253907 5.066406-39.292969 13.03125-102.3125 33.152344-151.789063 20.789063zm158.054687 190.96875c-22.492187 30.921874-40.847656 23.039062-52.703124 14.453124-10.261719-7.855468-16.371094-19.972656-16.578126-32.894531.011719-9.828125-4.140624-19.199219-11.425781-25.789062-7.492187-4.804688-16.746093-5.984375-25.199219-3.207031-10.804687 3.261718-22.527343.941406-31.277343-6.1875-9.128907-5.363282-14.722657-15.171876-14.691407-25.761719 1.179688-10.582031 5.402344-20.589844 12.160157-28.816407 30.429687-41.882812 103.59375-70.503906 140.285156-82.773437 1.6875 2.859375 3.648437 5.546875 5.855469 8.027344l.777344.855469c.304687.324218.597656.671874.910156.996093l-40.566406 55.84375c-1.339844 1.832031-1.890626 4.125-1.539063 6.363281.355469 2.242188 1.585937 4.253907 3.425781 5.582032 1.832032 1.339844 4.121094 1.894531 6.363282 1.539062 2.242187-.351562 4.253906-1.585937 5.582031-3.421875l40.585937-55.859375.714844.347656c.445312.214844.855469.445313 1.332031.640626 3.125 1.386718 6.382813 2.457031 9.71875 3.191406-.246093 79.179687-11.867187 136.773437-33.730469 166.871094zm229.078126-108.203126c6.753906 8.226563 10.976562 18.234376 12.160156 28.816407.027344 10.589843-5.566406 20.398437-14.695313 25.769531-8.753906 7.117188-20.46875 9.433594-31.273437 6.179688-8.457032-2.769532-17.707032-1.589844-25.199219 3.207031-7.289063 6.589843-11.441406 15.960937-11.425781 25.789062-.21875 12.914063-6.324219 25.019531-16.582032 32.871094-11.851562 8.609375-30.214843 16.476563-52.703124-14.457031-21.859376-30.097656-33.484376-87.6875-33.714844-166.835938 3.332031-.734375 6.582031-1.800781 9.703125-3.183594.476562-.210937.9375-.449218 1.410156-.671874l.65625-.324219 40.582031 55.859375c1.761719 2.546875 4.765625 3.941406 7.851563 3.640625 3.082031-.300781 5.757812-2.246094 6.996093-5.089844 1.234376-2.839844.835938-6.125-1.046874-8.585937l-40.566407-55.84375c.3125-.316407.59375-.664063.902344-.988282l.792969-.855468c2.203125-2.480469 4.160156-5.171876 5.847656-8.027344 36.710938 12.226562 109.875 40.847656 140.304688 82.730468zm18.335937-82.773437c-49.492187 12.355469-112.492187-7.765625-151.789063-20.789063.160157-1.707031.253907-3.363281.253907-5.066406-.019531-2.503906-.21875-4.996094-.605469-7.46875l65.65625-21.332031c3.035156-.828125 5.371094-3.257813 6.078125-6.324219.703125-3.066406-.339844-6.273437-2.710937-8.34375-2.371094-2.066406-5.6875-2.660156-8.632813-1.546875l-65.644531 21.332031c-.230469-.449218-.480469-.894531-.726563-1.335937-.246093-.445313-.546875-.898437-.855469-1.351563-.636718-1.046874-1.296874-2.089843-2.003906-3.085937-.238281-.34375-.496094-.667969-.75-1-.855468-1.109375-1.707031-2.175781-2.5625-3.207031l-.21875-.265625c22.980469-31.113281 72.804688-91.851563 122.027344-107.851563 36.359375-11.8125 46.589844 5.332032 51.121094 19.285156 4.066406 10.527344 2.648437 22.382813-3.78125 31.65625-5.246094 7.183594-6.988282 16.34375-4.742188 24.953126 3.542969 8.242187 10.527344 14.511718 19.105469 17.152343 9.871094 4.488281 16.980469 7.78125 16.980469 23.140625 0 28.9375-11.503906 45.285156-36.199219 51.457032zm0 0"/></svg>