<svg height="64" viewBox="0 0 64 64" width="64" fill="white" xmlns="http://www.w3.org/2000/svg">
<g>
    <path d="m32 17a88.12 88.12 0 0 1 -14.215-1.054 27.74 27.74 0 0 1 -7.29-2.041c-1.655-.821-2.495-1.799-2.495-2.905h.89v-1h.11a1 1 0 0 1 1 1c0 .119.249.551 1.384 1.114a25.942 25.942 0 0 0 6.732 1.86 86.108 86.108 0 0 0 13.884 1.026 86.108 86.108 0 0 0 13.884-1.026 25.921 25.921 0 0 0 6.731-1.86c1.136-.563 1.385-.995 1.385-1.114a1 1 0 0 1 1-1h.11v1h.89c0 1.106-.84 2.084-2.5 2.9a27.722 27.722 0 0 1 -7.288 2.041 88.142 88.142 0 0 1 -14.212 1.059z"/>
    <path d="m32 59c-1.677 0-3.374-.037-5.044-.111-6.732-.3-12.219-1.234-15.45-2.62-1.941-.825-3.072-1.791-3.456-2.956l.84-.277v-1.036h.11a1 1 0 0 1 .95.687c.086.261.487.955 2.341 1.743 3.019 1.3 8.258 2.169 14.754 2.461 3.28.144 6.629.144 9.911 0 6.495-.292 11.734-1.166 14.75-2.46 1.857-.789 2.258-1.483 2.344-1.744a1 1 0 0 1 .95-.687h.11v1.036l.84.277c-.384 1.165-1.515 2.131-3.459 2.957-3.228 1.385-8.715 2.316-15.446 2.619-1.671.074-3.368.111-5.045.111z"/>
    <path d="m32 12c-7.955 0-23-1.254-23-6s15.045-6 23-6 23 1.254 23 6-15.045 6-23 6zm0-10c-13.588 0-21 2.643-21 4s7.412 4 21 4 21-2.643 21-4-7.412-4-21-4z"/>
    <path d="m32 64c-7.884 0-22.732-1.232-23-5.874l-2.554-11.541c-.038-.175-.075-.349-.1-.526a58.885 58.885 0 0 1 -.957-5.928 63.441 63.441 0 0 1 -.389-6.941v-2.38c0-1.715.072-3.446.213-5.143.126-1.52.3-3.005.53-4.415.2-1.365.457-2.752.761-4.11l2.52-11.359 1.952.434-2.52 11.36c-.293 1.312-.541 2.65-.737 3.979-.219 1.372-.391 2.806-.512 4.277-.138 1.643-.207 3.316-.207 4.977v2.38a61.35 61.35 0 0 0 .374 6.719 57.853 57.853 0 0 0 .934 5.779c.032.2.063.333.093.472l.06.284 2.515 11.339a.988.988 0 0 1 .024.217c0 1.357 7.412 4 21 4s21-2.643 21-4a.988.988 0 0 1 .024-.217l2.576-11.623c.03-.139.061-.276.084-.418a58.844 58.844 0 0 0 .943-5.834 61.318 61.318 0 0 0 .373-6.718v-2.38c0-1.661-.069-3.334-.207-4.977-.121-1.471-.293-2.9-.51-4.265-.2-1.341-.446-2.679-.739-3.989l-2.52-11.362 1.952-.434 2.524 11.361c.3 1.356.561 2.743.763 4.121.224 1.4.4 2.882.528 4.4.141 1.7.213 3.428.213 5.143v2.38a63.409 63.409 0 0 1 -.386 6.94 59.513 59.513 0 0 1 -.967 5.982c-.018.124-.055.3-.093.473l-.053.25-2.505 11.293c-.268 4.642-15.116 5.874-23 5.874z"/>
    <path d="m32 32c-1.645 0-3.342-.037-5.043-.111a86.247 86.247 0 0 1 -9.928-.972 41.274 41.274 0 0 1 -7.173-1.705c-2.433-.86-3.915-1.839-4.528-2.991l1.764-.942c.165.31.829 1.127 3.431 2.048a39.888 39.888 0 0 0 6.823 1.615 84.193 84.193 0 0 0 9.7.949c3.344.144 6.567.144 9.913 0a83.992 83.992 0 0 0 9.692-.949 39.841 39.841 0 0 0 6.828-1.615c2.6-.921 3.266-1.738 3.431-2.048l1.764.942c-.613 1.152-2.095 2.131-4.528 2.991a41.228 41.228 0 0 1 -7.178 1.705 86.046 86.046 0 0 1 -9.922.972c-1.704.074-3.401.111-5.046.111z"/>
    <path d="m32 27c-1.645 0-3.342-.037-5.043-.111a88.118 88.118 0 0 1 -9.694-.942 43.863 43.863 0 0 1 -7.174-1.65 10.88 10.88 0 0 1 -4.056-2.17l1.394-1.434a8.923 8.923 0 0 0 3.308 1.71 42.318 42.318 0 0 0 6.839 1.569 86.2 86.2 0 0 0 9.471.919c3.342.144 6.566.144 9.912 0a86.335 86.335 0 0 0 9.466-.918 42.427 42.427 0 0 0 6.846-1.573 8.918 8.918 0 0 0 3.3-1.709l1.394 1.434a10.876 10.876 0 0 1 -4.048 2.175 43.97 43.97 0 0 1 -7.181 1.652 88.253 88.253 0 0 1 -9.689.941c-1.703.07-3.4.107-5.045.107z"/>
    <path d="m32 51c-1.645 0-3.342-.037-5.043-.111a89.429 89.429 0 0 1 -9.176-.86 45.213 45.213 0 0 1 -7.2-1.577 14.616 14.616 0 0 1 -3.822-1.728l1.141-1.647a12.635 12.635 0 0 0 3.293 1.47 44.1 44.1 0 0 0 6.883 1.5 87.342 87.342 0 0 0 8.971.84c3.342.144 6.566.144 9.912 0a87.117 87.117 0 0 0 8.964-.84 43.97 43.97 0 0 0 6.883-1.5 12.632 12.632 0 0 0 3.3-1.471l1.136 1.647a14.612 14.612 0 0 1 -3.827 1.729 45.083 45.083 0 0 1 -7.2 1.576 89.2 89.2 0 0 1 -9.169.86c-1.704.075-3.401.112-5.046.112z"/>
    <path d="m32 46c-1.645 0-3.342-.037-5.043-.111a88.653 88.653 0 0 1 -9.723-.942 43.007 43.007 0 0 1 -7.2-1.672c-2.278-.794-3.737-1.666-4.464-2.668l1.618-1.175c.266.367 1.075 1.108 3.5 1.954a41.242 41.242 0 0 0 6.854 1.586 86.774 86.774 0 0 0 9.5.919c3.342.144 6.566.144 9.912 0a86.911 86.911 0 0 0 9.5-.918 41.348 41.348 0 0 0 6.861-1.588c2.421-.845 3.23-1.586 3.5-1.953l1.618 1.175c-.727 1-2.186 1.874-4.46 2.667a43.112 43.112 0 0 1 -7.206 1.674 88.789 88.789 0 0 1 -9.718.941c-1.707.074-3.404.111-5.049.111z"/>
    <path d="m26 16h2v8h-2z"/>
    <path d="m26 53h2v5h-2z"/>
    <path d="m26 30.89h2v14h-2z"/>
    <path d="m36 49.89h2v8.11h-2z"/>
    <path d="m36 33h2v2h-2z"/>
    <path d="m36 37h2v7.89h-2z"/>
    <path d="m36 16h2v9.89h-2z"/>
    <path d="m45.581 25.007c-.19-4.034-.411-8.077-.529-9.985l2-.125c.119 1.916.34 5.971.531 10.016z"/>
    <path d="m45.988 57.152-1.976-.3c.005-.036.553-3.595 1.065-7.925l1.986.234c-.516 4.364-1.069 7.956-1.075 7.991z"/>
    <path d="m47.606 44.051-1.992-.182c.256-2.806.386-5.117.386-6.869 0-1.475-.062-3.774-.189-7.031l2-.078c.127 3.283.189 5.609.189 7.109 0 1.812-.133 4.185-.394 7.051z"/>
    <path d="m18.419 25.007-2-.094c.191-4.045.412-8.1.531-10.016l2 .125c-.12 1.908-.341 5.951-.531 9.985z"/>
    <path d="m18.012 57.152c-.006-.035-.559-3.627-1.075-8l1.986-.234c.512 4.33 1.06 7.889 1.065 7.925z"/>
    <path d="m16.394 44.051c-.261-2.866-.394-5.239-.394-7.051 0-1.5.062-3.826.191-7.109l2 .078c-.129 3.257-.191 5.556-.191 7.031 0 1.752.13 4.063.386 6.869z"/>
    <path d="m11.409 23.4-2-.092c.181-3.948.386-7.7.5-9.748l.032-.6 2 .109-.032.6c-.115 2.04-.32 5.786-.5 9.731z"/>
    <path d="m10.91 55.488c-.192-1.362-.619-4.4-1.014-7.875l1.988-.226c.391 3.448.816 6.468 1 7.758l-.981.2z"/>
    <path d="m9.363 42.415c-.244-2.865-.363-5.115-.363-6.885 0-1.536.062-3.923.19-7.3l2 .077c-.128 3.35-.19 5.714-.19 7.223 0 1.71.117 3.907.356 6.715z"/>
    <path d="m52.591 23.4c-.18-3.941-.385-7.687-.5-9.731l-.032-.6 2-.109.032.6c.112 2.048.317 5.8.5 9.748z"/>
    <path d="m54.637 42.415-1.993-.17c.239-2.808.356-5 .356-6.715 0-1.509-.062-3.873-.189-7.222l2-.077c.128 3.376.19 5.763.19 7.3-.001 1.769-.12 4.019-.364 6.884z"/>
    <path d="m53.1 55.423-1.99-.212.009-.066c.181-1.29.606-4.31 1-7.758l1.988.226c-.398 3.474-.825 6.513-1.007 7.81z"/>
    <path d="m51 8.88h-2v-.88s-.234-.567-2.316-1.264l.634-1.9c2.482.832 3.682 1.864 3.682 3.164z"/>
    <path d="m44.774 6.207a59.5 59.5 0 0 0 -12.774-1.207c-2.034 0-4.026.075-5.921.225l-.157-1.995c1.948-.153 3.992-.23 6.078-.23a61.4 61.4 0 0 1 13.226 1.26z"/>
    <path d="m22.148 5.663-.3-1.978c.651-.1 1.332-.185 2.039-.263l.218 1.988c-.676.074-1.331.159-1.957.253z"/>
    <path d="m15 8.88h-2v-.88c0-1.756 2.226-3.052 6.806-3.962l.394 1.962c-4 .8-5.121 1.748-5.2 2.019z"/>
</g>
</svg>