<svg enable-background="new 0 0 512 512" height="64" viewBox="0 0 512 512" width="64" fill="white" xmlns="http://www.w3.org/2000/svg"><g id="XMLID_28_"><path id="XMLID_603_" d="m370 208c-19.023 0-37.179 3.769-53.774 10.585-6.081-15.19-9.306-31.578-9.306-48.419 0-53.976 33.026-100.38 79.93-120.077-6.35 11.259-11.65 24.83-13.441 39.535-2.792 22.916 3.189 43.952 17.776 62.524 16.919 21.543 33.667 27.568 48.444 32.885 12.05 4.335 22.457 8.079 32.458 20.365 1.914 2.352 5.485 3.687 8.467 3.687.473 0-.476-.034 0-.102 3.478-.5 7.15-2.789 8.51-6.028 1.438-3.428 34.854-84.424 2.312-125.856-15.826-20.149-33.227-27.575-45.933-32.996-3.578-1.527-6.55-2.826-9.048-4.094.231-.001.461-.009.693-.009h10.912c5.523 0 10-4.477 10-10s-4.477-10-10-10h-54.063c-69.966 0-135.744 27.246-185.217 76.719-31.521 31.521-54.001 69.666-66.178 111.29-.181-.001-.361-.009-.542-.009-78.299 0-142 63.701-142 142s63.701 142 142 142c25.132 0 49.832-6.656 71.428-19.248 16.636-9.7 31.146-22.736 42.602-38.144 25.905 34.805 67.348 57.392 113.97 57.392 78.299 0 142-63.701 142-142s-63.701-142-142-142zm105.646-118.547c17.241 21.951 8.511 65.47.123 91.596-9.961-7.852-20.107-11.502-29.37-14.834-13.431-4.832-26.117-9.396-39.486-26.418-11.184-14.24-15.777-30.307-13.651-47.753 1.234-10.129 4.586-19.567 8.67-27.703 3.677 13.103 9.453 25.58 17.235 36.997 1.936 2.84 5.076 4.368 8.271 4.368 1.94 0 3.9-.563 5.624-1.738 4.563-3.111 5.741-9.332 2.63-13.896-7.667-11.247-13.033-23.715-15.94-36.829 5.415 3.954 11.677 6.626 17.841 9.256 11.902 5.078 25.392 10.835 38.053 26.954zm-117.858-46.751c-42.517 26.547-70.868 73.753-70.868 127.464 0 19.976 3.932 39.401 11.334 57.337-16.485 9.692-30.853 22.61-42.225 37.888-11.426-15.369-25.89-28.379-42.477-38.072-15.552-9.089-32.719-15.078-50.499-17.736 27.332-87.026 102.61-153.02 194.735-166.881zm-215.788 429.298c-67.271 0-122-54.729-122-122 0-65.772 52.32-119.546 117.525-121.909-3.177 15.282-5.015 30.944-5.429 46.849-2.771-1.216-5.321-2.945-7.525-5.149-3.905-3.905-10.237-3.905-14.143 0-3.905 3.905-3.905 10.237 0 14.143 8.433 8.433 19.646 13.077 31.571 13.077 11.926 0 23.138-4.645 31.571-13.078 3.905-3.905 3.905-10.237 0-14.142s-10.237-3.905-14.142 0c-2.149 2.149-4.627 3.845-7.317 5.056.454-15.684 2.413-30.995 5.727-45.801 35.187 4.659 67.103 24.644 86.601 54.694-10.487 19.794-16.439 42.343-16.439 66.26s5.953 46.467 16.44 66.261c-22.386 34.5-61.175 55.739-102.44 55.739zm228 0c-67.271 0-122-54.729-122-122 0-44.288 23.723-83.136 59.127-104.514 6.516 11.228 14.527 21.637 23.882 30.961-2.568.213-5.181.026-7.761-.588-5.374-1.275-10.764 2.043-12.042 7.417s2.043 10.764 7.417 12.042c3.458.822 6.917 1.215 10.327 1.215 20.202 0 38.565-13.835 43.437-34.328 1.277-5.373-2.043-10.764-7.417-12.042-5.371-1.277-10.764 2.043-12.042 7.417-.738 3.105-2.052 5.974-3.837 8.507-9.505-8.716-17.551-18.675-23.993-29.524 13.904-5.523 29.055-8.563 44.902-8.563 67.271 0 122 54.729 122 122s-54.729 122-122 122z"/><path id="XMLID_613_" d="m122.842 413.14c-2.74-.578-5.47-1.37-8.171-2.389-20.813-7.845-34.149-26.857-35.766-47.657-.495-6.365-9.315-7.443-11.657-1.504-.088.224.085-.226 0 0-9.136 24.217 2.324 51.236 26.274 61.049 9.814 4.021 20.145 4.522 29.635 2.121 6.103-1.544 5.846-10.321-.315-11.62z"/><path id="XMLID_614_" d="m347.977 413.14c-2.74-.578-5.47-1.37-8.171-2.389-20.813-7.845-34.149-26.857-35.766-47.657-.495-6.365-9.315-7.443-11.657-1.504-.088.224.085-.226 0 0-9.136 24.217 2.324 51.236 26.274 61.049 9.814 4.021 20.145 4.522 29.635 2.121 6.104-1.544 5.846-10.321-.315-11.62z"/></g></svg>