<svg height="64" viewBox="0 0 512 512.06398" width="64" fill="white" xmlns="http://www.w3.org/2000/svg"><path d="m136.566406 290.195312h-17.066406c-4.714844 0-8.535156 3.820313-8.535156 8.535157 0 4.710937 3.820312 8.53125 8.535156 8.53125h17.066406c4.710938 0 8.53125-3.820313 8.53125-8.53125 0-4.714844-3.820312-8.535157-8.53125-8.535157zm0 0"/><path d="m162.164062 298.730469c0 4.710937 3.820313 8.53125 8.535157 8.53125h298.667969c4.710937 0 8.53125-3.820313 8.53125-8.53125 0-4.714844-3.820313-8.535157-8.53125-8.535157h-298.667969c-4.714844 0-8.535157 3.820313-8.535157 8.535157zm0 0"/><path d="m8.566406 512.0625h153.597656c4.714844 0 8.535157-3.820312 8.535157-8.535156v-11.363282c7.769531 12.433594 21.421875 19.960938 36.085937 19.898438h174.6875c18.226563.171875 34.496094-11.398438 40.320313-28.671875 9.320312-25.734375 24.550781-48.917969 44.464843-67.695313 39.253907-39.253906 45.476563-100.695312 45.699219-133.878906.039063-6.816406-2.640625-13.367187-7.445312-18.203125-4.804688-4.832031-11.339844-7.550781-18.15625-7.550781h-23.6875l43.800781-89.164062c12.40625-25.347657 3.292969-55.972657-20.957031-70.410157-.199219-.136719-.410157-.273437-.625-.402343-24.671875-14.148438-56.082031-6.808594-71.925781 16.8125l-95.941407 143.164062h-10.136719c-.792968-1.484375-1.613281-2.917969-2.46875-4.265625l-1.132812-1.84375c-6.988281-11.273437-7.796875-25.316406-2.152344-37.316406l.054688-.113281c11.242187-2.550782 19.992187-11.382813 22.4375-22.652344 2.445312-11.269532-1.855469-22.9375-11.03125-29.921875 12.445312-9.773438 19.871094-24.597657 20.242187-40.421875 0-22.910156-16.214843-43-41.414062-53.023438 11.984375-17.792968 8.898437-41.71875-7.214844-55.882812-16.109375-14.160156-40.230469-14.160156-56.34375 0-16.109375 14.164062-19.199219 38.089844-7.214844 55.882812-25.199219 10.042969-41.414062 30.128906-41.414062 53.023438.363281 15.835937 7.789062 30.675781 20.242187 40.457031-9.164062 6.984375-13.460937 18.644531-11.015625 29.90625 2.441407 11.261719 11.179688 20.089844 22.417969 22.652344l.066406.136719c5.644532 12.011718 4.820313 26.070312-2.191406 37.339843l-1.015625 1.648438c-.855469 1.339843-1.527344 2.925781-2.304687 4.378906h-69.214844c-.792969-1.488281-1.613282-2.921875-2.464844-4.269531l-1.136719-1.84375c-6.988281-11.269532-7.796875-25.3125-2.148437-37.316406l.050781-.109376c11.246094-2.550781 19.996094-11.386718 22.441406-22.65625 2.445313-11.269531-1.855469-22.933593-11.03125-29.917968 12.441407-9.769532 19.863281-24.589844 20.238281-40.40625 0-22.910156-16.210937-43-41.410156-53.023438 11.984375-17.792968 8.894532-41.71875-7.214844-55.882812-16.113281-14.160156-40.234374-14.160156-56.34375 0-16.113281 14.164062-19.203124 38.089844-7.21875 55.882812-25.199218 10.042969-41.410156 30.128906-41.410156 53.023438.359375 15.835937 7.785156 30.675781 20.238282 40.457031-9.164063 6.984375-13.457032 18.644531-11.015626 29.90625 2.445313 11.261719 11.183594 20.089844 22.417969 22.652344l.066407.136719c5.644531 12.011718 4.820312 26.070312-2.191407 37.339843l-1.066406 1.707031c-13.449219 21.699219-15.054687 48.714844-4.265625 71.851563l5.972656 12.628906c-2 1.097657-3.835937 2.46875-5.453125 4.078125-4.917969 4.765625-7.675781 11.332032-7.636719 18.175782.007813 3.261718.644532 6.488281 1.875 9.507812-4.292968 1.097656-8.210937 3.339844-11.332031 6.484375-9.179687 8.96875-10.179687 23.394531-2.328125 33.546875-8.660156 6.386719-13.785156 16.5-13.816406 27.261719v68.265625c0 4.714844 3.820312 8.535156 8.535156 8.535156zm8.53125-17.066406v-59.734375c0-9.425781 7.640625-17.066407 17.066406-17.066407h90.199219c11.199219 11.339844 21.023438 23.957032 29.269531 37.597657v39.203125zm25.601563-136.535156c.0625-4.683594 3.847656-8.46875 8.53125-8.53125h34.289062c1.613281 5.691406 3.5 11.398437 5.707031 17.066406h-39.996093c-4.710938 0-8.53125-3.820313-8.53125-8.535156zm449.707031-82.773438c1.601562 1.605469 2.492188 3.789062 2.464844 6.058594-.203125 30.535156-5.75 86.980468-40.695313 121.925781-21.8125 20.65625-38.476562 46.148437-48.640625 74.417969-3.535156 10.234375-13.234375 17.050781-24.0625 16.90625h-174.6875c-10.863281.171875-20.605468-6.664063-24.140625-16.9375-3.289062-9.703125-7.523437-19.054688-12.636719-27.929688v-.054687c-9.824218-17.035157-21.910156-32.660157-35.933593-46.445313-8.933594-9.101562-16.308594-19.609375-21.828125-31.105468-.09375-.253907-.222656-.484376-.34375-.730469-12.535156-28.363281-18.851563-59.082031-18.523438-90.089844-.011718-2.269531.882813-4.449219 2.484375-6.058594 1.601563-1.609375 3.777344-2.515625 6.046875-2.515625h384.402344c2.292969 0 4.488281.921875 6.09375 2.558594zm-65.265625-153.308594c10.734375-15.996094 31.925781-21.105468 48.769531-11.757812.171875.117187.359375.238281.546875.347656 16.847657 9.773438 23.265625 30.914062 14.695313 48.402344l-47.496094 96.691406h-106.097656zm-171.109375-105.25c10.585938-.097656 20.121094 6.378906 23.929688 16.253906 3.8125 9.875 1.101562 21.078126-6.800782 28.121094-11.332031-2.007812-22.925781-2.007812-34.253906 0-7.914062-7.039062-10.632812-18.246094-6.820312-28.125s13.355468-16.355468 23.945312-16.25zm-17.773438 61.730469c11.71875-2.664063 23.886719-2.664063 35.609376 0 24.667968 5.5625 41.898437 22.28125 41.898437 40.667969-1.121094 15.015625-10.488281 28.167968-24.3125 34.132812h-70.824219c-13.832031-5.960937-23.203125-19.113281-24.332031-34.132812 0-18.386719 17.230469-35.105469 41.960937-40.667969zm-20.625 91.871094h76.800782c7.066406 0 12.796875 5.730469 12.796875 12.796875 0 7.070312-5.730469 12.800781-12.796875 12.800781h-76.800782c-7.070312 0-12.800781-5.730469-12.800781-12.800781 0-7.066406 5.730469-12.796875 12.800781-12.796875zm11.714844 42.664062h53.367188c-4.191406 14.257813-2.582032 29.59375 4.480468 42.667969h-62.292968c7.050781-13.078125 8.652344-28.414062 4.445312-42.667969zm-143.980468-196.265625c10.582031-.097656 20.117187 6.378906 23.929687 16.253906 3.808594 9.875 1.097656 21.078126-6.804687 28.121094-11.328126-2.007812-22.921876-2.007812-34.253907 0-7.914062-7.039062-10.632812-18.246094-6.816406-28.125 3.8125-9.878906 13.355469-16.355468 23.945313-16.25zm-17.777344 61.730469c11.722656-2.664063 23.890625-2.664063 35.609375 0 24.671875 5.5625 41.898437 22.28125 41.898437 40.667969-1.121094 15.015625-10.488281 28.167968-24.308594 34.132812h-70.828124c-13.832032-5.960937-23.203126-19.113281-24.328126-34.132812 0-18.386719 17.226563-35.105469 41.957032-40.667969zm-20.625 91.871094h76.800781c7.070313 0 12.800781 5.730469 12.800781 12.796875 0 7.070312-5.730468 12.800781-12.800781 12.800781h-76.800781c-7.070313 0-12.800782-5.730469-12.800782-12.800781 0-7.066406 5.730469-12.796875 12.800782-12.796875zm4.53125 90.074219 1.074218-1.703126c8.46875-13.667968 10.691407-30.296874 6.109376-45.707031h53.371093c-4.195312 14.257813-2.585937 29.59375 4.476563 42.667969h-14.617188c-6.816406 0-13.351562 2.71875-18.15625 7.550781-4.804687 4.835938-7.484375 11.386719-7.441406 18.203125.09375 17.136719 1.796875 34.226563 5.085938 51.046875h-25.429688l-7.757812-16.503906c-8.355469-17.882813-7.121094-38.777344 3.285156-55.554687zm-25.863282 131.789062c-.007812-2.296875.9375-4.496094 2.609376-6.074219 1.558593-1.59375 3.695312-2.480469 5.921874-2.457031h64.855469c3.128907 5.9375 6.679688 11.640625 10.632813 17.066406h-75.488282c-4.710937 0-8.53125-3.820312-8.53125-8.535156zm0 0"/></svg>