<?xml version="1.0" encoding="iso-8859-1"?>
<svg version="1.1" xmlns="http://www.w3.org/2000/svg" xmlns:xlink="http://www.w3.org/1999/xlink" x="0px" y="0px"
	 viewBox="0 0 511.997 511.997" width="64" height="64" fill="white" style="enable-background:new 0 0 511.997 511.997;" xml:space="preserve">
<g>
	<g>
		<path d="M333.448,479.637c-2.152-4.141-7.26-5.753-11.406-3.596c-24.359,12.671-53.557,19.279-84.35,19.035
			c-47.221-0.333-88.675-16.297-116.727-44.95c-23.78-24.29-36.08-56.247-35.568-92.416c0.573-40.515,16.805-78.516,45.706-107.003
			c13.813-13.615,22.889-31.77,25.557-51.124c0.05-0.361,0.099-0.682,0.151-0.955c3.877-20.24,14.286-38.602,29.309-51.704
			c3.521-3.07,3.887-8.414,0.815-11.935s-8.415-3.887-11.935-0.815c-17.861,15.576-30.222,37.336-34.808,61.277
			c-0.1,0.526-0.2,1.137-0.294,1.824c-2.161,15.676-9.502,30.373-20.673,41.383c-32.088,31.628-50.111,73.822-50.747,118.812
			c-0.578,40.775,13.391,76.908,40.395,104.49c31.229,31.899,76.934,49.667,128.697,50.032c0.532,0.003,1.064,0.006,1.596,0.006
			c32.986,0,64.31-7.233,90.681-20.952C333.992,488.89,335.605,483.782,333.448,479.637z"/>
	</g>
</g>
<g>
	<g>
		<path d="M282.434,78.283l9.435,10.474c13.583,15.079,33.013,23.872,53.306,24.123c0.3,0.003,0.597,0.006,0.896,0.006
			c19.974-0.001,39.246-8.28,52.992-22.8l42.156-44.527c1.878-1.983,2.682-4.751,2.161-7.432c-0.521-2.68-2.305-4.945-4.789-6.079
			L382.817,6.575c-18.461-8.43-39.784-8.769-58.504-0.926c-18.718,7.842-33.435,23.278-40.373,42.35l-4.99,13.715
			c-28.928,6.119-42.419-10.556-44.148-12.9c-3.434-6.579-7.675-12.644-12.904-17.872c-3.304-3.304-8.66-3.304-11.962,0
			c-3.304,3.304-3.304,8.66,0,11.962c16.2,16.2,20.806,43.919,21.407,67.349c-9.263,0.721-18.335,2.764-27.05,6.144
			c-4.356,1.69-6.517,6.59-4.828,10.946c1.688,4.356,6.589,6.517,10.946,4.828c6.691-2.595,13.637-4.24,20.731-4.931
			c-0.375,7.868-1.061,14.454-1.612,18.839c-1.582-0.837-3.069-1.919-4.399-3.248c-3.304-3.305-8.66-3.304-11.962,0
			c-3.304,3.304-3.304,8.66,0,11.962c6.886,6.886,15.93,10.328,24.975,10.328s18.09-3.442,24.975-10.328
			c3.304-3.304,3.304-8.66,0-11.962c-3.304-3.304-8.66-3.304-11.962,0c-1.375,1.375-2.918,2.481-4.56,3.33
			c0.57-4.761,1.188-11.207,1.526-18.715c35.536,4.307,65.342,32.906,72.674,71.192c0.024,0.123,0.046,0.256,0.068,0.39
			c3.243,20.235,12.435,38.431,26.584,52.621c28.875,28.955,44.777,67.409,44.777,108.278c0,41.751-16.47,76.87-47.629,101.561
			c-3.661,2.901-4.277,8.222-1.376,11.883c1.669,2.107,4.14,3.206,6.635,3.206c1.841,0,3.694-0.598,5.248-1.831
			c34.848-27.615,54.04-68.393,54.04-114.821c0-45.379-17.656-88.075-49.715-120.224c-11.624-11.657-19.182-26.647-21.861-43.359
			c-0.052-0.323-0.104-0.624-0.157-0.894c-8.852-46.219-45.538-80.604-89.106-85.013c-0.274-10.909-1.362-22.799-3.93-34.425
			c6.107,2.393,13.445,4.04,22.077,4.04C271.357,80.049,276.684,79.509,282.434,78.283z M299.837,53.783
			c5.408-14.865,16.422-26.418,31.012-32.531c14.589-6.111,30.549-5.859,44.938,0.712l45.012,20.556l-34.02,35.932
			C375.903,89.939,361.2,96.157,345.385,95.96c-15.817-0.196-30.359-6.776-40.947-18.53l-9.407-10.442L299.837,53.783z"/>
	</g>
</g>
<g>
</g>
<g>
</g>
<g>
</g>
<g>
</g>
<g>
</g>
<g>
</g>
<g>
</g>
<g>
</g>
<g>
</g>
<g>
</g>
<g>
</g>
<g>
</g>
<g>
</g>
<g>
</g>
<g>
</g>
</svg>
