<svg enable-background="new 0 0 64 64" height="64" viewBox="0 0 64 64" width="64" fill="white" xmlns="http://www.w3.org/2000/svg"><g><path d="m63.779 19.271c-.115-.143-2.655-3.25-6.781-4.932 1.805-3.709.94-7.341.898-7.508-.09-.358-.369-.638-.728-.728-.167-.042-3.8-.908-7.508.898-1.683-4.127-4.789-6.666-4.932-6.781-.315-.253-.75-.291-1.105-.097-.354.193-.558.583-.516.984.022.204.43 4.679-3.155 9.203-2.076-4.048-6.016-6.063-6.202-6.156-.35-.176-.768-.13-1.072.114s-.439.643-.345 1.021c.022.091 2.131 8.979-2.638 15.246-2.733-.417-5.656-.096-8.705.975-2.599.916-5.221 2.346-7.794 4.25-1.26 1.021-3.376 2.705-4.898 4.227-.986.987-1.909 1.979-2.744 2.952-2.435 2.838-4.02 5.466-4.841 8.023-1.117 3.367-.934 6.601.558 9.886 1.025 2.268 2.708 4.581 5.002 6.875s4.608 3.978 6.874 5.002c1.878.853 3.739 1.278 5.616 1.278 1.407 0 2.824-.239 4.263-.717 2.567-.824 5.194-2.409 8.034-4.844.971-.834 1.967-1.755 2.951-2.744 2.147-2.158 4.188-4.833 4.227-4.898 1.904-2.573 3.334-5.195 4.25-7.795 1.073-3.05 1.393-5.975.976-8.704 6.266-4.768 15.154-2.66 15.246-2.638.377.095.777-.041 1.021-.345.244-.305.289-.723.114-1.072-.093-.186-2.108-4.128-6.156-6.203 4.525-3.586 8.999-3.179 9.2-3.156.407.05.792-.157.988-.512.194-.35.156-.788-.098-1.104zm-7.719-11.331c.138 1.097.218 3.468-.998 5.778-1.46-.373-2.932-.506-4.404-.376.13-1.473-.002-2.946-.376-4.405 2.311-1.215 4.683-1.134 5.778-.997zm-11.032-4.608c1.063 1.216 2.408 3.089 3.143 5.412.476 1.482.629 2.985.488 4.483-1.563-.306-4.412-.411-7.465 1.709-.036-.854-.196-1.688-.427-2.506 3.019-3.359 3.988-6.846 4.261-9.098zm-11.363 20.601c1.286.682 2.515 1.606 3.656 2.747s2.065 2.37 2.753 3.668c.37.673.668 1.38.907 2.11l-7.467-1.972-1.972-7.467c.73.24 1.441.54 2.123.914zm-4.649 32.363-7.335-1.883-1.935-7.395 7.341 1.798zm-5.607 4.724-1.149-4.392 5.97 1.533c-1.68 1.284-3.274 2.231-4.821 2.859zm-20.49-11.424c-.978-2.362-1.169-4.696-.563-7.101l5.586 1.462 1.905 7.418zm14.063-5.341-7.396-1.935-1.884-7.336 7.481 1.929zm-9.61-2.514-4.393-1.15c.626-1.544 1.574-3.139 2.86-4.821zm2.783 2.795 7.379 1.931 1.93 7.378-7.407-1.902zm9.025.284-1.799-7.341 7.266 1.873 1.873 7.266zm-4.124-16.831 7.113 1.752 1.908 7.399-7.236-1.866zm5.582-4.182.963 3.734-5.503-1.356c1.513-.98 3.031-1.763 4.54-2.378zm3.736 6.477 7.495 1.846 1.846 7.495-7.426-1.915zm2.486 9.64 7.399 1.908 1.752 7.113-7.286-1.785zm9.598 2.475 3.734.963c-.615 1.51-1.398 3.028-2.378 4.54zm-.543-2.206-1.846-7.492 7.426 1.962c.315 2.133.111 4.417-.615 6.811zm-6.578-17.688 1.961 7.426-7.492-1.846-1.28-4.966c2.392-.725 4.674-.929 6.811-.614zm-19.625 8.899c1.098-1.098 2.23-2.114 3.378-3.035l1.553 6.339-6.49-1.673c.499-.543 1.016-1.087 1.559-1.631zm-5.555 20.575 6.257 1.607 1.607 6.257c-1.428-.899-2.878-2.075-4.334-3.53-1.454-1.456-2.631-2.906-3.53-4.334zm10.248 9.103-1.779-6.928 7.418 1.905 1.462 5.587c-2.4.605-4.736.415-7.101-.564zm18.191-6.795c-.544.544-1.089 1.061-1.63 1.559l-1.673-6.49 6.339 1.553c-.922 1.149-1.938 2.281-3.036 3.378zm24.264-24.957c-3.173-.372-9.001-.444-13.875 2.839-.209-.694-.468-1.37-.778-2.021 1.814-1.368 3.283-1.746 3.323-1.756.536-.125.871-.66.749-1.197-.123-.538-.658-.874-1.198-.752-.08.018-1.757.416-3.845 1.93-.519-.822-1.131-1.614-1.818-2.375l3.367-3.367c.391-.391.391-1.023 0-1.414s-1.023-.391-1.414 0l-3.367 3.367c-.763-.688-1.556-1.301-2.375-1.818 1.515-2.088 1.912-3.765 1.93-3.845.122-.537-.212-1.069-.749-1.194-.532-.126-1.073.208-1.2.744-.004.016-.378 1.494-1.757 3.323-.654-.311-1.329-.569-2.021-.778 3.283-4.874 3.21-10.7 2.839-13.875 1.389 1.076 3.205 2.871 4.051 5.354.492 1.437.608 2.964.344 4.539-.072.429.142.855.528 1.054.387.199.858.125 1.165-.182 3.453-3.453 6.817-2.933 7.951-2.618.308 1.129.826 4.512-2.616 7.954-.308.308-.381.778-.182 1.165.199.386.625.599 1.054.528 1.576-.264 3.104-.148 4.541.345 2.482.845 4.277 2.661 5.353 4.05zm-5.289-6.097c-.819-.231-1.652-.391-2.506-.427 2.12-3.053 2.014-5.902 1.708-7.465 1.498-.14 3.002.013 4.487.489 2.32.734 4.192 2.079 5.408 3.142-2.252.273-5.739 1.242-9.097 4.261z"/><circle cx="44.777" cy="19.223" r="1.002"/><circle cx="35.673" cy="28.327" r="1.002"/><circle cx="26.818" cy="25.562" r="1.002"/><circle cx="29.037" cy="34.963" r="1.002"/><path d="m20.226 31.726c-.391-.391-1.026-.391-1.417 0s-.391 1.026 0 1.417 1.026.391 1.417 0c.392-.391.392-1.025 0-1.417z"/><circle cx="12.363" cy="39.589" r="1.002"/><circle cx="5.209" cy="46.743" r="1.002"/><circle cx="38.438" cy="37.182" r="1.002"/><path d="m32.24 43.808c-.373-.373-.977-.373-1.35 0s-.373.977 0 1.35.977.373 1.35 0 .373-.978 0-1.35z"/><circle cx="24.411" cy="51.637" r="1.002"/><circle cx="17.256" cy="58.791" r="1.002"/><circle cx="21.957" cy="42.043" r="1.002"/><circle cx="14.796" cy="49.204" r="1.002"/></g></svg>