<svg id="OUTLINE" height="64" viewBox="0 0 512 512" width="64" fill="white" xmlns="http://www.w3.org/2000/svg"><g><path d="m215.979 54.242a7.5 7.5 0 0 1 -5.334-12.772c17.192-17.394 33.294-15.8 43.781-11.4 16.587 6.961 23.112 7.022 25.525 6.437 1.36-.329 1.855-.813 3.6-4.823 2.176-4.991 6.226-14.288 20.128-13.65 8.188.372 19.041 3.83 30.556 9.738a7.5 7.5 0 1 1 -6.846 13.346c-13.5-6.923-21.553-7.97-24.39-8.1-3.592-.162-3.753.2-5.7 4.662-1.953 4.478-4.9 11.245-13.823 13.405-7.778 1.883-18.531-.332-34.86-7.184-12.219-5.128-21.437 2.175-27.309 8.115a7.471 7.471 0 0 1 -5.328 2.226z"/><path d="m387.347 89.791a7.488 7.488 0 0 1 -5.89-2.85 187.093 187.093 0 0 0 -21.441-22.928 7.5 7.5 0 1 1 10.043-11.142 202.133 202.133 0 0 1 23.168 24.77 7.5 7.5 0 0 1 -5.88 12.15z"/><path d="m336.848 120.438a7.494 7.494 0 0 1 -6.5-3.744c-10.272-17.738-33.63-38.612-86.619-37.334-14.845.356-24.145-12.723-32.4-24.264-13.595-19.012-17.87-19.462-23.3-17.945-18.371 5.14-40.306 21.776-60.181 45.643a7.5 7.5 0 1 1 -11.527-9.6c21.779-26.147 46.448-44.549 67.679-50.488 18.841-5.274 30.32 10.773 39.539 23.666 6.676 9.338 12.947 18.149 19.832 17.992 60.359-1.459 87.66 23.566 99.962 44.814a7.5 7.5 0 0 1 -6.483 11.26z"/><path d="m253.355 138.227a7.5 7.5 0 0 1 -6.451-3.664c-7.212-12.113-19.063-18.771-31.61-25.821-15.617-8.774-33.318-18.719-43.5-40.678a7.5 7.5 0 1 1 13.609-6.308c8.141 17.563 22.273 25.5 37.235 33.909 13.712 7.7 27.89 15.67 37.152 31.223a7.5 7.5 0 0 1 -6.438 11.339z"/><path d="m176.562 186.661a7.5 7.5 0 0 1 -6.568-11.109c13.2-24.062 27.31-37.379 47.168-44.529 19.16-6.9 42.027-8.31 62.2-9.557 12.134-.749 23.594-1.457 30.665-3.336 16.735-4.447 26.1-12.35 36.01-20.717 8.38-7.073 17.045-14.387 29.737-18.595 17.953-5.953 33.249-5.337 45.464 1.835 12.83 7.534 21.345 21.871 25.308 42.613a7.5 7.5 0 0 1 -14.735 2.815c-3.115-16.311-9.228-27.244-18.168-32.493-8.322-4.887-19.474-5.066-33.148-.533-9.947 3.3-16.822 9.1-24.783 15.821-10.24 8.643-21.847 18.439-41.832 23.751-8.512 2.262-20.135 2.979-33.593 3.811-19.173 1.184-40.9 2.526-58.047 8.7-16.331 5.879-27.658 16.781-39.1 37.631a7.5 7.5 0 0 1 -6.578 3.892z"/><path d="m256 494a7.5 7.5 0 0 1 0-15 223 223 0 0 0 223-223c0-18.854-4-34.623-8.243-51.318-5.572-21.943-11.334-44.634-6.814-73.646a4.5 4.5 0 0 0 -.017-2.176c-.438-.475-4.372-1.952-14.148.423-32.167 7.814-62.68 34.619-67.466 52.464-12.609 47.012-39.858 52.948-63.9 58.185-17.844 3.887-33.254 7.244-43.675 26.519-2.509 4.641-4.742 8.871-6.713 12.6-9.763 18.494-15.142 28.681-26.983 37.049a7.5 7.5 0 1 1 -8.656-12.25c8.909-6.3 13.129-14.289 22.375-31.8 1.986-3.763 4.238-8.028 6.782-12.734 13.695-25.332 34.936-29.959 53.677-34.042 22.731-4.951 42.362-9.228 52.6-47.414 9.7-36.163 72.424-69.607 97.548-64.3 9.838 2.08 14.97 9.66 13.393 19.783-4.048 25.983 1.09 46.22 6.531 67.645 4.28 16.854 8.7 34.281 8.7 55.01a238 238 0 0 1 -237.991 238.002z"/><path d="m335.665 438.6a7.5 7.5 0 0 1 -6.63-11c5.765-10.951 14.043-24.613 27-33.124 36.957-24.278 55.342-62.643 64.256-90.552a230.422 230.422 0 0 0 10.679-56.139c.659-54.86 3.706-64.819 11.064-88.865.758-2.477 1.564-5.109 2.419-7.967a7.5 7.5 0 1 1 14.369 4.3c-.864 2.889-1.678 5.55-2.444 8.054-7.116 23.256-9.779 31.958-10.411 84.737v.125c-.031 1.1-.889 27.248-11.247 59.884-13.819 43.541-38.179 77.76-70.446 98.958-10.031 6.589-16.731 17.636-21.962 27.574a7.5 7.5 0 0 1 -6.647 4.015z"/><path d="m374.572 392.468a7.5 7.5 0 0 1 -7.372-6.168c-7.154-39.488-32.752-71.61-76.082-95.473a7.5 7.5 0 0 1 7.236-13.14c47.478 26.149 75.607 61.791 83.606 105.938a7.51 7.51 0 0 1 -7.389 8.839z"/><path d="m256 494a236.478 236.478 0 0 1 -137.012-43.371 7.5 7.5 0 0 1 8.645-12.258 223.5 223.5 0 0 0 193.206 31.056c10.026-33.243 8.963-59.4-3.225-79.875-11.126-18.692-29.779-30.567-47.814-42.052-14.409-9.172-28.02-17.837-36.528-29.421-19.245-26.2-22.089-47.313-24.6-65.944-2.5-18.59-4.481-33.273-22.482-49.709-38.141-34.824-37.133-62.475-36.4-82.666.661-18.165.964-26.456-28.977-34.032a7.5 7.5 0 0 1 -4.633-3.481c-3.28-5.559-14.812-20.874-24.388-18.247-6.8 1.868-13.171 18.51-22 41.543-2.53 6.606-5.4 14.093-8.642 22.213-18.677 46.788-28.15 89.934-28.15 128.244a222.873 222.873 0 0 0 77.863 169.31 7.5 7.5 0 0 1 -9.767 11.384 237.856 237.856 0 0 1 -83.096-180.694c0-40.224 9.833-85.241 29.226-133.8 3.2-8.022 6.05-15.457 8.564-22.017 11.551-30.154 17.91-46.764 32.025-50.643 19.1-5.25 34.444 14.632 39.609 22.422 38.724 10.676 38.06 28.987 37.355 48.345-.664 18.223-1.49 40.9 31.521 71.043 22.025 20.11 24.555 38.9 27.234 58.784 2.381 17.676 4.843 35.954 21.82 59.066 6.847 9.32 19.306 17.251 32.5 25.648 18.609 11.847 39.7 25.274 52.653 47.032 14.964 25.14 16.1 56.483 3.467 95.823a7.5 7.5 0 0 1 -4.838 4.845 237.862 237.862 0 0 1 -73.136 11.452z"/><path d="m228.918 492.424a7.475 7.475 0 0 1 -5.012-1.923l-43.427-39.05a7.455 7.455 0 0 1 -1.06-1.178l-33.88-46.8-60.873-69.963a7.491 7.491 0 0 1 -1.758-3.8l-16.408-108.838a7.442 7.442 0 0 1 -.071-1.557l8.828-150.764a7.5 7.5 0 1 1 14.974.877l-8.782 149.982 15.966 105.9 59.661 68.574q.221.253.417.525l33.607 46.422 42.834 38.516a7.5 7.5 0 0 1 -5.018 13.077z"/><path d="m73.916 227.254a7.5 7.5 0 0 1 -5.35-12.757q2.346-2.387 4.632-4.7c26.038-26.389 44.852-45.456 49.618-82.82a7.5 7.5 0 1 1 14.879 1.9c-5.408 42.392-26.772 64.044-53.82 91.457q-2.274 2.305-4.609 4.678a7.479 7.479 0 0 1 -5.35 2.242z"/><path d="m90.317 336.089a7.462 7.462 0 0 1 -3.821-1.052c-34.793-20.652-57.43-54.455-67.28-100.469a7.5 7.5 0 1 1 14.668-3.14c8.939 41.759 29.217 72.279 60.268 90.71a7.5 7.5 0 0 1 -3.835 13.951z"/><path d="m438.62 228.552a7.481 7.481 0 0 1 -5.745-2.674c-15.86-18.869-27.011-42.958-33.142-71.6a7.5 7.5 0 1 1 14.668-3.14c5.613 26.217 15.692 48.115 29.956 65.087a7.5 7.5 0 0 1 -5.737 12.325z"/><path d="m340.978 233.083a7.5 7.5 0 0 1 -7.487-7.162c-.288-6.37-2.1-11.178-4.2-16.745a88.973 88.973 0 0 1 -4.882-16.325c-1.5-8.332 3.351-22.584 10.371-41.809 1.958-5.358 3.807-10.42 4.518-13.111a7.5 7.5 0 0 1 14.5 3.835c-.888 3.355-2.761 8.484-4.93 14.422-3.439 9.419-10.6 29.019-9.7 34a74.608 74.608 0 0 0 4.153 13.691c2.34 6.2 4.759 12.61 5.155 21.366a7.5 7.5 0 0 1 -7.155 7.83c-.114.006-.229.008-.343.008z"/><path d="m188.907 446.758a7.5 7.5 0 0 1 -5.173-12.932c29.567-28.147 36.471-63.867 21.106-109.2a7.5 7.5 0 0 1 14.207-4.814c17.191 50.724 8.79 92.74-24.969 124.879a7.477 7.477 0 0 1 -5.171 2.067z"/><path d="m426.774 315.743a7.5 7.5 0 0 1 -2.219-14.665c24.244-7.52 42.147-23.442 54.732-48.675a7.5 7.5 0 0 1 13.424 6.7c-14.311 28.682-35.744 47.626-63.711 56.297a7.507 7.507 0 0 1 -2.226.343z"/><path d="m116.523 410.376c-16.523 0-31.744-2.892-45.51-8.669a7.5 7.5 0 1 1 5.8-13.831c20.475 8.592 45.027 9.806 72.978 3.61a7.5 7.5 0 0 1 3.246 14.644 168.917 168.917 0 0 1 -36.514 4.246z"/><path d="m281.4 253.077a7.466 7.466 0 0 1 -4.612-1.589c-28.7-22.416-25.849-39.676-23.338-54.9 1.674-10.143 3.118-18.9-4.5-30.7a7.5 7.5 0 0 1 12.6-8.134c10.753 16.662 8.5 30.311 6.693 41.277-2.271 13.763-3.91 23.706 17.771 40.643a7.5 7.5 0 0 1 -4.622 13.41z"/><circle cx="348.81" cy="45.43" r="7.5"/></g></svg>